%TF.GenerationSoftware,KiCad,Pcbnew,9.0.2*%
%TF.CreationDate,2025-06-12T08:57:52+10:00*%
%TF.ProjectId,F0-uConsole,46302d75-436f-46e7-936f-6c652e6b6963,rev?*%
%TF.SameCoordinates,Original*%
%TF.FileFunction,Copper,L1,Top*%
%TF.FilePolarity,Positive*%
%FSLAX46Y46*%
G04 Gerber Fmt 4.6, Leading zero omitted, Abs format (unit mm)*
G04 Created by KiCad (PCBNEW 9.0.2) date 2025-06-12 08:57:52*
%MOMM*%
%LPD*%
G01*
G04 APERTURE LIST*
%TA.AperFunction,ComponentPad*%
%ADD10R,1.700000X1.700000*%
%TD*%
%TA.AperFunction,ComponentPad*%
%ADD11C,1.700000*%
%TD*%
%TA.AperFunction,SMDPad,CuDef*%
%ADD12R,2.350000X0.600000*%
%TD*%
%TA.AperFunction,ViaPad*%
%ADD13C,0.600000*%
%TD*%
%TA.AperFunction,Conductor*%
%ADD14C,0.300000*%
%TD*%
%TA.AperFunction,Conductor*%
%ADD15C,0.200000*%
%TD*%
G04 APERTURE END LIST*
D10*
%TO.P,J5,1,Pin_1*%
%TO.N,+5V*%
X118780000Y-102210000D03*
D11*
%TO.P,J5,2,Pin_2*%
%TO.N,USB4_DN*%
X118780000Y-104750000D03*
%TO.P,J5,3,Pin_3*%
%TO.N,USB4_DP*%
X118780000Y-107290000D03*
%TO.P,J5,4,Pin_4*%
%TO.N,GND*%
X118780000Y-109830000D03*
%TD*%
D12*
%TO.P,J1,1,SPK_LP*%
%TO.N,unconnected-(J1-SPK_LP-Pad1)*%
X104010000Y-65200000D03*
%TO.P,J1,3,SPK_LN*%
%TO.N,unconnected-(J1-SPK_LN-Pad3)*%
X104010000Y-66000000D03*
%TO.P,J1,5,GND*%
%TO.N,GND*%
X104010000Y-66800000D03*
%TO.P,J1,7,USB3_DP*%
%TO.N,USB3_DP*%
X104010000Y-67600000D03*
%TO.P,J1,9,USB3_DM*%
%TO.N,USB3_DN*%
X104010000Y-68400000D03*
%TO.P,J1,11,GND*%
%TO.N,GND*%
X104010000Y-69200000D03*
%TO.P,J1,13,USB4_DP*%
%TO.N,USB4_DP*%
X104010000Y-70000000D03*
%TO.P,J1,15,USB4_DM*%
%TO.N,USB4_DN*%
X104010000Y-70800000D03*
%TO.P,J1,17,3V3*%
%TO.N,+3.3V*%
X104007750Y-74800000D03*
%TO.P,J1,19,3V3*%
X104010000Y-75600000D03*
%TO.P,J1,21,GND*%
%TO.N,GND*%
X104010000Y-76400000D03*
%TO.P,J1,23,CAM_DP3*%
%TO.N,unconnected-(J1-CAM_DP3-Pad23)*%
X104010000Y-77200000D03*
%TO.P,J1,25,CAM_DN3*%
%TO.N,unconnected-(J1-CAM_DN3-Pad25)*%
X104010000Y-78000000D03*
%TO.P,J1,27,GND*%
%TO.N,GND*%
X104010000Y-78800000D03*
%TO.P,J1,29,CAM_DP2*%
%TO.N,unconnected-(J1-CAM_DP2-Pad29)*%
X104010000Y-79600000D03*
%TO.P,J1,31,CAM_DN2*%
%TO.N,unconnected-(J1-CAM_DN2-Pad31)*%
X104010000Y-80400000D03*
%TO.P,J1,33,GND*%
%TO.N,GND*%
X104010000Y-81200000D03*
%TO.P,J1,35,CAM_CP*%
%TO.N,unconnected-(J1-CAM_CP-Pad35)*%
X104010000Y-82000000D03*
%TO.P,J1,37,CAM_CN*%
%TO.N,unconnected-(J1-CAM_CN-Pad37)*%
X104010000Y-82800000D03*
%TO.P,J1,39,GND*%
%TO.N,GND*%
X104010000Y-83600000D03*
%TO.P,J1,41,CAM_DP1*%
%TO.N,unconnected-(J1-CAM_DP1-Pad41)*%
X104010000Y-84400000D03*
%TO.P,J1,43,CAM_DN1*%
%TO.N,unconnected-(J1-CAM_DN1-Pad43)*%
X104010000Y-85200000D03*
%TO.P,J1,45,GND*%
%TO.N,GND*%
X104010000Y-86000000D03*
%TO.P,J1,47,CAM_DP0*%
%TO.N,unconnected-(J1-CAM_DP0-Pad47)*%
X104010000Y-86800000D03*
%TO.P,J1,49,CAM_DN0*%
%TO.N,unconnected-(J1-CAM_DN0-Pad49)*%
X104010000Y-87600000D03*
%TO.P,J1,51,GND*%
%TO.N,GND*%
X104010000Y-88400000D03*
%TD*%
D10*
%TO.P,J4,1,Pin_1*%
%TO.N,+5V*%
X111680000Y-102250000D03*
D11*
%TO.P,J4,2,Pin_2*%
%TO.N,USB3_DN*%
X111680000Y-104790000D03*
%TO.P,J4,3,Pin_3*%
%TO.N,USB3_DP*%
X111680000Y-107330000D03*
%TO.P,J4,4,Pin_4*%
%TO.N,GND*%
X111680000Y-109870000D03*
%TD*%
D10*
%TO.P,J3,1,Pin_1*%
%TO.N,+3.3V*%
X148279918Y-83888558D03*
D11*
%TO.P,J3,2,Pin_2*%
%TO.N,SCL*%
X148279918Y-86428558D03*
%TO.P,J3,3,Pin_3*%
%TO.N,GND*%
X148279918Y-88968558D03*
%TO.P,J3,4,Pin_4*%
%TO.N,SDA*%
X148279918Y-91508558D03*
%TO.P,J3,5,Pin_5*%
%TO.N,TXD0*%
X148279918Y-94048558D03*
%TO.P,J3,6,Pin_6*%
%TO.N,RXD0*%
X148279918Y-96588558D03*
%TO.P,J3,7,Pin_7*%
%TO.N,GPIO40*%
X148279918Y-99128558D03*
%TO.P,J3,8,Pin_8*%
%TO.N,GPIO41*%
X148279918Y-101668558D03*
%TO.P,J3,9,Pin_9*%
%TO.N,RTS0*%
X148279918Y-104208558D03*
%TO.P,J3,10,Pin_10*%
%TO.N,GND*%
X148279918Y-106748558D03*
%TD*%
D10*
%TO.P,J2,1,Pin_1*%
%TO.N,+5V*%
X148279918Y-48388558D03*
D11*
%TO.P,J2,2,Pin_2*%
%TO.N,SPI_MOSI*%
X148279918Y-50928558D03*
%TO.P,J2,3,Pin_3*%
%TO.N,SPI_MISO*%
X148279918Y-53468558D03*
%TO.P,J2,4,Pin_4*%
%TO.N,SPI_CE0*%
X148279918Y-56008558D03*
%TO.P,J2,5,Pin_5*%
%TO.N,SPI_SCLK*%
X148279918Y-58548558D03*
%TO.P,J2,6,Pin_6*%
%TO.N,SPI_CE1*%
X148279918Y-61088558D03*
%TO.P,J2,7,Pin_7*%
%TO.N,GPIO34*%
X148279918Y-63628558D03*
%TO.P,J2,8,Pin_8*%
%TO.N,GND*%
X148279918Y-66168558D03*
%TD*%
D13*
%TO.N,+5V*%
X111100000Y-73200000D03*
X107000000Y-65600000D03*
%TO.N,GND*%
X107137184Y-75546679D03*
X111750000Y-69200000D03*
X106800000Y-88050000D03*
%TO.N,+3.3V*%
X111850000Y-74800000D03*
X106850000Y-74800000D03*
X142050000Y-74800000D03*
%TO.N,TXD0*%
X113050000Y-78300000D03*
%TO.N,RXD0*%
X113650000Y-79050000D03*
%TO.N,SDA*%
X111936464Y-75736464D03*
%TO.N,RTS0*%
X111650735Y-78400735D03*
%TO.N,USB3_DN*%
X108800000Y-86750000D03*
X108800000Y-68400000D03*
X108800000Y-73950000D03*
%TO.N,USB3_DP*%
X108200000Y-87500000D03*
X108200000Y-67600000D03*
X108200000Y-73150000D03*
%TO.N,GPIO40*%
X142750680Y-93599320D03*
X114450000Y-87750000D03*
X112000000Y-84800000D03*
%TO.N,USB4_DP*%
X109700000Y-70000000D03*
X109700000Y-87650000D03*
X109700000Y-73150000D03*
%TO.N,SCL*%
X113300000Y-75800000D03*
%TO.N,SPI_MISO*%
X137500000Y-62000000D03*
%TO.N,SPI_CE0*%
X136451000Y-63850000D03*
%TO.N,SPI_CE1*%
X135050000Y-66450000D03*
%TO.N,GPIO34*%
X133700000Y-68350000D03*
%TO.N,USB4_DN*%
X110300000Y-70800000D03*
X110300000Y-86700000D03*
X110300000Y-73950000D03*
%TO.N,GPIO41*%
X142650000Y-95950000D03*
X112750000Y-85449000D03*
X113550000Y-86950000D03*
%TD*%
D14*
%TO.N,+5V*%
X107000000Y-65600000D02*
X131068476Y-65600000D01*
X111100000Y-73200000D02*
X110999735Y-73300265D01*
X118740000Y-102250000D02*
X111680000Y-102250000D01*
X131068476Y-65600000D02*
X148279918Y-48388558D01*
X113170000Y-96600000D02*
X118780000Y-102210000D01*
X110999735Y-95449735D02*
X112150000Y-96600000D01*
X112150000Y-96600000D02*
X113170000Y-96600000D01*
X110999735Y-73300265D02*
X110999735Y-95449735D01*
%TO.N,GND*%
X111750000Y-71900000D02*
X111050000Y-71900000D01*
D15*
X118740000Y-109870000D02*
X118780000Y-109830000D01*
D14*
X106800000Y-88050000D02*
X106800000Y-104990000D01*
D15*
X148279918Y-66168558D02*
X147128918Y-67319558D01*
D14*
X111050000Y-71900000D02*
X107650000Y-71900000D01*
D15*
X105950000Y-76400000D02*
X105850000Y-76500000D01*
D14*
X105850000Y-76500000D02*
X105850000Y-78750000D01*
X105850000Y-88050000D02*
X106800000Y-88050000D01*
X104000000Y-78800000D02*
X105800000Y-78800000D01*
X111750000Y-69200000D02*
X111750000Y-71900000D01*
X104000000Y-86000000D02*
X105850000Y-86000000D01*
X104000000Y-76400000D02*
X105950000Y-76400000D01*
X148279918Y-106748558D02*
X148279918Y-106383062D01*
X106283863Y-76400000D02*
X107137184Y-75546679D01*
X107550000Y-72000000D02*
X107550000Y-75133863D01*
X105850000Y-86000000D02*
X105850000Y-88050000D01*
X107650000Y-71900000D02*
X107550000Y-72000000D01*
X105950000Y-76400000D02*
X106283863Y-76400000D01*
D15*
X105850000Y-81150000D02*
X105800000Y-81200000D01*
D14*
X104000000Y-66800000D02*
X109500000Y-66800000D01*
X111050000Y-71900000D02*
X111000000Y-71950000D01*
X104000000Y-81200000D02*
X105800000Y-81200000D01*
X111900000Y-69200000D02*
X145248476Y-69200000D01*
X111680000Y-109870000D02*
X118740000Y-109870000D01*
X111750000Y-69200000D02*
X111900000Y-69200000D01*
D15*
X105800000Y-81200000D02*
X105850000Y-81250000D01*
D14*
X105850000Y-83600000D02*
X105850000Y-86000000D01*
X105850000Y-81250000D02*
X105850000Y-83600000D01*
X105850000Y-78750000D02*
X105850000Y-81150000D01*
X145248476Y-69200000D02*
X148279918Y-66168558D01*
X104000000Y-83600000D02*
X105850000Y-83600000D01*
X104000000Y-69200000D02*
X111750000Y-69200000D01*
D15*
X105800000Y-78800000D02*
X105850000Y-78750000D01*
D14*
X107550000Y-75133863D02*
X107137184Y-75546679D01*
X105500000Y-88400000D02*
X104000000Y-88400000D01*
X105850000Y-88050000D02*
X105500000Y-88400000D01*
X109500000Y-66800000D02*
X111900000Y-69200000D01*
X106800000Y-104990000D02*
X111680000Y-109870000D01*
%TO.N,+3.3V*%
X103997750Y-74800000D02*
X106850000Y-74800000D01*
X106850000Y-74800000D02*
X106050000Y-75600000D01*
X106050000Y-75600000D02*
X104000000Y-75600000D01*
X142050000Y-74800000D02*
X111850000Y-74800000D01*
D15*
%TO.N,TXD0*%
X113050000Y-78300000D02*
X132531360Y-78300000D01*
X132531360Y-78300000D02*
X148279918Y-94048558D01*
%TO.N,RXD0*%
X130741360Y-79050000D02*
X148279918Y-96588558D01*
X113650000Y-79050000D02*
X130741360Y-79050000D01*
%TO.N,SDA*%
X111936464Y-76336464D02*
X112150000Y-76550000D01*
X112150000Y-76550000D02*
X141350000Y-76550000D01*
X141350000Y-84578640D02*
X148279918Y-91508558D01*
X111936464Y-75736464D02*
X111936464Y-76336464D01*
X141350000Y-76550000D02*
X141350000Y-84578640D01*
%TO.N,RTS0*%
X111650735Y-78400735D02*
X111650735Y-79050735D01*
X111650735Y-79050735D02*
X112400000Y-79800000D01*
X112400000Y-79800000D02*
X123871360Y-79800000D01*
X123871360Y-79800000D02*
X148279918Y-104208558D01*
%TO.N,USB3_DN*%
X108800000Y-73950000D02*
X108800000Y-86750000D01*
X104000000Y-68400000D02*
X108800000Y-68400000D01*
%TO.N,USB3_DP*%
X108200000Y-73150000D02*
X108200000Y-87500000D01*
X104000000Y-67600000D02*
X108200000Y-67600000D01*
%TO.N,GPIO40*%
X148279918Y-99128558D02*
X142750680Y-93599320D01*
X113050000Y-84800000D02*
X114450000Y-86200000D01*
X142750680Y-93599320D02*
X142750000Y-93598640D01*
X142750000Y-93598640D02*
X142750000Y-93500000D01*
X114450000Y-86200000D02*
X114450000Y-87750000D01*
X112000000Y-84800000D02*
X113050000Y-84800000D01*
%TO.N,USB4_DP*%
X104000000Y-70000000D02*
X109700000Y-70000000D01*
X109700000Y-73150000D02*
X109700000Y-87650000D01*
%TO.N,SCL*%
X141950000Y-76100000D02*
X141950000Y-80098640D01*
X113300000Y-75800000D02*
X141650000Y-75800000D01*
X141950000Y-80098640D02*
X148279918Y-86428558D01*
X141650000Y-75800000D02*
X141950000Y-76100000D01*
%TO.N,SPI_MISO*%
X139748476Y-62000000D02*
X148279918Y-53468558D01*
X137500000Y-62000000D02*
X139748476Y-62000000D01*
%TO.N,SPI_CE0*%
X136451000Y-63850000D02*
X140438476Y-63850000D01*
X140438476Y-63850000D02*
X148279918Y-56008558D01*
%TO.N,SPI_CE1*%
X135050000Y-66450000D02*
X142918476Y-66450000D01*
X142918476Y-66450000D02*
X148279918Y-61088558D01*
%TO.N,GPIO34*%
X143558476Y-68350000D02*
X148279918Y-63628558D01*
X133700000Y-68350000D02*
X143558476Y-68350000D01*
%TO.N,USB4_DN*%
X110300000Y-73950000D02*
X110300000Y-86700000D01*
X104000000Y-70800000D02*
X110300000Y-70800000D01*
%TO.N,GPIO41*%
X112750000Y-86150000D02*
X113550000Y-86950000D01*
X142650000Y-96038640D02*
X142650000Y-95950000D01*
X148279918Y-101668558D02*
X142650000Y-96038640D01*
X142650000Y-95950000D02*
X142650000Y-95800000D01*
X112750000Y-85449000D02*
X112750000Y-86150000D01*
%TD*%
M02*
