M48
; DRILL file {KiCad 9.0.2} date 2025-06-25T22:54:21+1000
; FORMAT={-:-/ absolute / metric / decimal}
; #@! TF.CreationDate,2025-06-25T22:54:21+10:00
; #@! TF.GenerationSoftware,Kicad,Pcbnew,9.0.2
; #@! TF.FileFunction,Plated,1,2,PTH
FMAT,2
METRIC
; #@! TA.AperFunction,Plated,PTH,ViaDrill
T1C0.400
; #@! TA.AperFunction,Plated,PTH,ComponentDrill
T2C1.000
%
G90
G05
T1
X106.389Y-74.669
X107.1Y-73.9
X107.9Y-72.3
X107.9Y-88.5
X108.2Y-67.6
X108.8Y-71.8
X108.8Y-89.9
X109.5Y-66.8
X109.6Y-64.8
X109.7Y-70.0
X109.7Y-72.2
X109.7Y-88.6
X110.3Y-70.8
X110.6Y-73.0
X110.6Y-87.6
X111.275Y-68.375
X111.5Y-69.9
X111.825Y-48.075
X112.475Y-77.0
X112.7Y-87.9
X112.725Y-45.975
X112.875Y-66.775
X113.8Y-87.5
X116.8Y-77.2
X122.5Y-84.4
X125.2Y-83.7
X125.8Y-74.2
X127.0Y-72.3
X127.001Y-84.201
X128.1Y-73.2
X135.6Y-65.1
T2
X118.28Y-52.9
X119.68Y-93.4
X120.82Y-52.9
X122.22Y-93.4
X123.36Y-52.9
X124.76Y-93.4
X125.9Y-52.9
X127.3Y-93.4
X143.44Y-48.463
X143.44Y-51.003
X143.44Y-53.543
X143.44Y-56.083
X143.44Y-58.623
X143.44Y-61.163
X143.44Y-63.703
X143.44Y-66.243
X143.44Y-68.783
X143.44Y-71.323
X143.44Y-89.043
X143.44Y-91.583
X143.44Y-94.123
X143.44Y-96.663
X143.44Y-99.203
X143.44Y-101.743
X143.44Y-104.283
X143.44Y-106.823
M30
