%TF.GenerationSoftware,KiCad,Pcbnew,9.0.2*%
%TF.CreationDate,2025-06-25T22:54:11+10:00*%
%TF.ProjectId,F0-uConsole,46302d75-436f-46e7-936f-6c652e6b6963,rev?*%
%TF.SameCoordinates,Original*%
%TF.FileFunction,Copper,L1,Top*%
%TF.FilePolarity,Positive*%
%FSLAX46Y46*%
G04 Gerber Fmt 4.6, Leading zero omitted, Abs format (unit mm)*
G04 Created by KiCad (PCBNEW 9.0.2) date 2025-06-25 22:54:11*
%MOMM*%
%LPD*%
G01*
G04 APERTURE LIST*
%TA.AperFunction,ComponentPad*%
%ADD10R,1.700000X1.700000*%
%TD*%
%TA.AperFunction,ComponentPad*%
%ADD11C,1.700000*%
%TD*%
%TA.AperFunction,SMDPad,CuDef*%
%ADD12R,2.350000X0.600000*%
%TD*%
%TA.AperFunction,ViaPad*%
%ADD13C,0.700000*%
%TD*%
%TA.AperFunction,Conductor*%
%ADD14C,0.300000*%
%TD*%
G04 APERTURE END LIST*
D10*
%TO.P,J5,1,Pin_1*%
%TO.N,+5V*%
X119680000Y-93400000D03*
D11*
%TO.P,J5,2,Pin_2*%
%TO.N,USB4_DN*%
X122220000Y-93400000D03*
%TO.P,J5,3,Pin_3*%
%TO.N,USB4_DP*%
X124760000Y-93400000D03*
%TO.P,J5,4,Pin_4*%
%TO.N,GND*%
X127300000Y-93400000D03*
%TD*%
D10*
%TO.P,J3,1,Pin_1*%
%TO.N,+3.3V*%
X143440164Y-71322884D03*
D11*
%TO.P,J3,2,Pin_2*%
%TO.N,SCL*%
X143440164Y-68782884D03*
%TO.P,J3,3,Pin_3*%
%TO.N,GND*%
X143440164Y-66242884D03*
%TO.P,J3,4,Pin_4*%
%TO.N,SDA*%
X143440164Y-63702884D03*
%TO.P,J3,5,Pin_5*%
%TO.N,TXD0*%
X143440164Y-61162884D03*
%TO.P,J3,6,Pin_6*%
%TO.N,RXD0*%
X143440164Y-58622884D03*
%TO.P,J3,7,Pin_7*%
%TO.N,GPIO40*%
X143440164Y-56082884D03*
%TO.P,J3,8,Pin_8*%
%TO.N,GPIO41*%
X143440164Y-53542884D03*
%TO.P,J3,9,Pin_9*%
%TO.N,RTS0*%
X143440164Y-51002884D03*
%TO.P,J3,10,Pin_10*%
%TO.N,GND*%
X143440164Y-48462884D03*
%TD*%
D12*
%TO.P,J1,1,SPK_LP*%
%TO.N,/SPK_LP*%
X104010000Y-65200000D03*
%TO.P,J1,3,SPK_LN*%
%TO.N,/SPK_LN*%
X104010000Y-66000000D03*
%TO.P,J1,5,GND*%
%TO.N,GND*%
X104010000Y-66800000D03*
%TO.P,J1,7,USB3_DP*%
%TO.N,USB3_DP*%
X104010000Y-67600000D03*
%TO.P,J1,9,USB3_DM*%
%TO.N,USB3_DN*%
X104010000Y-68400000D03*
%TO.P,J1,11,GND*%
%TO.N,GND*%
X104010000Y-69200000D03*
%TO.P,J1,13,USB4_DP*%
%TO.N,USB4_DP*%
X104010000Y-70000000D03*
%TO.P,J1,15,USB4_DM*%
%TO.N,USB4_DN*%
X104010000Y-70800000D03*
%TO.P,J1,17,3V3*%
%TO.N,+3.3V*%
X104007750Y-74800000D03*
%TO.P,J1,19,3V3*%
X104010000Y-75600000D03*
%TO.P,J1,21,GND*%
%TO.N,GND*%
X104010000Y-76400000D03*
%TO.P,J1,23,CAM_DP3*%
%TO.N,unconnected-(J1-CAM_DP3-Pad23)*%
X104010000Y-77200000D03*
%TO.P,J1,25,CAM_DN3*%
%TO.N,unconnected-(J1-CAM_DN3-Pad25)*%
X104010000Y-78000000D03*
%TO.P,J1,27,GND*%
%TO.N,GND*%
X104010000Y-78800000D03*
%TO.P,J1,29,CAM_DP2*%
%TO.N,unconnected-(J1-CAM_DP2-Pad29)*%
X104010000Y-79600000D03*
%TO.P,J1,31,CAM_DN2*%
%TO.N,unconnected-(J1-CAM_DN2-Pad31)*%
X104010000Y-80400000D03*
%TO.P,J1,33,GND*%
%TO.N,GND*%
X104010000Y-81200000D03*
%TO.P,J1,35,CAM_CP*%
%TO.N,unconnected-(J1-CAM_CP-Pad35)*%
X104010000Y-82000000D03*
%TO.P,J1,37,CAM_CN*%
%TO.N,unconnected-(J1-CAM_CN-Pad37)*%
X104010000Y-82800000D03*
%TO.P,J1,39,GND*%
%TO.N,GND*%
X104010000Y-83600000D03*
%TO.P,J1,41,CAM_DP1*%
%TO.N,unconnected-(J1-CAM_DP1-Pad41)*%
X104010000Y-84400000D03*
%TO.P,J1,43,CAM_DN1*%
%TO.N,unconnected-(J1-CAM_DN1-Pad43)*%
X104010000Y-85200000D03*
%TO.P,J1,45,GND*%
%TO.N,GND*%
X104010000Y-86000000D03*
%TO.P,J1,47,CAM_DP0*%
%TO.N,unconnected-(J1-CAM_DP0-Pad47)*%
X104010000Y-86800000D03*
%TO.P,J1,49,CAM_DN0*%
%TO.N,unconnected-(J1-CAM_DN0-Pad49)*%
X104010000Y-87600000D03*
%TO.P,J1,51,GND*%
%TO.N,GND*%
X104010000Y-88400000D03*
%TD*%
D10*
%TO.P,J4,1,Pin_1*%
%TO.N,+5V*%
X118280000Y-52900000D03*
D11*
%TO.P,J4,2,Pin_2*%
%TO.N,USB3_DN*%
X120820000Y-52900000D03*
%TO.P,J4,3,Pin_3*%
%TO.N,USB3_DP*%
X123360000Y-52900000D03*
%TO.P,J4,4,Pin_4*%
%TO.N,GND*%
X125900000Y-52900000D03*
%TD*%
D10*
%TO.P,J2,1,Pin_1*%
%TO.N,+5V*%
X143440164Y-106822884D03*
D11*
%TO.P,J2,2,Pin_2*%
%TO.N,SPI_MOSI*%
X143440164Y-104282884D03*
%TO.P,J2,3,Pin_3*%
%TO.N,SPI_MISO*%
X143440164Y-101742884D03*
%TO.P,J2,4,Pin_4*%
%TO.N,SPI_CE0*%
X143440164Y-99202884D03*
%TO.P,J2,5,Pin_5*%
%TO.N,SPI_SCLK*%
X143440164Y-96662884D03*
%TO.P,J2,6,Pin_6*%
%TO.N,SPI_CE1*%
X143440164Y-94122884D03*
%TO.P,J2,7,Pin_7*%
%TO.N,GPIO34*%
X143440164Y-91582884D03*
%TO.P,J2,8,Pin_8*%
%TO.N,GND*%
X143440164Y-89042884D03*
%TD*%
D13*
%TO.N,+5V*%
X135600000Y-65100000D03*
X109600000Y-64800000D03*
X111500000Y-69900000D03*
%TO.N,GND*%
X111275000Y-68375000D03*
X107100000Y-73900000D03*
X112875000Y-66775000D03*
X109500000Y-66800000D03*
%TO.N,+3.3V*%
X106389144Y-74668502D03*
%TO.N,TXD0*%
X125800000Y-74200000D03*
%TO.N,RXD0*%
X116800000Y-77200000D03*
%TO.N,SDA*%
X127000000Y-72300000D03*
%TO.N,RTS0*%
X112475000Y-77000000D03*
%TO.N,SPI_MOSI*%
X122500000Y-84400000D03*
%TO.N,USB3_DP*%
X108200000Y-67600000D03*
%TO.N,GPIO40*%
X113800000Y-87500000D03*
%TO.N,USB4_DP*%
X109700000Y-70000000D03*
X109700000Y-88600000D03*
X109700000Y-72200000D03*
%TO.N,SPI_SCLK*%
X127001000Y-84201000D03*
%TO.N,SCL*%
X128100000Y-73200000D03*
%TO.N,SPI_MISO*%
X125200000Y-83700000D03*
%TO.N,USB4_DN*%
X110300000Y-70800000D03*
X110600000Y-87600000D03*
X110600000Y-73000000D03*
%TO.N,GPIO41*%
X112700000Y-87900000D03*
%TO.N,/SPK_RN*%
X107900000Y-88500000D03*
X107900000Y-72300000D03*
%TO.N,/SPK_LN*%
X112725000Y-45975000D03*
%TO.N,/SPK_RP*%
X108800000Y-71800000D03*
X108800000Y-89900000D03*
%TO.N,/SPK_LP*%
X111825000Y-48075000D03*
%TD*%
D14*
%TO.N,+5V*%
X111500000Y-87900000D02*
X117000000Y-93400000D01*
X144677116Y-106822884D02*
X143440164Y-106822884D01*
X148900000Y-102600000D02*
X144677116Y-106822884D01*
X117000000Y-93400000D02*
X119680000Y-93400000D01*
X109600000Y-64800000D02*
X118280000Y-56120000D01*
X148900000Y-83900000D02*
X148900000Y-102600000D01*
X135600000Y-70600000D02*
X148900000Y-83900000D01*
X118280000Y-56120000D02*
X118280000Y-52900000D01*
X135600000Y-65100000D02*
X135600000Y-70600000D01*
X111500000Y-69900000D02*
X111500000Y-87900000D01*
%TO.N,GND*%
X104210000Y-69400000D02*
X110250000Y-69400000D01*
X107151000Y-75532863D02*
X107151000Y-73951000D01*
X124400000Y-50100000D02*
X125900000Y-51600000D01*
X104000000Y-66800000D02*
X109500000Y-66800000D01*
X110250000Y-69400000D02*
X111275000Y-68375000D01*
X105950000Y-76400000D02*
X105850000Y-76500000D01*
X105850000Y-76500000D02*
X105850000Y-78750000D01*
X105850000Y-88050000D02*
X106800000Y-88050000D01*
X104010000Y-69200000D02*
X104210000Y-69400000D01*
X104000000Y-78800000D02*
X105800000Y-78800000D01*
X109500000Y-66800000D02*
X109500000Y-66300000D01*
X104000000Y-86000000D02*
X105850000Y-86000000D01*
X106283863Y-76400000D02*
X107151000Y-75532863D01*
X146077280Y-51100000D02*
X146100000Y-51100000D01*
X107151000Y-73951000D02*
X107100000Y-73900000D01*
X104000000Y-76400000D02*
X105950000Y-76400000D01*
X146100000Y-63583048D02*
X143440164Y-66242884D01*
X106800000Y-94400000D02*
X108300000Y-95900000D01*
X105850000Y-86000000D02*
X105850000Y-88050000D01*
X105950000Y-76400000D02*
X106283863Y-76400000D01*
X105850000Y-81150000D02*
X105800000Y-81200000D01*
X108618471Y-65418471D02*
X108618471Y-63681529D01*
X108618471Y-63681529D02*
X115200000Y-57100000D01*
X109500000Y-66300000D02*
X108618471Y-65418471D01*
X104000000Y-81200000D02*
X105800000Y-81200000D01*
X115200000Y-50100000D02*
X124400000Y-50100000D01*
X105800000Y-81200000D02*
X105850000Y-81250000D01*
X124800000Y-95900000D02*
X127300000Y-93400000D01*
X105850000Y-83600000D02*
X105850000Y-86000000D01*
X105850000Y-81250000D02*
X105850000Y-83600000D01*
X125900000Y-51600000D02*
X125900000Y-52900000D01*
X105850000Y-78750000D02*
X105850000Y-81150000D01*
X143440164Y-48462884D02*
X146077280Y-51100000D01*
X111275000Y-68375000D02*
X112875000Y-66775000D01*
X104000000Y-83600000D02*
X105850000Y-83600000D01*
X105800000Y-78800000D02*
X105850000Y-78750000D01*
X115200000Y-57100000D02*
X115200000Y-50100000D01*
X105500000Y-88400000D02*
X104000000Y-88400000D01*
X105850000Y-88050000D02*
X105500000Y-88400000D01*
X108300000Y-95900000D02*
X124800000Y-95900000D01*
X146100000Y-51100000D02*
X146100000Y-63583048D01*
X106800000Y-88050000D02*
X106800000Y-94400000D01*
%TO.N,+3.3V*%
X106050000Y-75600000D02*
X104000000Y-75600000D01*
X106300000Y-75350000D02*
X106050000Y-75600000D01*
X106389144Y-74668502D02*
X106300000Y-74757646D01*
X103997750Y-74800000D02*
X106257646Y-74800000D01*
X106257646Y-74800000D02*
X106389144Y-74668502D01*
X106300000Y-74757646D02*
X106300000Y-75350000D01*
%TO.N,TXD0*%
X125800000Y-66400000D02*
X125800000Y-74200000D01*
X131037116Y-61162884D02*
X125800000Y-66400000D01*
X143440164Y-61162884D02*
X131037116Y-61162884D01*
%TO.N,RXD0*%
X142163048Y-59900000D02*
X143440164Y-58622884D01*
X130100000Y-59900000D02*
X142163048Y-59900000D01*
X116800000Y-73200000D02*
X130100000Y-59900000D01*
X116800000Y-77200000D02*
X116800000Y-73200000D01*
%TO.N,SDA*%
X131600000Y-62400000D02*
X142137280Y-62400000D01*
X127000000Y-72300000D02*
X127000000Y-67000000D01*
X127000000Y-67000000D02*
X131600000Y-62400000D01*
X142137280Y-62400000D02*
X143440164Y-63702884D01*
%TO.N,RTS0*%
X127800000Y-55900000D02*
X138543048Y-55900000D01*
X138543048Y-55900000D02*
X143440164Y-51002884D01*
X112475000Y-77000000D02*
X112475000Y-71225000D01*
X112475000Y-71225000D02*
X127800000Y-55900000D01*
%TO.N,SPI_MOSI*%
X124500000Y-84400000D02*
X141700000Y-101600000D01*
X122500000Y-84400000D02*
X124500000Y-84400000D01*
X141700000Y-101600000D02*
X141700000Y-102542720D01*
X141700000Y-102542720D02*
X143440164Y-104282884D01*
%TO.N,USB3_DN*%
X120820000Y-57580000D02*
X120820000Y-52900000D01*
X104000000Y-68400000D02*
X110000000Y-68400000D01*
X110000000Y-68400000D02*
X120820000Y-57580000D01*
%TO.N,USB3_DP*%
X104000000Y-67600000D02*
X108200000Y-67600000D01*
%TO.N,GPIO40*%
X115000000Y-72900000D02*
X129400000Y-58500000D01*
X141023048Y-58500000D02*
X143440164Y-56082884D01*
X113800000Y-87500000D02*
X113800000Y-80100000D01*
X113800000Y-80100000D02*
X115000000Y-78900000D01*
X115000000Y-78900000D02*
X115000000Y-72900000D01*
X129400000Y-58500000D02*
X141023048Y-58500000D01*
%TO.N,USB4_DP*%
X104000000Y-70000000D02*
X109700000Y-70000000D01*
X109700000Y-72200000D02*
X109700000Y-88600000D01*
%TO.N,SPI_SCLK*%
X127001000Y-84201000D02*
X139462884Y-96662884D01*
X139462884Y-96662884D02*
X143440164Y-96662884D01*
%TO.N,SCL*%
X128100000Y-68400000D02*
X132500000Y-64000000D01*
X138657280Y-64000000D02*
X143440164Y-68782884D01*
X128100000Y-73200000D02*
X128100000Y-68400000D01*
X132500000Y-64000000D02*
X138657280Y-64000000D01*
%TO.N,SPI_MISO*%
X125200000Y-83700000D02*
X143242884Y-101742884D01*
X143242884Y-101742884D02*
X143440164Y-101742884D01*
%TO.N,USB4_DN*%
X110600000Y-87600000D02*
X110600000Y-73000000D01*
X104000000Y-70800000D02*
X110300000Y-70800000D01*
%TO.N,GPIO41*%
X113800000Y-72200000D02*
X128800000Y-57200000D01*
X112700000Y-79700000D02*
X113800000Y-78600000D01*
X112700000Y-87900000D02*
X112700000Y-79700000D01*
X113800000Y-78600000D02*
X113800000Y-72200000D01*
X139783048Y-57200000D02*
X143440164Y-53542884D01*
X128800000Y-57200000D02*
X139783048Y-57200000D01*
%TO.N,/SPK_RN*%
X107900000Y-72300000D02*
X107900000Y-88500000D01*
%TO.N,/SPK_LN*%
X107900000Y-53500000D02*
X112725000Y-48675000D01*
X107200000Y-66000000D02*
X107900000Y-65300000D01*
X112725000Y-48675000D02*
X112725000Y-45975000D01*
X107900000Y-65300000D02*
X107900000Y-53500000D01*
X104010000Y-66000000D02*
X107200000Y-66000000D01*
%TO.N,/SPK_RP*%
X108800000Y-71800000D02*
X108800000Y-89900000D01*
%TO.N,/SPK_LP*%
X106649943Y-65200000D02*
X106800000Y-65049943D01*
X104010000Y-65200000D02*
X106649943Y-65200000D01*
X106800000Y-65049943D02*
X106800000Y-53100000D01*
X106800000Y-53100000D02*
X111825000Y-48075000D01*
%TD*%
M02*
