%TF.GenerationSoftware,KiCad,Pcbnew,9.0.2*%
%TF.CreationDate,2025-06-12T08:57:52+10:00*%
%TF.ProjectId,F0-uConsole,46302d75-436f-46e7-936f-6c652e6b6963,rev?*%
%TF.SameCoordinates,Original*%
%TF.FileFunction,Legend,Top*%
%TF.FilePolarity,Positive*%
%FSLAX46Y46*%
G04 Gerber Fmt 4.6, Leading zero omitted, Abs format (unit mm)*
G04 Created by KiCad (PCBNEW 9.0.2) date 2025-06-12 08:57:52*
%MOMM*%
%LPD*%
G01*
G04 APERTURE LIST*
%ADD10C,0.250000*%
%ADD11C,0.200000*%
%ADD12C,0.150000*%
%ADD13C,0.100000*%
%ADD14C,0.120000*%
G04 APERTURE END LIST*
D10*
X151207330Y-83628163D02*
X151826377Y-83628163D01*
X151826377Y-83628163D02*
X151493044Y-84207211D01*
X151493044Y-84207211D02*
X151635901Y-84207211D01*
X151635901Y-84207211D02*
X151731139Y-84279592D01*
X151731139Y-84279592D02*
X151778758Y-84351973D01*
X151778758Y-84351973D02*
X151826377Y-84496735D01*
X151826377Y-84496735D02*
X151826377Y-84858640D01*
X151826377Y-84858640D02*
X151778758Y-85003402D01*
X151778758Y-85003402D02*
X151731139Y-85075783D01*
X151731139Y-85075783D02*
X151635901Y-85148163D01*
X151635901Y-85148163D02*
X151350187Y-85148163D01*
X151350187Y-85148163D02*
X151254949Y-85075783D01*
X151254949Y-85075783D02*
X151207330Y-85003402D01*
X152254949Y-85003402D02*
X152302568Y-85075783D01*
X152302568Y-85075783D02*
X152254949Y-85148163D01*
X152254949Y-85148163D02*
X152207330Y-85075783D01*
X152207330Y-85075783D02*
X152254949Y-85003402D01*
X152254949Y-85003402D02*
X152254949Y-85148163D01*
X152635901Y-83628163D02*
X153254948Y-83628163D01*
X153254948Y-83628163D02*
X152921615Y-84207211D01*
X152921615Y-84207211D02*
X153064472Y-84207211D01*
X153064472Y-84207211D02*
X153159710Y-84279592D01*
X153159710Y-84279592D02*
X153207329Y-84351973D01*
X153207329Y-84351973D02*
X153254948Y-84496735D01*
X153254948Y-84496735D02*
X153254948Y-84858640D01*
X153254948Y-84858640D02*
X153207329Y-85003402D01*
X153207329Y-85003402D02*
X153159710Y-85075783D01*
X153159710Y-85075783D02*
X153064472Y-85148163D01*
X153064472Y-85148163D02*
X152778758Y-85148163D01*
X152778758Y-85148163D02*
X152683520Y-85075783D01*
X152683520Y-85075783D02*
X152635901Y-85003402D01*
X153540663Y-83628163D02*
X153873996Y-85148163D01*
X153873996Y-85148163D02*
X154207329Y-83628163D01*
X151254949Y-87522898D02*
X151397806Y-87595278D01*
X151397806Y-87595278D02*
X151635901Y-87595278D01*
X151635901Y-87595278D02*
X151731139Y-87522898D01*
X151731139Y-87522898D02*
X151778758Y-87450517D01*
X151778758Y-87450517D02*
X151826377Y-87305755D01*
X151826377Y-87305755D02*
X151826377Y-87160993D01*
X151826377Y-87160993D02*
X151778758Y-87016231D01*
X151778758Y-87016231D02*
X151731139Y-86943850D01*
X151731139Y-86943850D02*
X151635901Y-86871469D01*
X151635901Y-86871469D02*
X151445425Y-86799088D01*
X151445425Y-86799088D02*
X151350187Y-86726707D01*
X151350187Y-86726707D02*
X151302568Y-86654326D01*
X151302568Y-86654326D02*
X151254949Y-86509564D01*
X151254949Y-86509564D02*
X151254949Y-86364802D01*
X151254949Y-86364802D02*
X151302568Y-86220040D01*
X151302568Y-86220040D02*
X151350187Y-86147659D01*
X151350187Y-86147659D02*
X151445425Y-86075278D01*
X151445425Y-86075278D02*
X151683520Y-86075278D01*
X151683520Y-86075278D02*
X151826377Y-86147659D01*
X152826377Y-87450517D02*
X152778758Y-87522898D01*
X152778758Y-87522898D02*
X152635901Y-87595278D01*
X152635901Y-87595278D02*
X152540663Y-87595278D01*
X152540663Y-87595278D02*
X152397806Y-87522898D01*
X152397806Y-87522898D02*
X152302568Y-87378136D01*
X152302568Y-87378136D02*
X152254949Y-87233374D01*
X152254949Y-87233374D02*
X152207330Y-86943850D01*
X152207330Y-86943850D02*
X152207330Y-86726707D01*
X152207330Y-86726707D02*
X152254949Y-86437183D01*
X152254949Y-86437183D02*
X152302568Y-86292421D01*
X152302568Y-86292421D02*
X152397806Y-86147659D01*
X152397806Y-86147659D02*
X152540663Y-86075278D01*
X152540663Y-86075278D02*
X152635901Y-86075278D01*
X152635901Y-86075278D02*
X152778758Y-86147659D01*
X152778758Y-86147659D02*
X152826377Y-86220040D01*
X153254949Y-87595278D02*
X153254949Y-86075278D01*
X153826377Y-87595278D02*
X153397806Y-86726707D01*
X153826377Y-86075278D02*
X153254949Y-86943850D01*
X151826377Y-88594774D02*
X151731139Y-88522393D01*
X151731139Y-88522393D02*
X151588282Y-88522393D01*
X151588282Y-88522393D02*
X151445425Y-88594774D01*
X151445425Y-88594774D02*
X151350187Y-88739536D01*
X151350187Y-88739536D02*
X151302568Y-88884298D01*
X151302568Y-88884298D02*
X151254949Y-89173822D01*
X151254949Y-89173822D02*
X151254949Y-89390965D01*
X151254949Y-89390965D02*
X151302568Y-89680489D01*
X151302568Y-89680489D02*
X151350187Y-89825251D01*
X151350187Y-89825251D02*
X151445425Y-89970013D01*
X151445425Y-89970013D02*
X151588282Y-90042393D01*
X151588282Y-90042393D02*
X151683520Y-90042393D01*
X151683520Y-90042393D02*
X151826377Y-89970013D01*
X151826377Y-89970013D02*
X151873996Y-89897632D01*
X151873996Y-89897632D02*
X151873996Y-89390965D01*
X151873996Y-89390965D02*
X151683520Y-89390965D01*
X152302568Y-90042393D02*
X152302568Y-88522393D01*
X152302568Y-88522393D02*
X152873996Y-90042393D01*
X152873996Y-90042393D02*
X152873996Y-88522393D01*
X153350187Y-90042393D02*
X153350187Y-88522393D01*
X153350187Y-88522393D02*
X153588282Y-88522393D01*
X153588282Y-88522393D02*
X153731139Y-88594774D01*
X153731139Y-88594774D02*
X153826377Y-88739536D01*
X153826377Y-88739536D02*
X153873996Y-88884298D01*
X153873996Y-88884298D02*
X153921615Y-89173822D01*
X153921615Y-89173822D02*
X153921615Y-89390965D01*
X153921615Y-89390965D02*
X153873996Y-89680489D01*
X153873996Y-89680489D02*
X153826377Y-89825251D01*
X153826377Y-89825251D02*
X153731139Y-89970013D01*
X153731139Y-89970013D02*
X153588282Y-90042393D01*
X153588282Y-90042393D02*
X153350187Y-90042393D01*
X151254949Y-92417128D02*
X151397806Y-92489508D01*
X151397806Y-92489508D02*
X151635901Y-92489508D01*
X151635901Y-92489508D02*
X151731139Y-92417128D01*
X151731139Y-92417128D02*
X151778758Y-92344747D01*
X151778758Y-92344747D02*
X151826377Y-92199985D01*
X151826377Y-92199985D02*
X151826377Y-92055223D01*
X151826377Y-92055223D02*
X151778758Y-91910461D01*
X151778758Y-91910461D02*
X151731139Y-91838080D01*
X151731139Y-91838080D02*
X151635901Y-91765699D01*
X151635901Y-91765699D02*
X151445425Y-91693318D01*
X151445425Y-91693318D02*
X151350187Y-91620937D01*
X151350187Y-91620937D02*
X151302568Y-91548556D01*
X151302568Y-91548556D02*
X151254949Y-91403794D01*
X151254949Y-91403794D02*
X151254949Y-91259032D01*
X151254949Y-91259032D02*
X151302568Y-91114270D01*
X151302568Y-91114270D02*
X151350187Y-91041889D01*
X151350187Y-91041889D02*
X151445425Y-90969508D01*
X151445425Y-90969508D02*
X151683520Y-90969508D01*
X151683520Y-90969508D02*
X151826377Y-91041889D01*
X152254949Y-92489508D02*
X152254949Y-90969508D01*
X152254949Y-90969508D02*
X152493044Y-90969508D01*
X152493044Y-90969508D02*
X152635901Y-91041889D01*
X152635901Y-91041889D02*
X152731139Y-91186651D01*
X152731139Y-91186651D02*
X152778758Y-91331413D01*
X152778758Y-91331413D02*
X152826377Y-91620937D01*
X152826377Y-91620937D02*
X152826377Y-91838080D01*
X152826377Y-91838080D02*
X152778758Y-92127604D01*
X152778758Y-92127604D02*
X152731139Y-92272366D01*
X152731139Y-92272366D02*
X152635901Y-92417128D01*
X152635901Y-92417128D02*
X152493044Y-92489508D01*
X152493044Y-92489508D02*
X152254949Y-92489508D01*
X153207330Y-92055223D02*
X153683520Y-92055223D01*
X153112092Y-92489508D02*
X153445425Y-90969508D01*
X153445425Y-90969508D02*
X153778758Y-92489508D01*
X151302568Y-93416623D02*
X151302568Y-94647100D01*
X151302568Y-94647100D02*
X151350187Y-94791862D01*
X151350187Y-94791862D02*
X151397806Y-94864243D01*
X151397806Y-94864243D02*
X151493044Y-94936623D01*
X151493044Y-94936623D02*
X151683520Y-94936623D01*
X151683520Y-94936623D02*
X151778758Y-94864243D01*
X151778758Y-94864243D02*
X151826377Y-94791862D01*
X151826377Y-94791862D02*
X151873996Y-94647100D01*
X151873996Y-94647100D02*
X151873996Y-93416623D01*
X152112092Y-95081385D02*
X152873996Y-95081385D01*
X152969235Y-93416623D02*
X153540663Y-93416623D01*
X153254949Y-94936623D02*
X153254949Y-93416623D01*
X153778759Y-93416623D02*
X154445425Y-94936623D01*
X154445425Y-93416623D02*
X153778759Y-94936623D01*
X151302568Y-95863738D02*
X151302568Y-97094215D01*
X151302568Y-97094215D02*
X151350187Y-97238977D01*
X151350187Y-97238977D02*
X151397806Y-97311358D01*
X151397806Y-97311358D02*
X151493044Y-97383738D01*
X151493044Y-97383738D02*
X151683520Y-97383738D01*
X151683520Y-97383738D02*
X151778758Y-97311358D01*
X151778758Y-97311358D02*
X151826377Y-97238977D01*
X151826377Y-97238977D02*
X151873996Y-97094215D01*
X151873996Y-97094215D02*
X151873996Y-95863738D01*
X152112092Y-97528500D02*
X152873996Y-97528500D01*
X153683520Y-97383738D02*
X153350187Y-96659929D01*
X153112092Y-97383738D02*
X153112092Y-95863738D01*
X153112092Y-95863738D02*
X153493044Y-95863738D01*
X153493044Y-95863738D02*
X153588282Y-95936119D01*
X153588282Y-95936119D02*
X153635901Y-96008500D01*
X153635901Y-96008500D02*
X153683520Y-96153262D01*
X153683520Y-96153262D02*
X153683520Y-96370405D01*
X153683520Y-96370405D02*
X153635901Y-96515167D01*
X153635901Y-96515167D02*
X153588282Y-96587548D01*
X153588282Y-96587548D02*
X153493044Y-96659929D01*
X153493044Y-96659929D02*
X153112092Y-96659929D01*
X154016854Y-95863738D02*
X154683520Y-97383738D01*
X154683520Y-95863738D02*
X154016854Y-97383738D01*
X151826377Y-98383234D02*
X151731139Y-98310853D01*
X151731139Y-98310853D02*
X151588282Y-98310853D01*
X151588282Y-98310853D02*
X151445425Y-98383234D01*
X151445425Y-98383234D02*
X151350187Y-98527996D01*
X151350187Y-98527996D02*
X151302568Y-98672758D01*
X151302568Y-98672758D02*
X151254949Y-98962282D01*
X151254949Y-98962282D02*
X151254949Y-99179425D01*
X151254949Y-99179425D02*
X151302568Y-99468949D01*
X151302568Y-99468949D02*
X151350187Y-99613711D01*
X151350187Y-99613711D02*
X151445425Y-99758473D01*
X151445425Y-99758473D02*
X151588282Y-99830853D01*
X151588282Y-99830853D02*
X151683520Y-99830853D01*
X151683520Y-99830853D02*
X151826377Y-99758473D01*
X151826377Y-99758473D02*
X151873996Y-99686092D01*
X151873996Y-99686092D02*
X151873996Y-99179425D01*
X151873996Y-99179425D02*
X151683520Y-99179425D01*
X152302568Y-99830853D02*
X152302568Y-98310853D01*
X152302568Y-98310853D02*
X152683520Y-98310853D01*
X152683520Y-98310853D02*
X152778758Y-98383234D01*
X152778758Y-98383234D02*
X152826377Y-98455615D01*
X152826377Y-98455615D02*
X152873996Y-98600377D01*
X152873996Y-98600377D02*
X152873996Y-98817520D01*
X152873996Y-98817520D02*
X152826377Y-98962282D01*
X152826377Y-98962282D02*
X152778758Y-99034663D01*
X152778758Y-99034663D02*
X152683520Y-99107044D01*
X152683520Y-99107044D02*
X152302568Y-99107044D01*
X153302568Y-99830853D02*
X153302568Y-98310853D01*
X153969234Y-98310853D02*
X154159710Y-98310853D01*
X154159710Y-98310853D02*
X154254948Y-98383234D01*
X154254948Y-98383234D02*
X154350186Y-98527996D01*
X154350186Y-98527996D02*
X154397805Y-98817520D01*
X154397805Y-98817520D02*
X154397805Y-99324187D01*
X154397805Y-99324187D02*
X154350186Y-99613711D01*
X154350186Y-99613711D02*
X154254948Y-99758473D01*
X154254948Y-99758473D02*
X154159710Y-99830853D01*
X154159710Y-99830853D02*
X153969234Y-99830853D01*
X153969234Y-99830853D02*
X153873996Y-99758473D01*
X153873996Y-99758473D02*
X153778758Y-99613711D01*
X153778758Y-99613711D02*
X153731139Y-99324187D01*
X153731139Y-99324187D02*
X153731139Y-98817520D01*
X153731139Y-98817520D02*
X153778758Y-98527996D01*
X153778758Y-98527996D02*
X153873996Y-98383234D01*
X153873996Y-98383234D02*
X153969234Y-98310853D01*
X155254948Y-98817520D02*
X155254948Y-99830853D01*
X155016853Y-98238473D02*
X154778758Y-99324187D01*
X154778758Y-99324187D02*
X155397805Y-99324187D01*
X155969234Y-98310853D02*
X156064472Y-98310853D01*
X156064472Y-98310853D02*
X156159710Y-98383234D01*
X156159710Y-98383234D02*
X156207329Y-98455615D01*
X156207329Y-98455615D02*
X156254948Y-98600377D01*
X156254948Y-98600377D02*
X156302567Y-98889901D01*
X156302567Y-98889901D02*
X156302567Y-99251806D01*
X156302567Y-99251806D02*
X156254948Y-99541330D01*
X156254948Y-99541330D02*
X156207329Y-99686092D01*
X156207329Y-99686092D02*
X156159710Y-99758473D01*
X156159710Y-99758473D02*
X156064472Y-99830853D01*
X156064472Y-99830853D02*
X155969234Y-99830853D01*
X155969234Y-99830853D02*
X155873996Y-99758473D01*
X155873996Y-99758473D02*
X155826377Y-99686092D01*
X155826377Y-99686092D02*
X155778758Y-99541330D01*
X155778758Y-99541330D02*
X155731139Y-99251806D01*
X155731139Y-99251806D02*
X155731139Y-98889901D01*
X155731139Y-98889901D02*
X155778758Y-98600377D01*
X155778758Y-98600377D02*
X155826377Y-98455615D01*
X155826377Y-98455615D02*
X155873996Y-98383234D01*
X155873996Y-98383234D02*
X155969234Y-98310853D01*
X151826377Y-100830349D02*
X151731139Y-100757968D01*
X151731139Y-100757968D02*
X151588282Y-100757968D01*
X151588282Y-100757968D02*
X151445425Y-100830349D01*
X151445425Y-100830349D02*
X151350187Y-100975111D01*
X151350187Y-100975111D02*
X151302568Y-101119873D01*
X151302568Y-101119873D02*
X151254949Y-101409397D01*
X151254949Y-101409397D02*
X151254949Y-101626540D01*
X151254949Y-101626540D02*
X151302568Y-101916064D01*
X151302568Y-101916064D02*
X151350187Y-102060826D01*
X151350187Y-102060826D02*
X151445425Y-102205588D01*
X151445425Y-102205588D02*
X151588282Y-102277968D01*
X151588282Y-102277968D02*
X151683520Y-102277968D01*
X151683520Y-102277968D02*
X151826377Y-102205588D01*
X151826377Y-102205588D02*
X151873996Y-102133207D01*
X151873996Y-102133207D02*
X151873996Y-101626540D01*
X151873996Y-101626540D02*
X151683520Y-101626540D01*
X152302568Y-102277968D02*
X152302568Y-100757968D01*
X152302568Y-100757968D02*
X152683520Y-100757968D01*
X152683520Y-100757968D02*
X152778758Y-100830349D01*
X152778758Y-100830349D02*
X152826377Y-100902730D01*
X152826377Y-100902730D02*
X152873996Y-101047492D01*
X152873996Y-101047492D02*
X152873996Y-101264635D01*
X152873996Y-101264635D02*
X152826377Y-101409397D01*
X152826377Y-101409397D02*
X152778758Y-101481778D01*
X152778758Y-101481778D02*
X152683520Y-101554159D01*
X152683520Y-101554159D02*
X152302568Y-101554159D01*
X153302568Y-102277968D02*
X153302568Y-100757968D01*
X153969234Y-100757968D02*
X154159710Y-100757968D01*
X154159710Y-100757968D02*
X154254948Y-100830349D01*
X154254948Y-100830349D02*
X154350186Y-100975111D01*
X154350186Y-100975111D02*
X154397805Y-101264635D01*
X154397805Y-101264635D02*
X154397805Y-101771302D01*
X154397805Y-101771302D02*
X154350186Y-102060826D01*
X154350186Y-102060826D02*
X154254948Y-102205588D01*
X154254948Y-102205588D02*
X154159710Y-102277968D01*
X154159710Y-102277968D02*
X153969234Y-102277968D01*
X153969234Y-102277968D02*
X153873996Y-102205588D01*
X153873996Y-102205588D02*
X153778758Y-102060826D01*
X153778758Y-102060826D02*
X153731139Y-101771302D01*
X153731139Y-101771302D02*
X153731139Y-101264635D01*
X153731139Y-101264635D02*
X153778758Y-100975111D01*
X153778758Y-100975111D02*
X153873996Y-100830349D01*
X153873996Y-100830349D02*
X153969234Y-100757968D01*
X155254948Y-101264635D02*
X155254948Y-102277968D01*
X155016853Y-100685588D02*
X154778758Y-101771302D01*
X154778758Y-101771302D02*
X155397805Y-101771302D01*
X156302567Y-102277968D02*
X155731139Y-102277968D01*
X156016853Y-102277968D02*
X156016853Y-100757968D01*
X156016853Y-100757968D02*
X155921615Y-100975111D01*
X155921615Y-100975111D02*
X155826377Y-101119873D01*
X155826377Y-101119873D02*
X155731139Y-101192254D01*
X151826377Y-103277464D02*
X151731139Y-103205083D01*
X151731139Y-103205083D02*
X151588282Y-103205083D01*
X151588282Y-103205083D02*
X151445425Y-103277464D01*
X151445425Y-103277464D02*
X151350187Y-103422226D01*
X151350187Y-103422226D02*
X151302568Y-103566988D01*
X151302568Y-103566988D02*
X151254949Y-103856512D01*
X151254949Y-103856512D02*
X151254949Y-104073655D01*
X151254949Y-104073655D02*
X151302568Y-104363179D01*
X151302568Y-104363179D02*
X151350187Y-104507941D01*
X151350187Y-104507941D02*
X151445425Y-104652703D01*
X151445425Y-104652703D02*
X151588282Y-104725083D01*
X151588282Y-104725083D02*
X151683520Y-104725083D01*
X151683520Y-104725083D02*
X151826377Y-104652703D01*
X151826377Y-104652703D02*
X151873996Y-104580322D01*
X151873996Y-104580322D02*
X151873996Y-104073655D01*
X151873996Y-104073655D02*
X151683520Y-104073655D01*
X152302568Y-104725083D02*
X152302568Y-103205083D01*
X152302568Y-103205083D02*
X152683520Y-103205083D01*
X152683520Y-103205083D02*
X152778758Y-103277464D01*
X152778758Y-103277464D02*
X152826377Y-103349845D01*
X152826377Y-103349845D02*
X152873996Y-103494607D01*
X152873996Y-103494607D02*
X152873996Y-103711750D01*
X152873996Y-103711750D02*
X152826377Y-103856512D01*
X152826377Y-103856512D02*
X152778758Y-103928893D01*
X152778758Y-103928893D02*
X152683520Y-104001274D01*
X152683520Y-104001274D02*
X152302568Y-104001274D01*
X153302568Y-104725083D02*
X153302568Y-103205083D01*
X153969234Y-103205083D02*
X154159710Y-103205083D01*
X154159710Y-103205083D02*
X154254948Y-103277464D01*
X154254948Y-103277464D02*
X154350186Y-103422226D01*
X154350186Y-103422226D02*
X154397805Y-103711750D01*
X154397805Y-103711750D02*
X154397805Y-104218417D01*
X154397805Y-104218417D02*
X154350186Y-104507941D01*
X154350186Y-104507941D02*
X154254948Y-104652703D01*
X154254948Y-104652703D02*
X154159710Y-104725083D01*
X154159710Y-104725083D02*
X153969234Y-104725083D01*
X153969234Y-104725083D02*
X153873996Y-104652703D01*
X153873996Y-104652703D02*
X153778758Y-104507941D01*
X153778758Y-104507941D02*
X153731139Y-104218417D01*
X153731139Y-104218417D02*
X153731139Y-103711750D01*
X153731139Y-103711750D02*
X153778758Y-103422226D01*
X153778758Y-103422226D02*
X153873996Y-103277464D01*
X153873996Y-103277464D02*
X153969234Y-103205083D01*
X154731139Y-103205083D02*
X155350186Y-103205083D01*
X155350186Y-103205083D02*
X155016853Y-103784131D01*
X155016853Y-103784131D02*
X155159710Y-103784131D01*
X155159710Y-103784131D02*
X155254948Y-103856512D01*
X155254948Y-103856512D02*
X155302567Y-103928893D01*
X155302567Y-103928893D02*
X155350186Y-104073655D01*
X155350186Y-104073655D02*
X155350186Y-104435560D01*
X155350186Y-104435560D02*
X155302567Y-104580322D01*
X155302567Y-104580322D02*
X155254948Y-104652703D01*
X155254948Y-104652703D02*
X155159710Y-104725083D01*
X155159710Y-104725083D02*
X154873996Y-104725083D01*
X154873996Y-104725083D02*
X154778758Y-104652703D01*
X154778758Y-104652703D02*
X154731139Y-104580322D01*
X156302567Y-104725083D02*
X155731139Y-104725083D01*
X156016853Y-104725083D02*
X156016853Y-103205083D01*
X156016853Y-103205083D02*
X155921615Y-103422226D01*
X155921615Y-103422226D02*
X155826377Y-103566988D01*
X155826377Y-103566988D02*
X155731139Y-103639369D01*
X151826377Y-105724579D02*
X151731139Y-105652198D01*
X151731139Y-105652198D02*
X151588282Y-105652198D01*
X151588282Y-105652198D02*
X151445425Y-105724579D01*
X151445425Y-105724579D02*
X151350187Y-105869341D01*
X151350187Y-105869341D02*
X151302568Y-106014103D01*
X151302568Y-106014103D02*
X151254949Y-106303627D01*
X151254949Y-106303627D02*
X151254949Y-106520770D01*
X151254949Y-106520770D02*
X151302568Y-106810294D01*
X151302568Y-106810294D02*
X151350187Y-106955056D01*
X151350187Y-106955056D02*
X151445425Y-107099818D01*
X151445425Y-107099818D02*
X151588282Y-107172198D01*
X151588282Y-107172198D02*
X151683520Y-107172198D01*
X151683520Y-107172198D02*
X151826377Y-107099818D01*
X151826377Y-107099818D02*
X151873996Y-107027437D01*
X151873996Y-107027437D02*
X151873996Y-106520770D01*
X151873996Y-106520770D02*
X151683520Y-106520770D01*
X152302568Y-107172198D02*
X152302568Y-105652198D01*
X152302568Y-105652198D02*
X152873996Y-107172198D01*
X152873996Y-107172198D02*
X152873996Y-105652198D01*
X153350187Y-107172198D02*
X153350187Y-105652198D01*
X153350187Y-105652198D02*
X153588282Y-105652198D01*
X153588282Y-105652198D02*
X153731139Y-105724579D01*
X153731139Y-105724579D02*
X153826377Y-105869341D01*
X153826377Y-105869341D02*
X153873996Y-106014103D01*
X153873996Y-106014103D02*
X153921615Y-106303627D01*
X153921615Y-106303627D02*
X153921615Y-106520770D01*
X153921615Y-106520770D02*
X153873996Y-106810294D01*
X153873996Y-106810294D02*
X153826377Y-106955056D01*
X153826377Y-106955056D02*
X153731139Y-107099818D01*
X153731139Y-107099818D02*
X153588282Y-107172198D01*
X153588282Y-107172198D02*
X153350187Y-107172198D01*
X110072568Y-112290980D02*
X110072568Y-113521457D01*
X110072568Y-113521457D02*
X110120187Y-113666219D01*
X110120187Y-113666219D02*
X110167806Y-113738600D01*
X110167806Y-113738600D02*
X110263044Y-113810980D01*
X110263044Y-113810980D02*
X110453520Y-113810980D01*
X110453520Y-113810980D02*
X110548758Y-113738600D01*
X110548758Y-113738600D02*
X110596377Y-113666219D01*
X110596377Y-113666219D02*
X110643996Y-113521457D01*
X110643996Y-113521457D02*
X110643996Y-112290980D01*
X111072568Y-113738600D02*
X111215425Y-113810980D01*
X111215425Y-113810980D02*
X111453520Y-113810980D01*
X111453520Y-113810980D02*
X111548758Y-113738600D01*
X111548758Y-113738600D02*
X111596377Y-113666219D01*
X111596377Y-113666219D02*
X111643996Y-113521457D01*
X111643996Y-113521457D02*
X111643996Y-113376695D01*
X111643996Y-113376695D02*
X111596377Y-113231933D01*
X111596377Y-113231933D02*
X111548758Y-113159552D01*
X111548758Y-113159552D02*
X111453520Y-113087171D01*
X111453520Y-113087171D02*
X111263044Y-113014790D01*
X111263044Y-113014790D02*
X111167806Y-112942409D01*
X111167806Y-112942409D02*
X111120187Y-112870028D01*
X111120187Y-112870028D02*
X111072568Y-112725266D01*
X111072568Y-112725266D02*
X111072568Y-112580504D01*
X111072568Y-112580504D02*
X111120187Y-112435742D01*
X111120187Y-112435742D02*
X111167806Y-112363361D01*
X111167806Y-112363361D02*
X111263044Y-112290980D01*
X111263044Y-112290980D02*
X111501139Y-112290980D01*
X111501139Y-112290980D02*
X111643996Y-112363361D01*
X112405901Y-113014790D02*
X112548758Y-113087171D01*
X112548758Y-113087171D02*
X112596377Y-113159552D01*
X112596377Y-113159552D02*
X112643996Y-113304314D01*
X112643996Y-113304314D02*
X112643996Y-113521457D01*
X112643996Y-113521457D02*
X112596377Y-113666219D01*
X112596377Y-113666219D02*
X112548758Y-113738600D01*
X112548758Y-113738600D02*
X112453520Y-113810980D01*
X112453520Y-113810980D02*
X112072568Y-113810980D01*
X112072568Y-113810980D02*
X112072568Y-112290980D01*
X112072568Y-112290980D02*
X112405901Y-112290980D01*
X112405901Y-112290980D02*
X112501139Y-112363361D01*
X112501139Y-112363361D02*
X112548758Y-112435742D01*
X112548758Y-112435742D02*
X112596377Y-112580504D01*
X112596377Y-112580504D02*
X112596377Y-112725266D01*
X112596377Y-112725266D02*
X112548758Y-112870028D01*
X112548758Y-112870028D02*
X112501139Y-112942409D01*
X112501139Y-112942409D02*
X112405901Y-113014790D01*
X112405901Y-113014790D02*
X112072568Y-113014790D01*
X112977330Y-112290980D02*
X113596377Y-112290980D01*
X113596377Y-112290980D02*
X113263044Y-112870028D01*
X113263044Y-112870028D02*
X113405901Y-112870028D01*
X113405901Y-112870028D02*
X113501139Y-112942409D01*
X113501139Y-112942409D02*
X113548758Y-113014790D01*
X113548758Y-113014790D02*
X113596377Y-113159552D01*
X113596377Y-113159552D02*
X113596377Y-113521457D01*
X113596377Y-113521457D02*
X113548758Y-113666219D01*
X113548758Y-113666219D02*
X113501139Y-113738600D01*
X113501139Y-113738600D02*
X113405901Y-113810980D01*
X113405901Y-113810980D02*
X113120187Y-113810980D01*
X113120187Y-113810980D02*
X113024949Y-113738600D01*
X113024949Y-113738600D02*
X112977330Y-113666219D01*
D11*
X144077884Y-83705700D02*
X144077884Y-83888557D01*
X144077884Y-83888557D02*
X144151218Y-83979986D01*
X144151218Y-83979986D02*
X144224551Y-84025700D01*
X144224551Y-84025700D02*
X144444551Y-84117129D01*
X144444551Y-84117129D02*
X144737884Y-84162843D01*
X144737884Y-84162843D02*
X145324551Y-84162843D01*
X145324551Y-84162843D02*
X145471218Y-84117129D01*
X145471218Y-84117129D02*
X145544551Y-84071415D01*
X145544551Y-84071415D02*
X145617884Y-83979986D01*
X145617884Y-83979986D02*
X145617884Y-83797129D01*
X145617884Y-83797129D02*
X145544551Y-83705700D01*
X145544551Y-83705700D02*
X145471218Y-83659986D01*
X145471218Y-83659986D02*
X145324551Y-83614272D01*
X145324551Y-83614272D02*
X144957884Y-83614272D01*
X144957884Y-83614272D02*
X144811218Y-83659986D01*
X144811218Y-83659986D02*
X144737884Y-83705700D01*
X144737884Y-83705700D02*
X144664551Y-83797129D01*
X144664551Y-83797129D02*
X144664551Y-83979986D01*
X144664551Y-83979986D02*
X144737884Y-84071415D01*
X144737884Y-84071415D02*
X144811218Y-84117129D01*
X144811218Y-84117129D02*
X144957884Y-84162843D01*
D10*
X117242568Y-112290980D02*
X117242568Y-113521457D01*
X117242568Y-113521457D02*
X117290187Y-113666219D01*
X117290187Y-113666219D02*
X117337806Y-113738600D01*
X117337806Y-113738600D02*
X117433044Y-113810980D01*
X117433044Y-113810980D02*
X117623520Y-113810980D01*
X117623520Y-113810980D02*
X117718758Y-113738600D01*
X117718758Y-113738600D02*
X117766377Y-113666219D01*
X117766377Y-113666219D02*
X117813996Y-113521457D01*
X117813996Y-113521457D02*
X117813996Y-112290980D01*
X118242568Y-113738600D02*
X118385425Y-113810980D01*
X118385425Y-113810980D02*
X118623520Y-113810980D01*
X118623520Y-113810980D02*
X118718758Y-113738600D01*
X118718758Y-113738600D02*
X118766377Y-113666219D01*
X118766377Y-113666219D02*
X118813996Y-113521457D01*
X118813996Y-113521457D02*
X118813996Y-113376695D01*
X118813996Y-113376695D02*
X118766377Y-113231933D01*
X118766377Y-113231933D02*
X118718758Y-113159552D01*
X118718758Y-113159552D02*
X118623520Y-113087171D01*
X118623520Y-113087171D02*
X118433044Y-113014790D01*
X118433044Y-113014790D02*
X118337806Y-112942409D01*
X118337806Y-112942409D02*
X118290187Y-112870028D01*
X118290187Y-112870028D02*
X118242568Y-112725266D01*
X118242568Y-112725266D02*
X118242568Y-112580504D01*
X118242568Y-112580504D02*
X118290187Y-112435742D01*
X118290187Y-112435742D02*
X118337806Y-112363361D01*
X118337806Y-112363361D02*
X118433044Y-112290980D01*
X118433044Y-112290980D02*
X118671139Y-112290980D01*
X118671139Y-112290980D02*
X118813996Y-112363361D01*
X119575901Y-113014790D02*
X119718758Y-113087171D01*
X119718758Y-113087171D02*
X119766377Y-113159552D01*
X119766377Y-113159552D02*
X119813996Y-113304314D01*
X119813996Y-113304314D02*
X119813996Y-113521457D01*
X119813996Y-113521457D02*
X119766377Y-113666219D01*
X119766377Y-113666219D02*
X119718758Y-113738600D01*
X119718758Y-113738600D02*
X119623520Y-113810980D01*
X119623520Y-113810980D02*
X119242568Y-113810980D01*
X119242568Y-113810980D02*
X119242568Y-112290980D01*
X119242568Y-112290980D02*
X119575901Y-112290980D01*
X119575901Y-112290980D02*
X119671139Y-112363361D01*
X119671139Y-112363361D02*
X119718758Y-112435742D01*
X119718758Y-112435742D02*
X119766377Y-112580504D01*
X119766377Y-112580504D02*
X119766377Y-112725266D01*
X119766377Y-112725266D02*
X119718758Y-112870028D01*
X119718758Y-112870028D02*
X119671139Y-112942409D01*
X119671139Y-112942409D02*
X119575901Y-113014790D01*
X119575901Y-113014790D02*
X119242568Y-113014790D01*
X120671139Y-112797647D02*
X120671139Y-113810980D01*
X120433044Y-112218600D02*
X120194949Y-113304314D01*
X120194949Y-113304314D02*
X120813996Y-113304314D01*
D11*
X144077884Y-48839983D02*
X144077884Y-48257126D01*
X144077884Y-48548555D02*
X145617884Y-48548555D01*
X145617884Y-48548555D02*
X145397884Y-48451412D01*
X145397884Y-48451412D02*
X145251218Y-48354269D01*
X145251218Y-48354269D02*
X145177884Y-48257126D01*
X145471218Y-50782841D02*
X145544551Y-50831413D01*
X145544551Y-50831413D02*
X145617884Y-50928556D01*
X145617884Y-50928556D02*
X145617884Y-51171413D01*
X145617884Y-51171413D02*
X145544551Y-51268556D01*
X145544551Y-51268556D02*
X145471218Y-51317127D01*
X145471218Y-51317127D02*
X145324551Y-51365698D01*
X145324551Y-51365698D02*
X145177884Y-51365698D01*
X145177884Y-51365698D02*
X144957884Y-51317127D01*
X144957884Y-51317127D02*
X144077884Y-50734270D01*
X144077884Y-50734270D02*
X144077884Y-51365698D01*
X145617884Y-53259985D02*
X145617884Y-53891413D01*
X145617884Y-53891413D02*
X145031218Y-53551413D01*
X145031218Y-53551413D02*
X145031218Y-53697128D01*
X145031218Y-53697128D02*
X144957884Y-53794271D01*
X144957884Y-53794271D02*
X144884551Y-53842842D01*
X144884551Y-53842842D02*
X144737884Y-53891413D01*
X144737884Y-53891413D02*
X144371218Y-53891413D01*
X144371218Y-53891413D02*
X144224551Y-53842842D01*
X144224551Y-53842842D02*
X144151218Y-53794271D01*
X144151218Y-53794271D02*
X144077884Y-53697128D01*
X144077884Y-53697128D02*
X144077884Y-53405699D01*
X144077884Y-53405699D02*
X144151218Y-53308556D01*
X144151218Y-53308556D02*
X144224551Y-53259985D01*
X145104551Y-56319986D02*
X144077884Y-56319986D01*
X145691218Y-56077128D02*
X144591218Y-55834271D01*
X144591218Y-55834271D02*
X144591218Y-56465700D01*
X145617884Y-58894272D02*
X145617884Y-58408558D01*
X145617884Y-58408558D02*
X144884551Y-58359986D01*
X144884551Y-58359986D02*
X144957884Y-58408558D01*
X144957884Y-58408558D02*
X145031218Y-58505701D01*
X145031218Y-58505701D02*
X145031218Y-58748558D01*
X145031218Y-58748558D02*
X144957884Y-58845701D01*
X144957884Y-58845701D02*
X144884551Y-58894272D01*
X144884551Y-58894272D02*
X144737884Y-58942843D01*
X144737884Y-58942843D02*
X144371218Y-58942843D01*
X144371218Y-58942843D02*
X144224551Y-58894272D01*
X144224551Y-58894272D02*
X144151218Y-58845701D01*
X144151218Y-58845701D02*
X144077884Y-58748558D01*
X144077884Y-58748558D02*
X144077884Y-58505701D01*
X144077884Y-58505701D02*
X144151218Y-58408558D01*
X144151218Y-58408558D02*
X144224551Y-58359986D01*
X145617884Y-61371416D02*
X145617884Y-61177130D01*
X145617884Y-61177130D02*
X145544551Y-61079987D01*
X145544551Y-61079987D02*
X145471218Y-61031416D01*
X145471218Y-61031416D02*
X145251218Y-60934273D01*
X145251218Y-60934273D02*
X144957884Y-60885701D01*
X144957884Y-60885701D02*
X144371218Y-60885701D01*
X144371218Y-60885701D02*
X144224551Y-60934273D01*
X144224551Y-60934273D02*
X144151218Y-60982844D01*
X144151218Y-60982844D02*
X144077884Y-61079987D01*
X144077884Y-61079987D02*
X144077884Y-61274273D01*
X144077884Y-61274273D02*
X144151218Y-61371416D01*
X144151218Y-61371416D02*
X144224551Y-61419987D01*
X144224551Y-61419987D02*
X144371218Y-61468558D01*
X144371218Y-61468558D02*
X144737884Y-61468558D01*
X144737884Y-61468558D02*
X144884551Y-61419987D01*
X144884551Y-61419987D02*
X144957884Y-61371416D01*
X144957884Y-61371416D02*
X145031218Y-61274273D01*
X145031218Y-61274273D02*
X145031218Y-61079987D01*
X145031218Y-61079987D02*
X144957884Y-60982844D01*
X144957884Y-60982844D02*
X144884551Y-60934273D01*
X144884551Y-60934273D02*
X144737884Y-60885701D01*
X145617884Y-63362845D02*
X145617884Y-64042845D01*
X145617884Y-64042845D02*
X144077884Y-63605702D01*
X144957884Y-66131417D02*
X145031218Y-66034274D01*
X145031218Y-66034274D02*
X145104551Y-65985703D01*
X145104551Y-65985703D02*
X145251218Y-65937131D01*
X145251218Y-65937131D02*
X145324551Y-65937131D01*
X145324551Y-65937131D02*
X145471218Y-65985703D01*
X145471218Y-65985703D02*
X145544551Y-66034274D01*
X145544551Y-66034274D02*
X145617884Y-66131417D01*
X145617884Y-66131417D02*
X145617884Y-66325703D01*
X145617884Y-66325703D02*
X145544551Y-66422846D01*
X145544551Y-66422846D02*
X145471218Y-66471417D01*
X145471218Y-66471417D02*
X145324551Y-66519988D01*
X145324551Y-66519988D02*
X145251218Y-66519988D01*
X145251218Y-66519988D02*
X145104551Y-66471417D01*
X145104551Y-66471417D02*
X145031218Y-66422846D01*
X145031218Y-66422846D02*
X144957884Y-66325703D01*
X144957884Y-66325703D02*
X144957884Y-66131417D01*
X144957884Y-66131417D02*
X144884551Y-66034274D01*
X144884551Y-66034274D02*
X144811218Y-65985703D01*
X144811218Y-65985703D02*
X144664551Y-65937131D01*
X144664551Y-65937131D02*
X144371218Y-65937131D01*
X144371218Y-65937131D02*
X144224551Y-65985703D01*
X144224551Y-65985703D02*
X144151218Y-66034274D01*
X144151218Y-66034274D02*
X144077884Y-66131417D01*
X144077884Y-66131417D02*
X144077884Y-66325703D01*
X144077884Y-66325703D02*
X144151218Y-66422846D01*
X144151218Y-66422846D02*
X144224551Y-66471417D01*
X144224551Y-66471417D02*
X144371218Y-66519988D01*
X144371218Y-66519988D02*
X144664551Y-66519988D01*
X144664551Y-66519988D02*
X144811218Y-66471417D01*
X144811218Y-66471417D02*
X144884551Y-66422846D01*
X144884551Y-66422846D02*
X144957884Y-66325703D01*
D10*
X121378758Y-101659635D02*
X120902568Y-101659635D01*
X120902568Y-101659635D02*
X120854949Y-102383445D01*
X120854949Y-102383445D02*
X120902568Y-102311064D01*
X120902568Y-102311064D02*
X120997806Y-102238683D01*
X120997806Y-102238683D02*
X121235901Y-102238683D01*
X121235901Y-102238683D02*
X121331139Y-102311064D01*
X121331139Y-102311064D02*
X121378758Y-102383445D01*
X121378758Y-102383445D02*
X121426377Y-102528207D01*
X121426377Y-102528207D02*
X121426377Y-102890112D01*
X121426377Y-102890112D02*
X121378758Y-103034874D01*
X121378758Y-103034874D02*
X121331139Y-103107255D01*
X121331139Y-103107255D02*
X121235901Y-103179635D01*
X121235901Y-103179635D02*
X120997806Y-103179635D01*
X120997806Y-103179635D02*
X120902568Y-103107255D01*
X120902568Y-103107255D02*
X120854949Y-103034874D01*
X121712092Y-101659635D02*
X122045425Y-103179635D01*
X122045425Y-103179635D02*
X122378758Y-101659635D01*
X120902568Y-105626750D02*
X120902568Y-104106750D01*
X120902568Y-104106750D02*
X121140663Y-104106750D01*
X121140663Y-104106750D02*
X121283520Y-104179131D01*
X121283520Y-104179131D02*
X121378758Y-104323893D01*
X121378758Y-104323893D02*
X121426377Y-104468655D01*
X121426377Y-104468655D02*
X121473996Y-104758179D01*
X121473996Y-104758179D02*
X121473996Y-104975322D01*
X121473996Y-104975322D02*
X121426377Y-105264846D01*
X121426377Y-105264846D02*
X121378758Y-105409608D01*
X121378758Y-105409608D02*
X121283520Y-105554370D01*
X121283520Y-105554370D02*
X121140663Y-105626750D01*
X121140663Y-105626750D02*
X120902568Y-105626750D01*
X121902568Y-105047703D02*
X122664473Y-105047703D01*
X120902568Y-108073865D02*
X120902568Y-106553865D01*
X120902568Y-106553865D02*
X121140663Y-106553865D01*
X121140663Y-106553865D02*
X121283520Y-106626246D01*
X121283520Y-106626246D02*
X121378758Y-106771008D01*
X121378758Y-106771008D02*
X121426377Y-106915770D01*
X121426377Y-106915770D02*
X121473996Y-107205294D01*
X121473996Y-107205294D02*
X121473996Y-107422437D01*
X121473996Y-107422437D02*
X121426377Y-107711961D01*
X121426377Y-107711961D02*
X121378758Y-107856723D01*
X121378758Y-107856723D02*
X121283520Y-108001485D01*
X121283520Y-108001485D02*
X121140663Y-108073865D01*
X121140663Y-108073865D02*
X120902568Y-108073865D01*
X121902568Y-107494818D02*
X122664473Y-107494818D01*
X122283520Y-108073865D02*
X122283520Y-106915770D01*
X121426377Y-109073361D02*
X121331139Y-109000980D01*
X121331139Y-109000980D02*
X121188282Y-109000980D01*
X121188282Y-109000980D02*
X121045425Y-109073361D01*
X121045425Y-109073361D02*
X120950187Y-109218123D01*
X120950187Y-109218123D02*
X120902568Y-109362885D01*
X120902568Y-109362885D02*
X120854949Y-109652409D01*
X120854949Y-109652409D02*
X120854949Y-109869552D01*
X120854949Y-109869552D02*
X120902568Y-110159076D01*
X120902568Y-110159076D02*
X120950187Y-110303838D01*
X120950187Y-110303838D02*
X121045425Y-110448600D01*
X121045425Y-110448600D02*
X121188282Y-110520980D01*
X121188282Y-110520980D02*
X121283520Y-110520980D01*
X121283520Y-110520980D02*
X121426377Y-110448600D01*
X121426377Y-110448600D02*
X121473996Y-110376219D01*
X121473996Y-110376219D02*
X121473996Y-109869552D01*
X121473996Y-109869552D02*
X121283520Y-109869552D01*
X121902568Y-110520980D02*
X121902568Y-109000980D01*
X121902568Y-109000980D02*
X122473996Y-110520980D01*
X122473996Y-110520980D02*
X122473996Y-109000980D01*
X122950187Y-110520980D02*
X122950187Y-109000980D01*
X122950187Y-109000980D02*
X123188282Y-109000980D01*
X123188282Y-109000980D02*
X123331139Y-109073361D01*
X123331139Y-109073361D02*
X123426377Y-109218123D01*
X123426377Y-109218123D02*
X123473996Y-109362885D01*
X123473996Y-109362885D02*
X123521615Y-109652409D01*
X123521615Y-109652409D02*
X123521615Y-109869552D01*
X123521615Y-109869552D02*
X123473996Y-110159076D01*
X123473996Y-110159076D02*
X123426377Y-110303838D01*
X123426377Y-110303838D02*
X123331139Y-110448600D01*
X123331139Y-110448600D02*
X123188282Y-110520980D01*
X123188282Y-110520980D02*
X122950187Y-110520980D01*
X151778758Y-47975278D02*
X151302568Y-47975278D01*
X151302568Y-47975278D02*
X151254949Y-48699088D01*
X151254949Y-48699088D02*
X151302568Y-48626707D01*
X151302568Y-48626707D02*
X151397806Y-48554326D01*
X151397806Y-48554326D02*
X151635901Y-48554326D01*
X151635901Y-48554326D02*
X151731139Y-48626707D01*
X151731139Y-48626707D02*
X151778758Y-48699088D01*
X151778758Y-48699088D02*
X151826377Y-48843850D01*
X151826377Y-48843850D02*
X151826377Y-49205755D01*
X151826377Y-49205755D02*
X151778758Y-49350517D01*
X151778758Y-49350517D02*
X151731139Y-49422898D01*
X151731139Y-49422898D02*
X151635901Y-49495278D01*
X151635901Y-49495278D02*
X151397806Y-49495278D01*
X151397806Y-49495278D02*
X151302568Y-49422898D01*
X151302568Y-49422898D02*
X151254949Y-49350517D01*
X152112092Y-47975278D02*
X152445425Y-49495278D01*
X152445425Y-49495278D02*
X152778758Y-47975278D01*
X151302568Y-51942393D02*
X151302568Y-50422393D01*
X151302568Y-50422393D02*
X151635901Y-51508108D01*
X151635901Y-51508108D02*
X151969234Y-50422393D01*
X151969234Y-50422393D02*
X151969234Y-51942393D01*
X152635901Y-50422393D02*
X152826377Y-50422393D01*
X152826377Y-50422393D02*
X152921615Y-50494774D01*
X152921615Y-50494774D02*
X153016853Y-50639536D01*
X153016853Y-50639536D02*
X153064472Y-50929060D01*
X153064472Y-50929060D02*
X153064472Y-51435727D01*
X153064472Y-51435727D02*
X153016853Y-51725251D01*
X153016853Y-51725251D02*
X152921615Y-51870013D01*
X152921615Y-51870013D02*
X152826377Y-51942393D01*
X152826377Y-51942393D02*
X152635901Y-51942393D01*
X152635901Y-51942393D02*
X152540663Y-51870013D01*
X152540663Y-51870013D02*
X152445425Y-51725251D01*
X152445425Y-51725251D02*
X152397806Y-51435727D01*
X152397806Y-51435727D02*
X152397806Y-50929060D01*
X152397806Y-50929060D02*
X152445425Y-50639536D01*
X152445425Y-50639536D02*
X152540663Y-50494774D01*
X152540663Y-50494774D02*
X152635901Y-50422393D01*
X153445425Y-51870013D02*
X153588282Y-51942393D01*
X153588282Y-51942393D02*
X153826377Y-51942393D01*
X153826377Y-51942393D02*
X153921615Y-51870013D01*
X153921615Y-51870013D02*
X153969234Y-51797632D01*
X153969234Y-51797632D02*
X154016853Y-51652870D01*
X154016853Y-51652870D02*
X154016853Y-51508108D01*
X154016853Y-51508108D02*
X153969234Y-51363346D01*
X153969234Y-51363346D02*
X153921615Y-51290965D01*
X153921615Y-51290965D02*
X153826377Y-51218584D01*
X153826377Y-51218584D02*
X153635901Y-51146203D01*
X153635901Y-51146203D02*
X153540663Y-51073822D01*
X153540663Y-51073822D02*
X153493044Y-51001441D01*
X153493044Y-51001441D02*
X153445425Y-50856679D01*
X153445425Y-50856679D02*
X153445425Y-50711917D01*
X153445425Y-50711917D02*
X153493044Y-50567155D01*
X153493044Y-50567155D02*
X153540663Y-50494774D01*
X153540663Y-50494774D02*
X153635901Y-50422393D01*
X153635901Y-50422393D02*
X153873996Y-50422393D01*
X153873996Y-50422393D02*
X154016853Y-50494774D01*
X154445425Y-51942393D02*
X154445425Y-50422393D01*
X151302568Y-54389508D02*
X151302568Y-52869508D01*
X151302568Y-52869508D02*
X151635901Y-53955223D01*
X151635901Y-53955223D02*
X151969234Y-52869508D01*
X151969234Y-52869508D02*
X151969234Y-54389508D01*
X152445425Y-54389508D02*
X152445425Y-52869508D01*
X152873996Y-54317128D02*
X153016853Y-54389508D01*
X153016853Y-54389508D02*
X153254948Y-54389508D01*
X153254948Y-54389508D02*
X153350186Y-54317128D01*
X153350186Y-54317128D02*
X153397805Y-54244747D01*
X153397805Y-54244747D02*
X153445424Y-54099985D01*
X153445424Y-54099985D02*
X153445424Y-53955223D01*
X153445424Y-53955223D02*
X153397805Y-53810461D01*
X153397805Y-53810461D02*
X153350186Y-53738080D01*
X153350186Y-53738080D02*
X153254948Y-53665699D01*
X153254948Y-53665699D02*
X153064472Y-53593318D01*
X153064472Y-53593318D02*
X152969234Y-53520937D01*
X152969234Y-53520937D02*
X152921615Y-53448556D01*
X152921615Y-53448556D02*
X152873996Y-53303794D01*
X152873996Y-53303794D02*
X152873996Y-53159032D01*
X152873996Y-53159032D02*
X152921615Y-53014270D01*
X152921615Y-53014270D02*
X152969234Y-52941889D01*
X152969234Y-52941889D02*
X153064472Y-52869508D01*
X153064472Y-52869508D02*
X153302567Y-52869508D01*
X153302567Y-52869508D02*
X153445424Y-52941889D01*
X154064472Y-52869508D02*
X154254948Y-52869508D01*
X154254948Y-52869508D02*
X154350186Y-52941889D01*
X154350186Y-52941889D02*
X154445424Y-53086651D01*
X154445424Y-53086651D02*
X154493043Y-53376175D01*
X154493043Y-53376175D02*
X154493043Y-53882842D01*
X154493043Y-53882842D02*
X154445424Y-54172366D01*
X154445424Y-54172366D02*
X154350186Y-54317128D01*
X154350186Y-54317128D02*
X154254948Y-54389508D01*
X154254948Y-54389508D02*
X154064472Y-54389508D01*
X154064472Y-54389508D02*
X153969234Y-54317128D01*
X153969234Y-54317128D02*
X153873996Y-54172366D01*
X153873996Y-54172366D02*
X153826377Y-53882842D01*
X153826377Y-53882842D02*
X153826377Y-53376175D01*
X153826377Y-53376175D02*
X153873996Y-53086651D01*
X153873996Y-53086651D02*
X153969234Y-52941889D01*
X153969234Y-52941889D02*
X154064472Y-52869508D01*
X151873996Y-56691862D02*
X151826377Y-56764243D01*
X151826377Y-56764243D02*
X151683520Y-56836623D01*
X151683520Y-56836623D02*
X151588282Y-56836623D01*
X151588282Y-56836623D02*
X151445425Y-56764243D01*
X151445425Y-56764243D02*
X151350187Y-56619481D01*
X151350187Y-56619481D02*
X151302568Y-56474719D01*
X151302568Y-56474719D02*
X151254949Y-56185195D01*
X151254949Y-56185195D02*
X151254949Y-55968052D01*
X151254949Y-55968052D02*
X151302568Y-55678528D01*
X151302568Y-55678528D02*
X151350187Y-55533766D01*
X151350187Y-55533766D02*
X151445425Y-55389004D01*
X151445425Y-55389004D02*
X151588282Y-55316623D01*
X151588282Y-55316623D02*
X151683520Y-55316623D01*
X151683520Y-55316623D02*
X151826377Y-55389004D01*
X151826377Y-55389004D02*
X151873996Y-55461385D01*
X152254949Y-56764243D02*
X152397806Y-56836623D01*
X152397806Y-56836623D02*
X152635901Y-56836623D01*
X152635901Y-56836623D02*
X152731139Y-56764243D01*
X152731139Y-56764243D02*
X152778758Y-56691862D01*
X152778758Y-56691862D02*
X152826377Y-56547100D01*
X152826377Y-56547100D02*
X152826377Y-56402338D01*
X152826377Y-56402338D02*
X152778758Y-56257576D01*
X152778758Y-56257576D02*
X152731139Y-56185195D01*
X152731139Y-56185195D02*
X152635901Y-56112814D01*
X152635901Y-56112814D02*
X152445425Y-56040433D01*
X152445425Y-56040433D02*
X152350187Y-55968052D01*
X152350187Y-55968052D02*
X152302568Y-55895671D01*
X152302568Y-55895671D02*
X152254949Y-55750909D01*
X152254949Y-55750909D02*
X152254949Y-55606147D01*
X152254949Y-55606147D02*
X152302568Y-55461385D01*
X152302568Y-55461385D02*
X152350187Y-55389004D01*
X152350187Y-55389004D02*
X152445425Y-55316623D01*
X152445425Y-55316623D02*
X152683520Y-55316623D01*
X152683520Y-55316623D02*
X152826377Y-55389004D01*
X153445425Y-55316623D02*
X153540663Y-55316623D01*
X153540663Y-55316623D02*
X153635901Y-55389004D01*
X153635901Y-55389004D02*
X153683520Y-55461385D01*
X153683520Y-55461385D02*
X153731139Y-55606147D01*
X153731139Y-55606147D02*
X153778758Y-55895671D01*
X153778758Y-55895671D02*
X153778758Y-56257576D01*
X153778758Y-56257576D02*
X153731139Y-56547100D01*
X153731139Y-56547100D02*
X153683520Y-56691862D01*
X153683520Y-56691862D02*
X153635901Y-56764243D01*
X153635901Y-56764243D02*
X153540663Y-56836623D01*
X153540663Y-56836623D02*
X153445425Y-56836623D01*
X153445425Y-56836623D02*
X153350187Y-56764243D01*
X153350187Y-56764243D02*
X153302568Y-56691862D01*
X153302568Y-56691862D02*
X153254949Y-56547100D01*
X153254949Y-56547100D02*
X153207330Y-56257576D01*
X153207330Y-56257576D02*
X153207330Y-55895671D01*
X153207330Y-55895671D02*
X153254949Y-55606147D01*
X153254949Y-55606147D02*
X153302568Y-55461385D01*
X153302568Y-55461385D02*
X153350187Y-55389004D01*
X153350187Y-55389004D02*
X153445425Y-55316623D01*
X151254949Y-59211358D02*
X151397806Y-59283738D01*
X151397806Y-59283738D02*
X151635901Y-59283738D01*
X151635901Y-59283738D02*
X151731139Y-59211358D01*
X151731139Y-59211358D02*
X151778758Y-59138977D01*
X151778758Y-59138977D02*
X151826377Y-58994215D01*
X151826377Y-58994215D02*
X151826377Y-58849453D01*
X151826377Y-58849453D02*
X151778758Y-58704691D01*
X151778758Y-58704691D02*
X151731139Y-58632310D01*
X151731139Y-58632310D02*
X151635901Y-58559929D01*
X151635901Y-58559929D02*
X151445425Y-58487548D01*
X151445425Y-58487548D02*
X151350187Y-58415167D01*
X151350187Y-58415167D02*
X151302568Y-58342786D01*
X151302568Y-58342786D02*
X151254949Y-58198024D01*
X151254949Y-58198024D02*
X151254949Y-58053262D01*
X151254949Y-58053262D02*
X151302568Y-57908500D01*
X151302568Y-57908500D02*
X151350187Y-57836119D01*
X151350187Y-57836119D02*
X151445425Y-57763738D01*
X151445425Y-57763738D02*
X151683520Y-57763738D01*
X151683520Y-57763738D02*
X151826377Y-57836119D01*
X152826377Y-59138977D02*
X152778758Y-59211358D01*
X152778758Y-59211358D02*
X152635901Y-59283738D01*
X152635901Y-59283738D02*
X152540663Y-59283738D01*
X152540663Y-59283738D02*
X152397806Y-59211358D01*
X152397806Y-59211358D02*
X152302568Y-59066596D01*
X152302568Y-59066596D02*
X152254949Y-58921834D01*
X152254949Y-58921834D02*
X152207330Y-58632310D01*
X152207330Y-58632310D02*
X152207330Y-58415167D01*
X152207330Y-58415167D02*
X152254949Y-58125643D01*
X152254949Y-58125643D02*
X152302568Y-57980881D01*
X152302568Y-57980881D02*
X152397806Y-57836119D01*
X152397806Y-57836119D02*
X152540663Y-57763738D01*
X152540663Y-57763738D02*
X152635901Y-57763738D01*
X152635901Y-57763738D02*
X152778758Y-57836119D01*
X152778758Y-57836119D02*
X152826377Y-57908500D01*
X153731139Y-59283738D02*
X153254949Y-59283738D01*
X153254949Y-59283738D02*
X153254949Y-57763738D01*
X154064473Y-59283738D02*
X154064473Y-57763738D01*
X154635901Y-59283738D02*
X154207330Y-58415167D01*
X154635901Y-57763738D02*
X154064473Y-58632310D01*
X151873996Y-61586092D02*
X151826377Y-61658473D01*
X151826377Y-61658473D02*
X151683520Y-61730853D01*
X151683520Y-61730853D02*
X151588282Y-61730853D01*
X151588282Y-61730853D02*
X151445425Y-61658473D01*
X151445425Y-61658473D02*
X151350187Y-61513711D01*
X151350187Y-61513711D02*
X151302568Y-61368949D01*
X151302568Y-61368949D02*
X151254949Y-61079425D01*
X151254949Y-61079425D02*
X151254949Y-60862282D01*
X151254949Y-60862282D02*
X151302568Y-60572758D01*
X151302568Y-60572758D02*
X151350187Y-60427996D01*
X151350187Y-60427996D02*
X151445425Y-60283234D01*
X151445425Y-60283234D02*
X151588282Y-60210853D01*
X151588282Y-60210853D02*
X151683520Y-60210853D01*
X151683520Y-60210853D02*
X151826377Y-60283234D01*
X151826377Y-60283234D02*
X151873996Y-60355615D01*
X152254949Y-61658473D02*
X152397806Y-61730853D01*
X152397806Y-61730853D02*
X152635901Y-61730853D01*
X152635901Y-61730853D02*
X152731139Y-61658473D01*
X152731139Y-61658473D02*
X152778758Y-61586092D01*
X152778758Y-61586092D02*
X152826377Y-61441330D01*
X152826377Y-61441330D02*
X152826377Y-61296568D01*
X152826377Y-61296568D02*
X152778758Y-61151806D01*
X152778758Y-61151806D02*
X152731139Y-61079425D01*
X152731139Y-61079425D02*
X152635901Y-61007044D01*
X152635901Y-61007044D02*
X152445425Y-60934663D01*
X152445425Y-60934663D02*
X152350187Y-60862282D01*
X152350187Y-60862282D02*
X152302568Y-60789901D01*
X152302568Y-60789901D02*
X152254949Y-60645139D01*
X152254949Y-60645139D02*
X152254949Y-60500377D01*
X152254949Y-60500377D02*
X152302568Y-60355615D01*
X152302568Y-60355615D02*
X152350187Y-60283234D01*
X152350187Y-60283234D02*
X152445425Y-60210853D01*
X152445425Y-60210853D02*
X152683520Y-60210853D01*
X152683520Y-60210853D02*
X152826377Y-60283234D01*
X153778758Y-61730853D02*
X153207330Y-61730853D01*
X153493044Y-61730853D02*
X153493044Y-60210853D01*
X153493044Y-60210853D02*
X153397806Y-60427996D01*
X153397806Y-60427996D02*
X153302568Y-60572758D01*
X153302568Y-60572758D02*
X153207330Y-60645139D01*
X151826377Y-62730349D02*
X151731139Y-62657968D01*
X151731139Y-62657968D02*
X151588282Y-62657968D01*
X151588282Y-62657968D02*
X151445425Y-62730349D01*
X151445425Y-62730349D02*
X151350187Y-62875111D01*
X151350187Y-62875111D02*
X151302568Y-63019873D01*
X151302568Y-63019873D02*
X151254949Y-63309397D01*
X151254949Y-63309397D02*
X151254949Y-63526540D01*
X151254949Y-63526540D02*
X151302568Y-63816064D01*
X151302568Y-63816064D02*
X151350187Y-63960826D01*
X151350187Y-63960826D02*
X151445425Y-64105588D01*
X151445425Y-64105588D02*
X151588282Y-64177968D01*
X151588282Y-64177968D02*
X151683520Y-64177968D01*
X151683520Y-64177968D02*
X151826377Y-64105588D01*
X151826377Y-64105588D02*
X151873996Y-64033207D01*
X151873996Y-64033207D02*
X151873996Y-63526540D01*
X151873996Y-63526540D02*
X151683520Y-63526540D01*
X152302568Y-64177968D02*
X152302568Y-62657968D01*
X152302568Y-62657968D02*
X152683520Y-62657968D01*
X152683520Y-62657968D02*
X152778758Y-62730349D01*
X152778758Y-62730349D02*
X152826377Y-62802730D01*
X152826377Y-62802730D02*
X152873996Y-62947492D01*
X152873996Y-62947492D02*
X152873996Y-63164635D01*
X152873996Y-63164635D02*
X152826377Y-63309397D01*
X152826377Y-63309397D02*
X152778758Y-63381778D01*
X152778758Y-63381778D02*
X152683520Y-63454159D01*
X152683520Y-63454159D02*
X152302568Y-63454159D01*
X153302568Y-64177968D02*
X153302568Y-62657968D01*
X153969234Y-62657968D02*
X154159710Y-62657968D01*
X154159710Y-62657968D02*
X154254948Y-62730349D01*
X154254948Y-62730349D02*
X154350186Y-62875111D01*
X154350186Y-62875111D02*
X154397805Y-63164635D01*
X154397805Y-63164635D02*
X154397805Y-63671302D01*
X154397805Y-63671302D02*
X154350186Y-63960826D01*
X154350186Y-63960826D02*
X154254948Y-64105588D01*
X154254948Y-64105588D02*
X154159710Y-64177968D01*
X154159710Y-64177968D02*
X153969234Y-64177968D01*
X153969234Y-64177968D02*
X153873996Y-64105588D01*
X153873996Y-64105588D02*
X153778758Y-63960826D01*
X153778758Y-63960826D02*
X153731139Y-63671302D01*
X153731139Y-63671302D02*
X153731139Y-63164635D01*
X153731139Y-63164635D02*
X153778758Y-62875111D01*
X153778758Y-62875111D02*
X153873996Y-62730349D01*
X153873996Y-62730349D02*
X153969234Y-62657968D01*
X154731139Y-62657968D02*
X155350186Y-62657968D01*
X155350186Y-62657968D02*
X155016853Y-63237016D01*
X155016853Y-63237016D02*
X155159710Y-63237016D01*
X155159710Y-63237016D02*
X155254948Y-63309397D01*
X155254948Y-63309397D02*
X155302567Y-63381778D01*
X155302567Y-63381778D02*
X155350186Y-63526540D01*
X155350186Y-63526540D02*
X155350186Y-63888445D01*
X155350186Y-63888445D02*
X155302567Y-64033207D01*
X155302567Y-64033207D02*
X155254948Y-64105588D01*
X155254948Y-64105588D02*
X155159710Y-64177968D01*
X155159710Y-64177968D02*
X154873996Y-64177968D01*
X154873996Y-64177968D02*
X154778758Y-64105588D01*
X154778758Y-64105588D02*
X154731139Y-64033207D01*
X156207329Y-63164635D02*
X156207329Y-64177968D01*
X155969234Y-62585588D02*
X155731139Y-63671302D01*
X155731139Y-63671302D02*
X156350186Y-63671302D01*
X151826377Y-65177464D02*
X151731139Y-65105083D01*
X151731139Y-65105083D02*
X151588282Y-65105083D01*
X151588282Y-65105083D02*
X151445425Y-65177464D01*
X151445425Y-65177464D02*
X151350187Y-65322226D01*
X151350187Y-65322226D02*
X151302568Y-65466988D01*
X151302568Y-65466988D02*
X151254949Y-65756512D01*
X151254949Y-65756512D02*
X151254949Y-65973655D01*
X151254949Y-65973655D02*
X151302568Y-66263179D01*
X151302568Y-66263179D02*
X151350187Y-66407941D01*
X151350187Y-66407941D02*
X151445425Y-66552703D01*
X151445425Y-66552703D02*
X151588282Y-66625083D01*
X151588282Y-66625083D02*
X151683520Y-66625083D01*
X151683520Y-66625083D02*
X151826377Y-66552703D01*
X151826377Y-66552703D02*
X151873996Y-66480322D01*
X151873996Y-66480322D02*
X151873996Y-65973655D01*
X151873996Y-65973655D02*
X151683520Y-65973655D01*
X152302568Y-66625083D02*
X152302568Y-65105083D01*
X152302568Y-65105083D02*
X152873996Y-66625083D01*
X152873996Y-66625083D02*
X152873996Y-65105083D01*
X153350187Y-66625083D02*
X153350187Y-65105083D01*
X153350187Y-65105083D02*
X153588282Y-65105083D01*
X153588282Y-65105083D02*
X153731139Y-65177464D01*
X153731139Y-65177464D02*
X153826377Y-65322226D01*
X153826377Y-65322226D02*
X153873996Y-65466988D01*
X153873996Y-65466988D02*
X153921615Y-65756512D01*
X153921615Y-65756512D02*
X153921615Y-65973655D01*
X153921615Y-65973655D02*
X153873996Y-66263179D01*
X153873996Y-66263179D02*
X153826377Y-66407941D01*
X153826377Y-66407941D02*
X153731139Y-66552703D01*
X153731139Y-66552703D02*
X153588282Y-66625083D01*
X153588282Y-66625083D02*
X153350187Y-66625083D01*
D11*
X144077884Y-86165696D02*
X144077884Y-85617125D01*
X144077884Y-85891410D02*
X145617884Y-85891410D01*
X145617884Y-85891410D02*
X145397884Y-85799982D01*
X145397884Y-85799982D02*
X145251218Y-85708553D01*
X145251218Y-85708553D02*
X145177884Y-85617125D01*
X145617884Y-86759982D02*
X145617884Y-86851411D01*
X145617884Y-86851411D02*
X145544551Y-86942839D01*
X145544551Y-86942839D02*
X145471218Y-86988554D01*
X145471218Y-86988554D02*
X145324551Y-87034268D01*
X145324551Y-87034268D02*
X145031218Y-87079982D01*
X145031218Y-87079982D02*
X144664551Y-87079982D01*
X144664551Y-87079982D02*
X144371218Y-87034268D01*
X144371218Y-87034268D02*
X144224551Y-86988554D01*
X144224551Y-86988554D02*
X144151218Y-86942839D01*
X144151218Y-86942839D02*
X144077884Y-86851411D01*
X144077884Y-86851411D02*
X144077884Y-86759982D01*
X144077884Y-86759982D02*
X144151218Y-86668554D01*
X144151218Y-86668554D02*
X144224551Y-86622839D01*
X144224551Y-86622839D02*
X144371218Y-86577125D01*
X144371218Y-86577125D02*
X144664551Y-86531411D01*
X144664551Y-86531411D02*
X145031218Y-86531411D01*
X145031218Y-86531411D02*
X145324551Y-86577125D01*
X145324551Y-86577125D02*
X145471218Y-86622839D01*
X145471218Y-86622839D02*
X145544551Y-86668554D01*
X145544551Y-86668554D02*
X145617884Y-86759982D01*
X144077884Y-88725697D02*
X144077884Y-88177126D01*
X144077884Y-88451411D02*
X145617884Y-88451411D01*
X145617884Y-88451411D02*
X145397884Y-88359983D01*
X145397884Y-88359983D02*
X145251218Y-88268554D01*
X145251218Y-88268554D02*
X145177884Y-88177126D01*
X144077884Y-89639983D02*
X144077884Y-89091412D01*
X144077884Y-89365697D02*
X145617884Y-89365697D01*
X145617884Y-89365697D02*
X145397884Y-89274269D01*
X145397884Y-89274269D02*
X145251218Y-89182840D01*
X145251218Y-89182840D02*
X145177884Y-89091412D01*
X144077884Y-91285698D02*
X144077884Y-90737127D01*
X144077884Y-91011412D02*
X145617884Y-91011412D01*
X145617884Y-91011412D02*
X145397884Y-90919984D01*
X145397884Y-90919984D02*
X145251218Y-90828555D01*
X145251218Y-90828555D02*
X145177884Y-90737127D01*
X145471218Y-91651413D02*
X145544551Y-91697127D01*
X145544551Y-91697127D02*
X145617884Y-91788556D01*
X145617884Y-91788556D02*
X145617884Y-92017127D01*
X145617884Y-92017127D02*
X145544551Y-92108556D01*
X145544551Y-92108556D02*
X145471218Y-92154270D01*
X145471218Y-92154270D02*
X145324551Y-92199984D01*
X145324551Y-92199984D02*
X145177884Y-92199984D01*
X145177884Y-92199984D02*
X144957884Y-92154270D01*
X144957884Y-92154270D02*
X144077884Y-91605698D01*
X144077884Y-91605698D02*
X144077884Y-92199984D01*
X144077884Y-93845699D02*
X144077884Y-93297128D01*
X144077884Y-93571413D02*
X145617884Y-93571413D01*
X145617884Y-93571413D02*
X145397884Y-93479985D01*
X145397884Y-93479985D02*
X145251218Y-93388556D01*
X145251218Y-93388556D02*
X145177884Y-93297128D01*
X145617884Y-94165699D02*
X145617884Y-94759985D01*
X145617884Y-94759985D02*
X145031218Y-94439985D01*
X145031218Y-94439985D02*
X145031218Y-94577128D01*
X145031218Y-94577128D02*
X144957884Y-94668557D01*
X144957884Y-94668557D02*
X144884551Y-94714271D01*
X144884551Y-94714271D02*
X144737884Y-94759985D01*
X144737884Y-94759985D02*
X144371218Y-94759985D01*
X144371218Y-94759985D02*
X144224551Y-94714271D01*
X144224551Y-94714271D02*
X144151218Y-94668557D01*
X144151218Y-94668557D02*
X144077884Y-94577128D01*
X144077884Y-94577128D02*
X144077884Y-94302842D01*
X144077884Y-94302842D02*
X144151218Y-94211414D01*
X144151218Y-94211414D02*
X144224551Y-94165699D01*
X144077884Y-96405700D02*
X144077884Y-95857129D01*
X144077884Y-96131414D02*
X145617884Y-96131414D01*
X145617884Y-96131414D02*
X145397884Y-96039986D01*
X145397884Y-96039986D02*
X145251218Y-95948557D01*
X145251218Y-95948557D02*
X145177884Y-95857129D01*
X145104551Y-97228558D02*
X144077884Y-97228558D01*
X145691218Y-96999986D02*
X144591218Y-96771415D01*
X144591218Y-96771415D02*
X144591218Y-97365700D01*
X144077884Y-98965701D02*
X144077884Y-98417130D01*
X144077884Y-98691415D02*
X145617884Y-98691415D01*
X145617884Y-98691415D02*
X145397884Y-98599987D01*
X145397884Y-98599987D02*
X145251218Y-98508558D01*
X145251218Y-98508558D02*
X145177884Y-98417130D01*
X145617884Y-99834273D02*
X145617884Y-99377130D01*
X145617884Y-99377130D02*
X144884551Y-99331416D01*
X144884551Y-99331416D02*
X144957884Y-99377130D01*
X144957884Y-99377130D02*
X145031218Y-99468559D01*
X145031218Y-99468559D02*
X145031218Y-99697130D01*
X145031218Y-99697130D02*
X144957884Y-99788559D01*
X144957884Y-99788559D02*
X144884551Y-99834273D01*
X144884551Y-99834273D02*
X144737884Y-99879987D01*
X144737884Y-99879987D02*
X144371218Y-99879987D01*
X144371218Y-99879987D02*
X144224551Y-99834273D01*
X144224551Y-99834273D02*
X144151218Y-99788559D01*
X144151218Y-99788559D02*
X144077884Y-99697130D01*
X144077884Y-99697130D02*
X144077884Y-99468559D01*
X144077884Y-99468559D02*
X144151218Y-99377130D01*
X144151218Y-99377130D02*
X144224551Y-99331416D01*
X144077884Y-101525702D02*
X144077884Y-100977131D01*
X144077884Y-101251416D02*
X145617884Y-101251416D01*
X145617884Y-101251416D02*
X145397884Y-101159988D01*
X145397884Y-101159988D02*
X145251218Y-101068559D01*
X145251218Y-101068559D02*
X145177884Y-100977131D01*
X145617884Y-102348560D02*
X145617884Y-102165702D01*
X145617884Y-102165702D02*
X145544551Y-102074274D01*
X145544551Y-102074274D02*
X145471218Y-102028560D01*
X145471218Y-102028560D02*
X145251218Y-101937131D01*
X145251218Y-101937131D02*
X144957884Y-101891417D01*
X144957884Y-101891417D02*
X144371218Y-101891417D01*
X144371218Y-101891417D02*
X144224551Y-101937131D01*
X144224551Y-101937131D02*
X144151218Y-101982845D01*
X144151218Y-101982845D02*
X144077884Y-102074274D01*
X144077884Y-102074274D02*
X144077884Y-102257131D01*
X144077884Y-102257131D02*
X144151218Y-102348560D01*
X144151218Y-102348560D02*
X144224551Y-102394274D01*
X144224551Y-102394274D02*
X144371218Y-102439988D01*
X144371218Y-102439988D02*
X144737884Y-102439988D01*
X144737884Y-102439988D02*
X144884551Y-102394274D01*
X144884551Y-102394274D02*
X144957884Y-102348560D01*
X144957884Y-102348560D02*
X145031218Y-102257131D01*
X145031218Y-102257131D02*
X145031218Y-102074274D01*
X145031218Y-102074274D02*
X144957884Y-101982845D01*
X144957884Y-101982845D02*
X144884551Y-101937131D01*
X144884551Y-101937131D02*
X144737884Y-101891417D01*
X144077884Y-104085703D02*
X144077884Y-103537132D01*
X144077884Y-103811417D02*
X145617884Y-103811417D01*
X145617884Y-103811417D02*
X145397884Y-103719989D01*
X145397884Y-103719989D02*
X145251218Y-103628560D01*
X145251218Y-103628560D02*
X145177884Y-103537132D01*
X145617884Y-104405703D02*
X145617884Y-105045703D01*
X145617884Y-105045703D02*
X144077884Y-104634275D01*
X144077884Y-106645704D02*
X144077884Y-106097133D01*
X144077884Y-106371418D02*
X145617884Y-106371418D01*
X145617884Y-106371418D02*
X145397884Y-106279990D01*
X145397884Y-106279990D02*
X145251218Y-106188561D01*
X145251218Y-106188561D02*
X145177884Y-106097133D01*
X144957884Y-107194276D02*
X145031218Y-107102847D01*
X145031218Y-107102847D02*
X145104551Y-107057133D01*
X145104551Y-107057133D02*
X145251218Y-107011419D01*
X145251218Y-107011419D02*
X145324551Y-107011419D01*
X145324551Y-107011419D02*
X145471218Y-107057133D01*
X145471218Y-107057133D02*
X145544551Y-107102847D01*
X145544551Y-107102847D02*
X145617884Y-107194276D01*
X145617884Y-107194276D02*
X145617884Y-107377133D01*
X145617884Y-107377133D02*
X145544551Y-107468562D01*
X145544551Y-107468562D02*
X145471218Y-107514276D01*
X145471218Y-107514276D02*
X145324551Y-107559990D01*
X145324551Y-107559990D02*
X145251218Y-107559990D01*
X145251218Y-107559990D02*
X145104551Y-107514276D01*
X145104551Y-107514276D02*
X145031218Y-107468562D01*
X145031218Y-107468562D02*
X144957884Y-107377133D01*
X144957884Y-107377133D02*
X144957884Y-107194276D01*
X144957884Y-107194276D02*
X144884551Y-107102847D01*
X144884551Y-107102847D02*
X144811218Y-107057133D01*
X144811218Y-107057133D02*
X144664551Y-107011419D01*
X144664551Y-107011419D02*
X144371218Y-107011419D01*
X144371218Y-107011419D02*
X144224551Y-107057133D01*
X144224551Y-107057133D02*
X144151218Y-107102847D01*
X144151218Y-107102847D02*
X144077884Y-107194276D01*
X144077884Y-107194276D02*
X144077884Y-107377133D01*
X144077884Y-107377133D02*
X144151218Y-107468562D01*
X144151218Y-107468562D02*
X144224551Y-107514276D01*
X144224551Y-107514276D02*
X144371218Y-107559990D01*
X144371218Y-107559990D02*
X144664551Y-107559990D01*
X144664551Y-107559990D02*
X144811218Y-107514276D01*
X144811218Y-107514276D02*
X144884551Y-107468562D01*
X144884551Y-107468562D02*
X144957884Y-107377133D01*
D12*
X118446666Y-98894819D02*
X118446666Y-99609104D01*
X118446666Y-99609104D02*
X118399047Y-99751961D01*
X118399047Y-99751961D02*
X118303809Y-99847200D01*
X118303809Y-99847200D02*
X118160952Y-99894819D01*
X118160952Y-99894819D02*
X118065714Y-99894819D01*
X119399047Y-98894819D02*
X118922857Y-98894819D01*
X118922857Y-98894819D02*
X118875238Y-99371009D01*
X118875238Y-99371009D02*
X118922857Y-99323390D01*
X118922857Y-99323390D02*
X119018095Y-99275771D01*
X119018095Y-99275771D02*
X119256190Y-99275771D01*
X119256190Y-99275771D02*
X119351428Y-99323390D01*
X119351428Y-99323390D02*
X119399047Y-99371009D01*
X119399047Y-99371009D02*
X119446666Y-99466247D01*
X119446666Y-99466247D02*
X119446666Y-99704342D01*
X119446666Y-99704342D02*
X119399047Y-99799580D01*
X119399047Y-99799580D02*
X119351428Y-99847200D01*
X119351428Y-99847200D02*
X119256190Y-99894819D01*
X119256190Y-99894819D02*
X119018095Y-99894819D01*
X119018095Y-99894819D02*
X118922857Y-99847200D01*
X118922857Y-99847200D02*
X118875238Y-99799580D01*
D13*
X107642580Y-62486666D02*
X106928295Y-62486666D01*
X106928295Y-62486666D02*
X106785438Y-62439047D01*
X106785438Y-62439047D02*
X106690200Y-62343809D01*
X106690200Y-62343809D02*
X106642580Y-62200952D01*
X106642580Y-62200952D02*
X106642580Y-62105714D01*
X106642580Y-63486666D02*
X106642580Y-62915238D01*
X106642580Y-63200952D02*
X107642580Y-63200952D01*
X107642580Y-63200952D02*
X107499723Y-63105714D01*
X107499723Y-63105714D02*
X107404485Y-63010476D01*
X107404485Y-63010476D02*
X107356866Y-62915238D01*
D12*
X111346666Y-98934819D02*
X111346666Y-99649104D01*
X111346666Y-99649104D02*
X111299047Y-99791961D01*
X111299047Y-99791961D02*
X111203809Y-99887200D01*
X111203809Y-99887200D02*
X111060952Y-99934819D01*
X111060952Y-99934819D02*
X110965714Y-99934819D01*
X112251428Y-99268152D02*
X112251428Y-99934819D01*
X112013333Y-98887200D02*
X111775238Y-99601485D01*
X111775238Y-99601485D02*
X112394285Y-99601485D01*
D14*
%TO.C,J5*%
X117450000Y-103480000D02*
X117450000Y-111160000D01*
X117450000Y-103480000D02*
X120110000Y-103480000D01*
X117450000Y-111160000D02*
X120110000Y-111160000D01*
X118780000Y-100880000D02*
X120110000Y-100880000D01*
X120110000Y-100880000D02*
X120110000Y-102210000D01*
X120110000Y-103480000D02*
X120110000Y-111160000D01*
%TO.C,J4*%
X110350000Y-103520000D02*
X110350000Y-111200000D01*
X110350000Y-103520000D02*
X113010000Y-103520000D01*
X110350000Y-111200000D02*
X113010000Y-111200000D01*
X111680000Y-100920000D02*
X113010000Y-100920000D01*
X113010000Y-100920000D02*
X113010000Y-102250000D01*
X113010000Y-103520000D02*
X113010000Y-111200000D01*
%TD*%
M02*
