%TF.GenerationSoftware,KiCad,Pcbnew,9.0.2*%
%TF.CreationDate,2025-06-25T22:54:11+10:00*%
%TF.ProjectId,F0-uConsole,46302d75-436f-46e7-936f-6c652e6b6963,rev?*%
%TF.SameCoordinates,Original*%
%TF.FileFunction,Soldermask,Top*%
%TF.FilePolarity,Negative*%
%FSLAX46Y46*%
G04 Gerber Fmt 4.6, Leading zero omitted, Abs format (unit mm)*
G04 Created by KiCad (PCBNEW 9.0.2) date 2025-06-25 22:54:11*
%MOMM*%
%LPD*%
G01*
G04 APERTURE LIST*
%ADD10R,1.700000X1.700000*%
%ADD11C,1.700000*%
%ADD12R,2.350000X0.600000*%
%ADD13C,5.300000*%
G04 APERTURE END LIST*
D10*
%TO.C,J5*%
X119680000Y-93400000D03*
D11*
X122220000Y-93400000D03*
X124760000Y-93400000D03*
X127300000Y-93400000D03*
%TD*%
D10*
%TO.C,J3*%
X143440164Y-71322884D03*
D11*
X143440164Y-68782884D03*
X143440164Y-66242884D03*
X143440164Y-63702884D03*
X143440164Y-61162884D03*
X143440164Y-58622884D03*
X143440164Y-56082884D03*
X143440164Y-53542884D03*
X143440164Y-51002884D03*
X143440164Y-48462884D03*
%TD*%
D12*
%TO.C,J1*%
X104010000Y-65200000D03*
X104010000Y-66000000D03*
X104010000Y-66800000D03*
X104010000Y-67600000D03*
X104010000Y-68400000D03*
X104010000Y-69200000D03*
X104010000Y-70000000D03*
X104010000Y-70800000D03*
X104007750Y-74800000D03*
X104010000Y-75600000D03*
X104010000Y-76400000D03*
X104010000Y-77200000D03*
X104010000Y-78000000D03*
X104010000Y-78800000D03*
X104010000Y-79600000D03*
X104010000Y-80400000D03*
X104010000Y-81200000D03*
X104010000Y-82000000D03*
X104010000Y-82800000D03*
X104010000Y-83600000D03*
X104010000Y-84400000D03*
X104010000Y-85200000D03*
X104010000Y-86000000D03*
X104010000Y-86800000D03*
X104010000Y-87600000D03*
X104010000Y-88400000D03*
%TD*%
D10*
%TO.C,J4*%
X118280000Y-52900000D03*
D11*
X120820000Y-52900000D03*
X123360000Y-52900000D03*
X125900000Y-52900000D03*
%TD*%
D13*
%TO.C,H1*%
X130639761Y-44467158D03*
%TD*%
D10*
%TO.C,J2*%
X143440164Y-106822884D03*
D11*
X143440164Y-104282884D03*
X143440164Y-101742884D03*
X143440164Y-99202884D03*
X143440164Y-96662884D03*
X143440164Y-94122884D03*
X143440164Y-91582884D03*
X143440164Y-89042884D03*
%TD*%
D13*
%TO.C,H2*%
X130639761Y-109467158D03*
%TD*%
M02*
