%TF.GenerationSoftware,KiCad,Pcbnew,9.0.2*%
%TF.CreationDate,2025-06-25T22:38:51+10:00*%
%TF.ProjectId,F0-uConsole,46302d75-436f-46e7-936f-6c652e6b6963,rev?*%
%TF.SameCoordinates,Original*%
%TF.FileFunction,Legend,Bot*%
%TF.FilePolarity,Positive*%
%FSLAX46Y46*%
G04 Gerber Fmt 4.6, Leading zero omitted, Abs format (unit mm)*
G04 Created by KiCad (PCBNEW 9.0.2) date 2025-06-25 22:38:51*
%MOMM*%
%LPD*%
G01*
G04 APERTURE LIST*
%ADD10C,0.200000*%
%ADD11C,0.250000*%
%ADD12C,0.100000*%
G04 APERTURE END LIST*
D10*
X145418048Y-71794299D02*
X145418048Y-71611442D01*
X145418048Y-71611442D02*
X145491382Y-71520013D01*
X145491382Y-71520013D02*
X145564715Y-71474299D01*
X145564715Y-71474299D02*
X145784715Y-71382870D01*
X145784715Y-71382870D02*
X146078048Y-71337156D01*
X146078048Y-71337156D02*
X146664715Y-71337156D01*
X146664715Y-71337156D02*
X146811382Y-71382870D01*
X146811382Y-71382870D02*
X146884715Y-71428585D01*
X146884715Y-71428585D02*
X146958048Y-71520013D01*
X146958048Y-71520013D02*
X146958048Y-71702870D01*
X146958048Y-71702870D02*
X146884715Y-71794299D01*
X146884715Y-71794299D02*
X146811382Y-71840013D01*
X146811382Y-71840013D02*
X146664715Y-71885727D01*
X146664715Y-71885727D02*
X146298048Y-71885727D01*
X146298048Y-71885727D02*
X146151382Y-71840013D01*
X146151382Y-71840013D02*
X146078048Y-71794299D01*
X146078048Y-71794299D02*
X146004715Y-71702870D01*
X146004715Y-71702870D02*
X146004715Y-71520013D01*
X146004715Y-71520013D02*
X146078048Y-71428585D01*
X146078048Y-71428585D02*
X146151382Y-71382870D01*
X146151382Y-71382870D02*
X146298048Y-71337156D01*
X145418048Y-106660016D02*
X145418048Y-107242873D01*
X145418048Y-106951444D02*
X146958048Y-106951444D01*
X146958048Y-106951444D02*
X146738048Y-107048587D01*
X146738048Y-107048587D02*
X146591382Y-107145730D01*
X146591382Y-107145730D02*
X146518048Y-107242873D01*
X146811382Y-104717158D02*
X146884715Y-104668586D01*
X146884715Y-104668586D02*
X146958048Y-104571444D01*
X146958048Y-104571444D02*
X146958048Y-104328586D01*
X146958048Y-104328586D02*
X146884715Y-104231444D01*
X146884715Y-104231444D02*
X146811382Y-104182872D01*
X146811382Y-104182872D02*
X146664715Y-104134301D01*
X146664715Y-104134301D02*
X146518048Y-104134301D01*
X146518048Y-104134301D02*
X146298048Y-104182872D01*
X146298048Y-104182872D02*
X145418048Y-104765729D01*
X145418048Y-104765729D02*
X145418048Y-104134301D01*
X146958048Y-102240014D02*
X146958048Y-101608586D01*
X146958048Y-101608586D02*
X146371382Y-101948586D01*
X146371382Y-101948586D02*
X146371382Y-101802871D01*
X146371382Y-101802871D02*
X146298048Y-101705729D01*
X146298048Y-101705729D02*
X146224715Y-101657157D01*
X146224715Y-101657157D02*
X146078048Y-101608586D01*
X146078048Y-101608586D02*
X145711382Y-101608586D01*
X145711382Y-101608586D02*
X145564715Y-101657157D01*
X145564715Y-101657157D02*
X145491382Y-101705729D01*
X145491382Y-101705729D02*
X145418048Y-101802871D01*
X145418048Y-101802871D02*
X145418048Y-102094300D01*
X145418048Y-102094300D02*
X145491382Y-102191443D01*
X145491382Y-102191443D02*
X145564715Y-102240014D01*
X146444715Y-99180014D02*
X145418048Y-99180014D01*
X147031382Y-99422871D02*
X145931382Y-99665728D01*
X145931382Y-99665728D02*
X145931382Y-99034299D01*
X146958048Y-96605727D02*
X146958048Y-97091441D01*
X146958048Y-97091441D02*
X146224715Y-97140013D01*
X146224715Y-97140013D02*
X146298048Y-97091441D01*
X146298048Y-97091441D02*
X146371382Y-96994299D01*
X146371382Y-96994299D02*
X146371382Y-96751441D01*
X146371382Y-96751441D02*
X146298048Y-96654299D01*
X146298048Y-96654299D02*
X146224715Y-96605727D01*
X146224715Y-96605727D02*
X146078048Y-96557156D01*
X146078048Y-96557156D02*
X145711382Y-96557156D01*
X145711382Y-96557156D02*
X145564715Y-96605727D01*
X145564715Y-96605727D02*
X145491382Y-96654299D01*
X145491382Y-96654299D02*
X145418048Y-96751441D01*
X145418048Y-96751441D02*
X145418048Y-96994299D01*
X145418048Y-96994299D02*
X145491382Y-97091441D01*
X145491382Y-97091441D02*
X145564715Y-97140013D01*
X146958048Y-94128584D02*
X146958048Y-94322869D01*
X146958048Y-94322869D02*
X146884715Y-94420012D01*
X146884715Y-94420012D02*
X146811382Y-94468584D01*
X146811382Y-94468584D02*
X146591382Y-94565726D01*
X146591382Y-94565726D02*
X146298048Y-94614298D01*
X146298048Y-94614298D02*
X145711382Y-94614298D01*
X145711382Y-94614298D02*
X145564715Y-94565726D01*
X145564715Y-94565726D02*
X145491382Y-94517155D01*
X145491382Y-94517155D02*
X145418048Y-94420012D01*
X145418048Y-94420012D02*
X145418048Y-94225726D01*
X145418048Y-94225726D02*
X145491382Y-94128584D01*
X145491382Y-94128584D02*
X145564715Y-94080012D01*
X145564715Y-94080012D02*
X145711382Y-94031441D01*
X145711382Y-94031441D02*
X146078048Y-94031441D01*
X146078048Y-94031441D02*
X146224715Y-94080012D01*
X146224715Y-94080012D02*
X146298048Y-94128584D01*
X146298048Y-94128584D02*
X146371382Y-94225726D01*
X146371382Y-94225726D02*
X146371382Y-94420012D01*
X146371382Y-94420012D02*
X146298048Y-94517155D01*
X146298048Y-94517155D02*
X146224715Y-94565726D01*
X146224715Y-94565726D02*
X146078048Y-94614298D01*
X146958048Y-92137154D02*
X146958048Y-91457154D01*
X146958048Y-91457154D02*
X145418048Y-91894297D01*
X146298048Y-89368582D02*
X146371382Y-89465725D01*
X146371382Y-89465725D02*
X146444715Y-89514296D01*
X146444715Y-89514296D02*
X146591382Y-89562868D01*
X146591382Y-89562868D02*
X146664715Y-89562868D01*
X146664715Y-89562868D02*
X146811382Y-89514296D01*
X146811382Y-89514296D02*
X146884715Y-89465725D01*
X146884715Y-89465725D02*
X146958048Y-89368582D01*
X146958048Y-89368582D02*
X146958048Y-89174296D01*
X146958048Y-89174296D02*
X146884715Y-89077154D01*
X146884715Y-89077154D02*
X146811382Y-89028582D01*
X146811382Y-89028582D02*
X146664715Y-88980011D01*
X146664715Y-88980011D02*
X146591382Y-88980011D01*
X146591382Y-88980011D02*
X146444715Y-89028582D01*
X146444715Y-89028582D02*
X146371382Y-89077154D01*
X146371382Y-89077154D02*
X146298048Y-89174296D01*
X146298048Y-89174296D02*
X146298048Y-89368582D01*
X146298048Y-89368582D02*
X146224715Y-89465725D01*
X146224715Y-89465725D02*
X146151382Y-89514296D01*
X146151382Y-89514296D02*
X146004715Y-89562868D01*
X146004715Y-89562868D02*
X145711382Y-89562868D01*
X145711382Y-89562868D02*
X145564715Y-89514296D01*
X145564715Y-89514296D02*
X145491382Y-89465725D01*
X145491382Y-89465725D02*
X145418048Y-89368582D01*
X145418048Y-89368582D02*
X145418048Y-89174296D01*
X145418048Y-89174296D02*
X145491382Y-89077154D01*
X145491382Y-89077154D02*
X145564715Y-89028582D01*
X145564715Y-89028582D02*
X145711382Y-88980011D01*
X145711382Y-88980011D02*
X146004715Y-88980011D01*
X146004715Y-88980011D02*
X146151382Y-89028582D01*
X146151382Y-89028582D02*
X146224715Y-89077154D01*
X146224715Y-89077154D02*
X146298048Y-89174296D01*
X145418048Y-69334303D02*
X145418048Y-69882874D01*
X145418048Y-69608589D02*
X146958048Y-69608589D01*
X146958048Y-69608589D02*
X146738048Y-69700017D01*
X146738048Y-69700017D02*
X146591382Y-69791446D01*
X146591382Y-69791446D02*
X146518048Y-69882874D01*
X146958048Y-68740017D02*
X146958048Y-68648588D01*
X146958048Y-68648588D02*
X146884715Y-68557160D01*
X146884715Y-68557160D02*
X146811382Y-68511446D01*
X146811382Y-68511446D02*
X146664715Y-68465731D01*
X146664715Y-68465731D02*
X146371382Y-68420017D01*
X146371382Y-68420017D02*
X146004715Y-68420017D01*
X146004715Y-68420017D02*
X145711382Y-68465731D01*
X145711382Y-68465731D02*
X145564715Y-68511446D01*
X145564715Y-68511446D02*
X145491382Y-68557160D01*
X145491382Y-68557160D02*
X145418048Y-68648588D01*
X145418048Y-68648588D02*
X145418048Y-68740017D01*
X145418048Y-68740017D02*
X145491382Y-68831446D01*
X145491382Y-68831446D02*
X145564715Y-68877160D01*
X145564715Y-68877160D02*
X145711382Y-68922874D01*
X145711382Y-68922874D02*
X146004715Y-68968588D01*
X146004715Y-68968588D02*
X146371382Y-68968588D01*
X146371382Y-68968588D02*
X146664715Y-68922874D01*
X146664715Y-68922874D02*
X146811382Y-68877160D01*
X146811382Y-68877160D02*
X146884715Y-68831446D01*
X146884715Y-68831446D02*
X146958048Y-68740017D01*
X145418048Y-66774302D02*
X145418048Y-67322873D01*
X145418048Y-67048588D02*
X146958048Y-67048588D01*
X146958048Y-67048588D02*
X146738048Y-67140016D01*
X146738048Y-67140016D02*
X146591382Y-67231445D01*
X146591382Y-67231445D02*
X146518048Y-67322873D01*
X145418048Y-65860016D02*
X145418048Y-66408587D01*
X145418048Y-66134302D02*
X146958048Y-66134302D01*
X146958048Y-66134302D02*
X146738048Y-66225730D01*
X146738048Y-66225730D02*
X146591382Y-66317159D01*
X146591382Y-66317159D02*
X146518048Y-66408587D01*
X145418048Y-64214301D02*
X145418048Y-64762872D01*
X145418048Y-64488587D02*
X146958048Y-64488587D01*
X146958048Y-64488587D02*
X146738048Y-64580015D01*
X146738048Y-64580015D02*
X146591382Y-64671444D01*
X146591382Y-64671444D02*
X146518048Y-64762872D01*
X146811382Y-63848586D02*
X146884715Y-63802872D01*
X146884715Y-63802872D02*
X146958048Y-63711444D01*
X146958048Y-63711444D02*
X146958048Y-63482872D01*
X146958048Y-63482872D02*
X146884715Y-63391444D01*
X146884715Y-63391444D02*
X146811382Y-63345729D01*
X146811382Y-63345729D02*
X146664715Y-63300015D01*
X146664715Y-63300015D02*
X146518048Y-63300015D01*
X146518048Y-63300015D02*
X146298048Y-63345729D01*
X146298048Y-63345729D02*
X145418048Y-63894301D01*
X145418048Y-63894301D02*
X145418048Y-63300015D01*
X145418048Y-61654300D02*
X145418048Y-62202871D01*
X145418048Y-61928586D02*
X146958048Y-61928586D01*
X146958048Y-61928586D02*
X146738048Y-62020014D01*
X146738048Y-62020014D02*
X146591382Y-62111443D01*
X146591382Y-62111443D02*
X146518048Y-62202871D01*
X146958048Y-61334300D02*
X146958048Y-60740014D01*
X146958048Y-60740014D02*
X146371382Y-61060014D01*
X146371382Y-61060014D02*
X146371382Y-60922871D01*
X146371382Y-60922871D02*
X146298048Y-60831443D01*
X146298048Y-60831443D02*
X146224715Y-60785728D01*
X146224715Y-60785728D02*
X146078048Y-60740014D01*
X146078048Y-60740014D02*
X145711382Y-60740014D01*
X145711382Y-60740014D02*
X145564715Y-60785728D01*
X145564715Y-60785728D02*
X145491382Y-60831443D01*
X145491382Y-60831443D02*
X145418048Y-60922871D01*
X145418048Y-60922871D02*
X145418048Y-61197157D01*
X145418048Y-61197157D02*
X145491382Y-61288585D01*
X145491382Y-61288585D02*
X145564715Y-61334300D01*
X145418048Y-59094299D02*
X145418048Y-59642870D01*
X145418048Y-59368585D02*
X146958048Y-59368585D01*
X146958048Y-59368585D02*
X146738048Y-59460013D01*
X146738048Y-59460013D02*
X146591382Y-59551442D01*
X146591382Y-59551442D02*
X146518048Y-59642870D01*
X146444715Y-58271442D02*
X145418048Y-58271442D01*
X147031382Y-58500013D02*
X145931382Y-58728584D01*
X145931382Y-58728584D02*
X145931382Y-58134299D01*
X145418048Y-56534298D02*
X145418048Y-57082869D01*
X145418048Y-56808584D02*
X146958048Y-56808584D01*
X146958048Y-56808584D02*
X146738048Y-56900012D01*
X146738048Y-56900012D02*
X146591382Y-56991441D01*
X146591382Y-56991441D02*
X146518048Y-57082869D01*
X146958048Y-55665726D02*
X146958048Y-56122869D01*
X146958048Y-56122869D02*
X146224715Y-56168583D01*
X146224715Y-56168583D02*
X146298048Y-56122869D01*
X146298048Y-56122869D02*
X146371382Y-56031441D01*
X146371382Y-56031441D02*
X146371382Y-55802869D01*
X146371382Y-55802869D02*
X146298048Y-55711441D01*
X146298048Y-55711441D02*
X146224715Y-55665726D01*
X146224715Y-55665726D02*
X146078048Y-55620012D01*
X146078048Y-55620012D02*
X145711382Y-55620012D01*
X145711382Y-55620012D02*
X145564715Y-55665726D01*
X145564715Y-55665726D02*
X145491382Y-55711441D01*
X145491382Y-55711441D02*
X145418048Y-55802869D01*
X145418048Y-55802869D02*
X145418048Y-56031441D01*
X145418048Y-56031441D02*
X145491382Y-56122869D01*
X145491382Y-56122869D02*
X145564715Y-56168583D01*
X145418048Y-53974297D02*
X145418048Y-54522868D01*
X145418048Y-54248583D02*
X146958048Y-54248583D01*
X146958048Y-54248583D02*
X146738048Y-54340011D01*
X146738048Y-54340011D02*
X146591382Y-54431440D01*
X146591382Y-54431440D02*
X146518048Y-54522868D01*
X146958048Y-53151440D02*
X146958048Y-53334297D01*
X146958048Y-53334297D02*
X146884715Y-53425725D01*
X146884715Y-53425725D02*
X146811382Y-53471440D01*
X146811382Y-53471440D02*
X146591382Y-53562868D01*
X146591382Y-53562868D02*
X146298048Y-53608582D01*
X146298048Y-53608582D02*
X145711382Y-53608582D01*
X145711382Y-53608582D02*
X145564715Y-53562868D01*
X145564715Y-53562868D02*
X145491382Y-53517154D01*
X145491382Y-53517154D02*
X145418048Y-53425725D01*
X145418048Y-53425725D02*
X145418048Y-53242868D01*
X145418048Y-53242868D02*
X145491382Y-53151440D01*
X145491382Y-53151440D02*
X145564715Y-53105725D01*
X145564715Y-53105725D02*
X145711382Y-53060011D01*
X145711382Y-53060011D02*
X146078048Y-53060011D01*
X146078048Y-53060011D02*
X146224715Y-53105725D01*
X146224715Y-53105725D02*
X146298048Y-53151440D01*
X146298048Y-53151440D02*
X146371382Y-53242868D01*
X146371382Y-53242868D02*
X146371382Y-53425725D01*
X146371382Y-53425725D02*
X146298048Y-53517154D01*
X146298048Y-53517154D02*
X146224715Y-53562868D01*
X146224715Y-53562868D02*
X146078048Y-53608582D01*
X145418048Y-51414296D02*
X145418048Y-51962867D01*
X145418048Y-51688582D02*
X146958048Y-51688582D01*
X146958048Y-51688582D02*
X146738048Y-51780010D01*
X146738048Y-51780010D02*
X146591382Y-51871439D01*
X146591382Y-51871439D02*
X146518048Y-51962867D01*
X146958048Y-51094296D02*
X146958048Y-50454296D01*
X146958048Y-50454296D02*
X145418048Y-50865724D01*
X145418048Y-48854295D02*
X145418048Y-49402866D01*
X145418048Y-49128581D02*
X146958048Y-49128581D01*
X146958048Y-49128581D02*
X146738048Y-49220009D01*
X146738048Y-49220009D02*
X146591382Y-49311438D01*
X146591382Y-49311438D02*
X146518048Y-49402866D01*
X146298048Y-48305723D02*
X146371382Y-48397152D01*
X146371382Y-48397152D02*
X146444715Y-48442866D01*
X146444715Y-48442866D02*
X146591382Y-48488580D01*
X146591382Y-48488580D02*
X146664715Y-48488580D01*
X146664715Y-48488580D02*
X146811382Y-48442866D01*
X146811382Y-48442866D02*
X146884715Y-48397152D01*
X146884715Y-48397152D02*
X146958048Y-48305723D01*
X146958048Y-48305723D02*
X146958048Y-48122866D01*
X146958048Y-48122866D02*
X146884715Y-48031438D01*
X146884715Y-48031438D02*
X146811382Y-47985723D01*
X146811382Y-47985723D02*
X146664715Y-47940009D01*
X146664715Y-47940009D02*
X146591382Y-47940009D01*
X146591382Y-47940009D02*
X146444715Y-47985723D01*
X146444715Y-47985723D02*
X146371382Y-48031438D01*
X146371382Y-48031438D02*
X146298048Y-48122866D01*
X146298048Y-48122866D02*
X146298048Y-48305723D01*
X146298048Y-48305723D02*
X146224715Y-48397152D01*
X146224715Y-48397152D02*
X146151382Y-48442866D01*
X146151382Y-48442866D02*
X146004715Y-48488580D01*
X146004715Y-48488580D02*
X145711382Y-48488580D01*
X145711382Y-48488580D02*
X145564715Y-48442866D01*
X145564715Y-48442866D02*
X145491382Y-48397152D01*
X145491382Y-48397152D02*
X145418048Y-48305723D01*
X145418048Y-48305723D02*
X145418048Y-48122866D01*
X145418048Y-48122866D02*
X145491382Y-48031438D01*
X145491382Y-48031438D02*
X145564715Y-47985723D01*
X145564715Y-47985723D02*
X145711382Y-47940009D01*
X145711382Y-47940009D02*
X146004715Y-47940009D01*
X146004715Y-47940009D02*
X146151382Y-47985723D01*
X146151382Y-47985723D02*
X146224715Y-48031438D01*
X146224715Y-48031438D02*
X146298048Y-48122866D01*
D11*
X148298840Y-107106163D02*
X147822650Y-107106163D01*
X147822650Y-107106163D02*
X147775031Y-106382353D01*
X147775031Y-106382353D02*
X147822650Y-106454734D01*
X147822650Y-106454734D02*
X147917888Y-106527115D01*
X147917888Y-106527115D02*
X148155983Y-106527115D01*
X148155983Y-106527115D02*
X148251221Y-106454734D01*
X148251221Y-106454734D02*
X148298840Y-106382353D01*
X148298840Y-106382353D02*
X148346459Y-106237591D01*
X148346459Y-106237591D02*
X148346459Y-105875686D01*
X148346459Y-105875686D02*
X148298840Y-105730924D01*
X148298840Y-105730924D02*
X148251221Y-105658544D01*
X148251221Y-105658544D02*
X148155983Y-105586163D01*
X148155983Y-105586163D02*
X147917888Y-105586163D01*
X147917888Y-105586163D02*
X147822650Y-105658544D01*
X147822650Y-105658544D02*
X147775031Y-105730924D01*
X148632174Y-107106163D02*
X148965507Y-105586163D01*
X148965507Y-105586163D02*
X149298840Y-107106163D01*
X147822650Y-103139048D02*
X147822650Y-104659048D01*
X147822650Y-104659048D02*
X148155983Y-103573333D01*
X148155983Y-103573333D02*
X148489316Y-104659048D01*
X148489316Y-104659048D02*
X148489316Y-103139048D01*
X149155983Y-104659048D02*
X149346459Y-104659048D01*
X149346459Y-104659048D02*
X149441697Y-104586667D01*
X149441697Y-104586667D02*
X149536935Y-104441905D01*
X149536935Y-104441905D02*
X149584554Y-104152381D01*
X149584554Y-104152381D02*
X149584554Y-103645714D01*
X149584554Y-103645714D02*
X149536935Y-103356190D01*
X149536935Y-103356190D02*
X149441697Y-103211429D01*
X149441697Y-103211429D02*
X149346459Y-103139048D01*
X149346459Y-103139048D02*
X149155983Y-103139048D01*
X149155983Y-103139048D02*
X149060745Y-103211429D01*
X149060745Y-103211429D02*
X148965507Y-103356190D01*
X148965507Y-103356190D02*
X148917888Y-103645714D01*
X148917888Y-103645714D02*
X148917888Y-104152381D01*
X148917888Y-104152381D02*
X148965507Y-104441905D01*
X148965507Y-104441905D02*
X149060745Y-104586667D01*
X149060745Y-104586667D02*
X149155983Y-104659048D01*
X149965507Y-103211429D02*
X150108364Y-103139048D01*
X150108364Y-103139048D02*
X150346459Y-103139048D01*
X150346459Y-103139048D02*
X150441697Y-103211429D01*
X150441697Y-103211429D02*
X150489316Y-103283809D01*
X150489316Y-103283809D02*
X150536935Y-103428571D01*
X150536935Y-103428571D02*
X150536935Y-103573333D01*
X150536935Y-103573333D02*
X150489316Y-103718095D01*
X150489316Y-103718095D02*
X150441697Y-103790476D01*
X150441697Y-103790476D02*
X150346459Y-103862857D01*
X150346459Y-103862857D02*
X150155983Y-103935238D01*
X150155983Y-103935238D02*
X150060745Y-104007619D01*
X150060745Y-104007619D02*
X150013126Y-104080000D01*
X150013126Y-104080000D02*
X149965507Y-104224762D01*
X149965507Y-104224762D02*
X149965507Y-104369524D01*
X149965507Y-104369524D02*
X150013126Y-104514286D01*
X150013126Y-104514286D02*
X150060745Y-104586667D01*
X150060745Y-104586667D02*
X150155983Y-104659048D01*
X150155983Y-104659048D02*
X150394078Y-104659048D01*
X150394078Y-104659048D02*
X150536935Y-104586667D01*
X150965507Y-103139048D02*
X150965507Y-104659048D01*
X147822650Y-100691933D02*
X147822650Y-102211933D01*
X147822650Y-102211933D02*
X148155983Y-101126218D01*
X148155983Y-101126218D02*
X148489316Y-102211933D01*
X148489316Y-102211933D02*
X148489316Y-100691933D01*
X148965507Y-100691933D02*
X148965507Y-102211933D01*
X149394078Y-100764314D02*
X149536935Y-100691933D01*
X149536935Y-100691933D02*
X149775030Y-100691933D01*
X149775030Y-100691933D02*
X149870268Y-100764314D01*
X149870268Y-100764314D02*
X149917887Y-100836694D01*
X149917887Y-100836694D02*
X149965506Y-100981456D01*
X149965506Y-100981456D02*
X149965506Y-101126218D01*
X149965506Y-101126218D02*
X149917887Y-101270980D01*
X149917887Y-101270980D02*
X149870268Y-101343361D01*
X149870268Y-101343361D02*
X149775030Y-101415742D01*
X149775030Y-101415742D02*
X149584554Y-101488123D01*
X149584554Y-101488123D02*
X149489316Y-101560504D01*
X149489316Y-101560504D02*
X149441697Y-101632885D01*
X149441697Y-101632885D02*
X149394078Y-101777647D01*
X149394078Y-101777647D02*
X149394078Y-101922409D01*
X149394078Y-101922409D02*
X149441697Y-102067171D01*
X149441697Y-102067171D02*
X149489316Y-102139552D01*
X149489316Y-102139552D02*
X149584554Y-102211933D01*
X149584554Y-102211933D02*
X149822649Y-102211933D01*
X149822649Y-102211933D02*
X149965506Y-102139552D01*
X150584554Y-102211933D02*
X150775030Y-102211933D01*
X150775030Y-102211933D02*
X150870268Y-102139552D01*
X150870268Y-102139552D02*
X150965506Y-101994790D01*
X150965506Y-101994790D02*
X151013125Y-101705266D01*
X151013125Y-101705266D02*
X151013125Y-101198599D01*
X151013125Y-101198599D02*
X150965506Y-100909075D01*
X150965506Y-100909075D02*
X150870268Y-100764314D01*
X150870268Y-100764314D02*
X150775030Y-100691933D01*
X150775030Y-100691933D02*
X150584554Y-100691933D01*
X150584554Y-100691933D02*
X150489316Y-100764314D01*
X150489316Y-100764314D02*
X150394078Y-100909075D01*
X150394078Y-100909075D02*
X150346459Y-101198599D01*
X150346459Y-101198599D02*
X150346459Y-101705266D01*
X150346459Y-101705266D02*
X150394078Y-101994790D01*
X150394078Y-101994790D02*
X150489316Y-102139552D01*
X150489316Y-102139552D02*
X150584554Y-102211933D01*
X148394078Y-98389579D02*
X148346459Y-98317199D01*
X148346459Y-98317199D02*
X148203602Y-98244818D01*
X148203602Y-98244818D02*
X148108364Y-98244818D01*
X148108364Y-98244818D02*
X147965507Y-98317199D01*
X147965507Y-98317199D02*
X147870269Y-98461960D01*
X147870269Y-98461960D02*
X147822650Y-98606722D01*
X147822650Y-98606722D02*
X147775031Y-98896246D01*
X147775031Y-98896246D02*
X147775031Y-99113389D01*
X147775031Y-99113389D02*
X147822650Y-99402913D01*
X147822650Y-99402913D02*
X147870269Y-99547675D01*
X147870269Y-99547675D02*
X147965507Y-99692437D01*
X147965507Y-99692437D02*
X148108364Y-99764818D01*
X148108364Y-99764818D02*
X148203602Y-99764818D01*
X148203602Y-99764818D02*
X148346459Y-99692437D01*
X148346459Y-99692437D02*
X148394078Y-99620056D01*
X148775031Y-98317199D02*
X148917888Y-98244818D01*
X148917888Y-98244818D02*
X149155983Y-98244818D01*
X149155983Y-98244818D02*
X149251221Y-98317199D01*
X149251221Y-98317199D02*
X149298840Y-98389579D01*
X149298840Y-98389579D02*
X149346459Y-98534341D01*
X149346459Y-98534341D02*
X149346459Y-98679103D01*
X149346459Y-98679103D02*
X149298840Y-98823865D01*
X149298840Y-98823865D02*
X149251221Y-98896246D01*
X149251221Y-98896246D02*
X149155983Y-98968627D01*
X149155983Y-98968627D02*
X148965507Y-99041008D01*
X148965507Y-99041008D02*
X148870269Y-99113389D01*
X148870269Y-99113389D02*
X148822650Y-99185770D01*
X148822650Y-99185770D02*
X148775031Y-99330532D01*
X148775031Y-99330532D02*
X148775031Y-99475294D01*
X148775031Y-99475294D02*
X148822650Y-99620056D01*
X148822650Y-99620056D02*
X148870269Y-99692437D01*
X148870269Y-99692437D02*
X148965507Y-99764818D01*
X148965507Y-99764818D02*
X149203602Y-99764818D01*
X149203602Y-99764818D02*
X149346459Y-99692437D01*
X149965507Y-99764818D02*
X150060745Y-99764818D01*
X150060745Y-99764818D02*
X150155983Y-99692437D01*
X150155983Y-99692437D02*
X150203602Y-99620056D01*
X150203602Y-99620056D02*
X150251221Y-99475294D01*
X150251221Y-99475294D02*
X150298840Y-99185770D01*
X150298840Y-99185770D02*
X150298840Y-98823865D01*
X150298840Y-98823865D02*
X150251221Y-98534341D01*
X150251221Y-98534341D02*
X150203602Y-98389579D01*
X150203602Y-98389579D02*
X150155983Y-98317199D01*
X150155983Y-98317199D02*
X150060745Y-98244818D01*
X150060745Y-98244818D02*
X149965507Y-98244818D01*
X149965507Y-98244818D02*
X149870269Y-98317199D01*
X149870269Y-98317199D02*
X149822650Y-98389579D01*
X149822650Y-98389579D02*
X149775031Y-98534341D01*
X149775031Y-98534341D02*
X149727412Y-98823865D01*
X149727412Y-98823865D02*
X149727412Y-99185770D01*
X149727412Y-99185770D02*
X149775031Y-99475294D01*
X149775031Y-99475294D02*
X149822650Y-99620056D01*
X149822650Y-99620056D02*
X149870269Y-99692437D01*
X149870269Y-99692437D02*
X149965507Y-99764818D01*
X147775031Y-95870084D02*
X147917888Y-95797703D01*
X147917888Y-95797703D02*
X148155983Y-95797703D01*
X148155983Y-95797703D02*
X148251221Y-95870084D01*
X148251221Y-95870084D02*
X148298840Y-95942464D01*
X148298840Y-95942464D02*
X148346459Y-96087226D01*
X148346459Y-96087226D02*
X148346459Y-96231988D01*
X148346459Y-96231988D02*
X148298840Y-96376750D01*
X148298840Y-96376750D02*
X148251221Y-96449131D01*
X148251221Y-96449131D02*
X148155983Y-96521512D01*
X148155983Y-96521512D02*
X147965507Y-96593893D01*
X147965507Y-96593893D02*
X147870269Y-96666274D01*
X147870269Y-96666274D02*
X147822650Y-96738655D01*
X147822650Y-96738655D02*
X147775031Y-96883417D01*
X147775031Y-96883417D02*
X147775031Y-97028179D01*
X147775031Y-97028179D02*
X147822650Y-97172941D01*
X147822650Y-97172941D02*
X147870269Y-97245322D01*
X147870269Y-97245322D02*
X147965507Y-97317703D01*
X147965507Y-97317703D02*
X148203602Y-97317703D01*
X148203602Y-97317703D02*
X148346459Y-97245322D01*
X149346459Y-95942464D02*
X149298840Y-95870084D01*
X149298840Y-95870084D02*
X149155983Y-95797703D01*
X149155983Y-95797703D02*
X149060745Y-95797703D01*
X149060745Y-95797703D02*
X148917888Y-95870084D01*
X148917888Y-95870084D02*
X148822650Y-96014845D01*
X148822650Y-96014845D02*
X148775031Y-96159607D01*
X148775031Y-96159607D02*
X148727412Y-96449131D01*
X148727412Y-96449131D02*
X148727412Y-96666274D01*
X148727412Y-96666274D02*
X148775031Y-96955798D01*
X148775031Y-96955798D02*
X148822650Y-97100560D01*
X148822650Y-97100560D02*
X148917888Y-97245322D01*
X148917888Y-97245322D02*
X149060745Y-97317703D01*
X149060745Y-97317703D02*
X149155983Y-97317703D01*
X149155983Y-97317703D02*
X149298840Y-97245322D01*
X149298840Y-97245322D02*
X149346459Y-97172941D01*
X150251221Y-95797703D02*
X149775031Y-95797703D01*
X149775031Y-95797703D02*
X149775031Y-97317703D01*
X150584555Y-95797703D02*
X150584555Y-97317703D01*
X151155983Y-95797703D02*
X150727412Y-96666274D01*
X151155983Y-97317703D02*
X150584555Y-96449131D01*
X148394078Y-93495349D02*
X148346459Y-93422969D01*
X148346459Y-93422969D02*
X148203602Y-93350588D01*
X148203602Y-93350588D02*
X148108364Y-93350588D01*
X148108364Y-93350588D02*
X147965507Y-93422969D01*
X147965507Y-93422969D02*
X147870269Y-93567730D01*
X147870269Y-93567730D02*
X147822650Y-93712492D01*
X147822650Y-93712492D02*
X147775031Y-94002016D01*
X147775031Y-94002016D02*
X147775031Y-94219159D01*
X147775031Y-94219159D02*
X147822650Y-94508683D01*
X147822650Y-94508683D02*
X147870269Y-94653445D01*
X147870269Y-94653445D02*
X147965507Y-94798207D01*
X147965507Y-94798207D02*
X148108364Y-94870588D01*
X148108364Y-94870588D02*
X148203602Y-94870588D01*
X148203602Y-94870588D02*
X148346459Y-94798207D01*
X148346459Y-94798207D02*
X148394078Y-94725826D01*
X148775031Y-93422969D02*
X148917888Y-93350588D01*
X148917888Y-93350588D02*
X149155983Y-93350588D01*
X149155983Y-93350588D02*
X149251221Y-93422969D01*
X149251221Y-93422969D02*
X149298840Y-93495349D01*
X149298840Y-93495349D02*
X149346459Y-93640111D01*
X149346459Y-93640111D02*
X149346459Y-93784873D01*
X149346459Y-93784873D02*
X149298840Y-93929635D01*
X149298840Y-93929635D02*
X149251221Y-94002016D01*
X149251221Y-94002016D02*
X149155983Y-94074397D01*
X149155983Y-94074397D02*
X148965507Y-94146778D01*
X148965507Y-94146778D02*
X148870269Y-94219159D01*
X148870269Y-94219159D02*
X148822650Y-94291540D01*
X148822650Y-94291540D02*
X148775031Y-94436302D01*
X148775031Y-94436302D02*
X148775031Y-94581064D01*
X148775031Y-94581064D02*
X148822650Y-94725826D01*
X148822650Y-94725826D02*
X148870269Y-94798207D01*
X148870269Y-94798207D02*
X148965507Y-94870588D01*
X148965507Y-94870588D02*
X149203602Y-94870588D01*
X149203602Y-94870588D02*
X149346459Y-94798207D01*
X150298840Y-93350588D02*
X149727412Y-93350588D01*
X150013126Y-93350588D02*
X150013126Y-94870588D01*
X150013126Y-94870588D02*
X149917888Y-94653445D01*
X149917888Y-94653445D02*
X149822650Y-94508683D01*
X149822650Y-94508683D02*
X149727412Y-94436302D01*
X148346459Y-92351092D02*
X148251221Y-92423473D01*
X148251221Y-92423473D02*
X148108364Y-92423473D01*
X148108364Y-92423473D02*
X147965507Y-92351092D01*
X147965507Y-92351092D02*
X147870269Y-92206330D01*
X147870269Y-92206330D02*
X147822650Y-92061568D01*
X147822650Y-92061568D02*
X147775031Y-91772044D01*
X147775031Y-91772044D02*
X147775031Y-91554901D01*
X147775031Y-91554901D02*
X147822650Y-91265377D01*
X147822650Y-91265377D02*
X147870269Y-91120615D01*
X147870269Y-91120615D02*
X147965507Y-90975854D01*
X147965507Y-90975854D02*
X148108364Y-90903473D01*
X148108364Y-90903473D02*
X148203602Y-90903473D01*
X148203602Y-90903473D02*
X148346459Y-90975854D01*
X148346459Y-90975854D02*
X148394078Y-91048234D01*
X148394078Y-91048234D02*
X148394078Y-91554901D01*
X148394078Y-91554901D02*
X148203602Y-91554901D01*
X148822650Y-90903473D02*
X148822650Y-92423473D01*
X148822650Y-92423473D02*
X149203602Y-92423473D01*
X149203602Y-92423473D02*
X149298840Y-92351092D01*
X149298840Y-92351092D02*
X149346459Y-92278711D01*
X149346459Y-92278711D02*
X149394078Y-92133949D01*
X149394078Y-92133949D02*
X149394078Y-91916806D01*
X149394078Y-91916806D02*
X149346459Y-91772044D01*
X149346459Y-91772044D02*
X149298840Y-91699663D01*
X149298840Y-91699663D02*
X149203602Y-91627282D01*
X149203602Y-91627282D02*
X148822650Y-91627282D01*
X149822650Y-90903473D02*
X149822650Y-92423473D01*
X150489316Y-92423473D02*
X150679792Y-92423473D01*
X150679792Y-92423473D02*
X150775030Y-92351092D01*
X150775030Y-92351092D02*
X150870268Y-92206330D01*
X150870268Y-92206330D02*
X150917887Y-91916806D01*
X150917887Y-91916806D02*
X150917887Y-91410139D01*
X150917887Y-91410139D02*
X150870268Y-91120615D01*
X150870268Y-91120615D02*
X150775030Y-90975854D01*
X150775030Y-90975854D02*
X150679792Y-90903473D01*
X150679792Y-90903473D02*
X150489316Y-90903473D01*
X150489316Y-90903473D02*
X150394078Y-90975854D01*
X150394078Y-90975854D02*
X150298840Y-91120615D01*
X150298840Y-91120615D02*
X150251221Y-91410139D01*
X150251221Y-91410139D02*
X150251221Y-91916806D01*
X150251221Y-91916806D02*
X150298840Y-92206330D01*
X150298840Y-92206330D02*
X150394078Y-92351092D01*
X150394078Y-92351092D02*
X150489316Y-92423473D01*
X151251221Y-92423473D02*
X151870268Y-92423473D01*
X151870268Y-92423473D02*
X151536935Y-91844425D01*
X151536935Y-91844425D02*
X151679792Y-91844425D01*
X151679792Y-91844425D02*
X151775030Y-91772044D01*
X151775030Y-91772044D02*
X151822649Y-91699663D01*
X151822649Y-91699663D02*
X151870268Y-91554901D01*
X151870268Y-91554901D02*
X151870268Y-91192996D01*
X151870268Y-91192996D02*
X151822649Y-91048234D01*
X151822649Y-91048234D02*
X151775030Y-90975854D01*
X151775030Y-90975854D02*
X151679792Y-90903473D01*
X151679792Y-90903473D02*
X151394078Y-90903473D01*
X151394078Y-90903473D02*
X151298840Y-90975854D01*
X151298840Y-90975854D02*
X151251221Y-91048234D01*
X152727411Y-91916806D02*
X152727411Y-90903473D01*
X152489316Y-92495854D02*
X152251221Y-91410139D01*
X152251221Y-91410139D02*
X152870268Y-91410139D01*
X148346459Y-89903977D02*
X148251221Y-89976358D01*
X148251221Y-89976358D02*
X148108364Y-89976358D01*
X148108364Y-89976358D02*
X147965507Y-89903977D01*
X147965507Y-89903977D02*
X147870269Y-89759215D01*
X147870269Y-89759215D02*
X147822650Y-89614453D01*
X147822650Y-89614453D02*
X147775031Y-89324929D01*
X147775031Y-89324929D02*
X147775031Y-89107786D01*
X147775031Y-89107786D02*
X147822650Y-88818262D01*
X147822650Y-88818262D02*
X147870269Y-88673500D01*
X147870269Y-88673500D02*
X147965507Y-88528739D01*
X147965507Y-88528739D02*
X148108364Y-88456358D01*
X148108364Y-88456358D02*
X148203602Y-88456358D01*
X148203602Y-88456358D02*
X148346459Y-88528739D01*
X148346459Y-88528739D02*
X148394078Y-88601119D01*
X148394078Y-88601119D02*
X148394078Y-89107786D01*
X148394078Y-89107786D02*
X148203602Y-89107786D01*
X148822650Y-88456358D02*
X148822650Y-89976358D01*
X148822650Y-89976358D02*
X149394078Y-88456358D01*
X149394078Y-88456358D02*
X149394078Y-89976358D01*
X149870269Y-88456358D02*
X149870269Y-89976358D01*
X149870269Y-89976358D02*
X150108364Y-89976358D01*
X150108364Y-89976358D02*
X150251221Y-89903977D01*
X150251221Y-89903977D02*
X150346459Y-89759215D01*
X150346459Y-89759215D02*
X150394078Y-89614453D01*
X150394078Y-89614453D02*
X150441697Y-89324929D01*
X150441697Y-89324929D02*
X150441697Y-89107786D01*
X150441697Y-89107786D02*
X150394078Y-88818262D01*
X150394078Y-88818262D02*
X150346459Y-88673500D01*
X150346459Y-88673500D02*
X150251221Y-88528739D01*
X150251221Y-88528739D02*
X150108364Y-88456358D01*
X150108364Y-88456358D02*
X149870269Y-88456358D01*
X147727412Y-71453278D02*
X148346459Y-71453278D01*
X148346459Y-71453278D02*
X148013126Y-70874230D01*
X148013126Y-70874230D02*
X148155983Y-70874230D01*
X148155983Y-70874230D02*
X148251221Y-70801849D01*
X148251221Y-70801849D02*
X148298840Y-70729468D01*
X148298840Y-70729468D02*
X148346459Y-70584706D01*
X148346459Y-70584706D02*
X148346459Y-70222801D01*
X148346459Y-70222801D02*
X148298840Y-70078039D01*
X148298840Y-70078039D02*
X148251221Y-70005659D01*
X148251221Y-70005659D02*
X148155983Y-69933278D01*
X148155983Y-69933278D02*
X147870269Y-69933278D01*
X147870269Y-69933278D02*
X147775031Y-70005659D01*
X147775031Y-70005659D02*
X147727412Y-70078039D01*
X148775031Y-70078039D02*
X148822650Y-70005659D01*
X148822650Y-70005659D02*
X148775031Y-69933278D01*
X148775031Y-69933278D02*
X148727412Y-70005659D01*
X148727412Y-70005659D02*
X148775031Y-70078039D01*
X148775031Y-70078039D02*
X148775031Y-69933278D01*
X149155983Y-71453278D02*
X149775030Y-71453278D01*
X149775030Y-71453278D02*
X149441697Y-70874230D01*
X149441697Y-70874230D02*
X149584554Y-70874230D01*
X149584554Y-70874230D02*
X149679792Y-70801849D01*
X149679792Y-70801849D02*
X149727411Y-70729468D01*
X149727411Y-70729468D02*
X149775030Y-70584706D01*
X149775030Y-70584706D02*
X149775030Y-70222801D01*
X149775030Y-70222801D02*
X149727411Y-70078039D01*
X149727411Y-70078039D02*
X149679792Y-70005659D01*
X149679792Y-70005659D02*
X149584554Y-69933278D01*
X149584554Y-69933278D02*
X149298840Y-69933278D01*
X149298840Y-69933278D02*
X149203602Y-70005659D01*
X149203602Y-70005659D02*
X149155983Y-70078039D01*
X150060745Y-71453278D02*
X150394078Y-69933278D01*
X150394078Y-69933278D02*
X150727411Y-71453278D01*
X147775031Y-67558544D02*
X147917888Y-67486163D01*
X147917888Y-67486163D02*
X148155983Y-67486163D01*
X148155983Y-67486163D02*
X148251221Y-67558544D01*
X148251221Y-67558544D02*
X148298840Y-67630924D01*
X148298840Y-67630924D02*
X148346459Y-67775686D01*
X148346459Y-67775686D02*
X148346459Y-67920448D01*
X148346459Y-67920448D02*
X148298840Y-68065210D01*
X148298840Y-68065210D02*
X148251221Y-68137591D01*
X148251221Y-68137591D02*
X148155983Y-68209972D01*
X148155983Y-68209972D02*
X147965507Y-68282353D01*
X147965507Y-68282353D02*
X147870269Y-68354734D01*
X147870269Y-68354734D02*
X147822650Y-68427115D01*
X147822650Y-68427115D02*
X147775031Y-68571877D01*
X147775031Y-68571877D02*
X147775031Y-68716639D01*
X147775031Y-68716639D02*
X147822650Y-68861401D01*
X147822650Y-68861401D02*
X147870269Y-68933782D01*
X147870269Y-68933782D02*
X147965507Y-69006163D01*
X147965507Y-69006163D02*
X148203602Y-69006163D01*
X148203602Y-69006163D02*
X148346459Y-68933782D01*
X149346459Y-67630924D02*
X149298840Y-67558544D01*
X149298840Y-67558544D02*
X149155983Y-67486163D01*
X149155983Y-67486163D02*
X149060745Y-67486163D01*
X149060745Y-67486163D02*
X148917888Y-67558544D01*
X148917888Y-67558544D02*
X148822650Y-67703305D01*
X148822650Y-67703305D02*
X148775031Y-67848067D01*
X148775031Y-67848067D02*
X148727412Y-68137591D01*
X148727412Y-68137591D02*
X148727412Y-68354734D01*
X148727412Y-68354734D02*
X148775031Y-68644258D01*
X148775031Y-68644258D02*
X148822650Y-68789020D01*
X148822650Y-68789020D02*
X148917888Y-68933782D01*
X148917888Y-68933782D02*
X149060745Y-69006163D01*
X149060745Y-69006163D02*
X149155983Y-69006163D01*
X149155983Y-69006163D02*
X149298840Y-68933782D01*
X149298840Y-68933782D02*
X149346459Y-68861401D01*
X149775031Y-67486163D02*
X149775031Y-69006163D01*
X150346459Y-67486163D02*
X149917888Y-68354734D01*
X150346459Y-69006163D02*
X149775031Y-68137591D01*
X148346459Y-66486667D02*
X148251221Y-66559048D01*
X148251221Y-66559048D02*
X148108364Y-66559048D01*
X148108364Y-66559048D02*
X147965507Y-66486667D01*
X147965507Y-66486667D02*
X147870269Y-66341905D01*
X147870269Y-66341905D02*
X147822650Y-66197143D01*
X147822650Y-66197143D02*
X147775031Y-65907619D01*
X147775031Y-65907619D02*
X147775031Y-65690476D01*
X147775031Y-65690476D02*
X147822650Y-65400952D01*
X147822650Y-65400952D02*
X147870269Y-65256190D01*
X147870269Y-65256190D02*
X147965507Y-65111429D01*
X147965507Y-65111429D02*
X148108364Y-65039048D01*
X148108364Y-65039048D02*
X148203602Y-65039048D01*
X148203602Y-65039048D02*
X148346459Y-65111429D01*
X148346459Y-65111429D02*
X148394078Y-65183809D01*
X148394078Y-65183809D02*
X148394078Y-65690476D01*
X148394078Y-65690476D02*
X148203602Y-65690476D01*
X148822650Y-65039048D02*
X148822650Y-66559048D01*
X148822650Y-66559048D02*
X149394078Y-65039048D01*
X149394078Y-65039048D02*
X149394078Y-66559048D01*
X149870269Y-65039048D02*
X149870269Y-66559048D01*
X149870269Y-66559048D02*
X150108364Y-66559048D01*
X150108364Y-66559048D02*
X150251221Y-66486667D01*
X150251221Y-66486667D02*
X150346459Y-66341905D01*
X150346459Y-66341905D02*
X150394078Y-66197143D01*
X150394078Y-66197143D02*
X150441697Y-65907619D01*
X150441697Y-65907619D02*
X150441697Y-65690476D01*
X150441697Y-65690476D02*
X150394078Y-65400952D01*
X150394078Y-65400952D02*
X150346459Y-65256190D01*
X150346459Y-65256190D02*
X150251221Y-65111429D01*
X150251221Y-65111429D02*
X150108364Y-65039048D01*
X150108364Y-65039048D02*
X149870269Y-65039048D01*
X147775031Y-62664314D02*
X147917888Y-62591933D01*
X147917888Y-62591933D02*
X148155983Y-62591933D01*
X148155983Y-62591933D02*
X148251221Y-62664314D01*
X148251221Y-62664314D02*
X148298840Y-62736694D01*
X148298840Y-62736694D02*
X148346459Y-62881456D01*
X148346459Y-62881456D02*
X148346459Y-63026218D01*
X148346459Y-63026218D02*
X148298840Y-63170980D01*
X148298840Y-63170980D02*
X148251221Y-63243361D01*
X148251221Y-63243361D02*
X148155983Y-63315742D01*
X148155983Y-63315742D02*
X147965507Y-63388123D01*
X147965507Y-63388123D02*
X147870269Y-63460504D01*
X147870269Y-63460504D02*
X147822650Y-63532885D01*
X147822650Y-63532885D02*
X147775031Y-63677647D01*
X147775031Y-63677647D02*
X147775031Y-63822409D01*
X147775031Y-63822409D02*
X147822650Y-63967171D01*
X147822650Y-63967171D02*
X147870269Y-64039552D01*
X147870269Y-64039552D02*
X147965507Y-64111933D01*
X147965507Y-64111933D02*
X148203602Y-64111933D01*
X148203602Y-64111933D02*
X148346459Y-64039552D01*
X148775031Y-62591933D02*
X148775031Y-64111933D01*
X148775031Y-64111933D02*
X149013126Y-64111933D01*
X149013126Y-64111933D02*
X149155983Y-64039552D01*
X149155983Y-64039552D02*
X149251221Y-63894790D01*
X149251221Y-63894790D02*
X149298840Y-63750028D01*
X149298840Y-63750028D02*
X149346459Y-63460504D01*
X149346459Y-63460504D02*
X149346459Y-63243361D01*
X149346459Y-63243361D02*
X149298840Y-62953837D01*
X149298840Y-62953837D02*
X149251221Y-62809075D01*
X149251221Y-62809075D02*
X149155983Y-62664314D01*
X149155983Y-62664314D02*
X149013126Y-62591933D01*
X149013126Y-62591933D02*
X148775031Y-62591933D01*
X149727412Y-63026218D02*
X150203602Y-63026218D01*
X149632174Y-62591933D02*
X149965507Y-64111933D01*
X149965507Y-64111933D02*
X150298840Y-62591933D01*
X147822650Y-61664818D02*
X147822650Y-60434341D01*
X147822650Y-60434341D02*
X147870269Y-60289579D01*
X147870269Y-60289579D02*
X147917888Y-60217199D01*
X147917888Y-60217199D02*
X148013126Y-60144818D01*
X148013126Y-60144818D02*
X148203602Y-60144818D01*
X148203602Y-60144818D02*
X148298840Y-60217199D01*
X148298840Y-60217199D02*
X148346459Y-60289579D01*
X148346459Y-60289579D02*
X148394078Y-60434341D01*
X148394078Y-60434341D02*
X148394078Y-61664818D01*
X148632174Y-60000056D02*
X149394078Y-60000056D01*
X149489317Y-61664818D02*
X150060745Y-61664818D01*
X149775031Y-60144818D02*
X149775031Y-61664818D01*
X150298841Y-61664818D02*
X150965507Y-60144818D01*
X150965507Y-61664818D02*
X150298841Y-60144818D01*
X147822650Y-59217703D02*
X147822650Y-57987226D01*
X147822650Y-57987226D02*
X147870269Y-57842464D01*
X147870269Y-57842464D02*
X147917888Y-57770084D01*
X147917888Y-57770084D02*
X148013126Y-57697703D01*
X148013126Y-57697703D02*
X148203602Y-57697703D01*
X148203602Y-57697703D02*
X148298840Y-57770084D01*
X148298840Y-57770084D02*
X148346459Y-57842464D01*
X148346459Y-57842464D02*
X148394078Y-57987226D01*
X148394078Y-57987226D02*
X148394078Y-59217703D01*
X148632174Y-57552941D02*
X149394078Y-57552941D01*
X150203602Y-57697703D02*
X149870269Y-58421512D01*
X149632174Y-57697703D02*
X149632174Y-59217703D01*
X149632174Y-59217703D02*
X150013126Y-59217703D01*
X150013126Y-59217703D02*
X150108364Y-59145322D01*
X150108364Y-59145322D02*
X150155983Y-59072941D01*
X150155983Y-59072941D02*
X150203602Y-58928179D01*
X150203602Y-58928179D02*
X150203602Y-58711036D01*
X150203602Y-58711036D02*
X150155983Y-58566274D01*
X150155983Y-58566274D02*
X150108364Y-58493893D01*
X150108364Y-58493893D02*
X150013126Y-58421512D01*
X150013126Y-58421512D02*
X149632174Y-58421512D01*
X150536936Y-59217703D02*
X151203602Y-57697703D01*
X151203602Y-59217703D02*
X150536936Y-57697703D01*
X148346459Y-56698207D02*
X148251221Y-56770588D01*
X148251221Y-56770588D02*
X148108364Y-56770588D01*
X148108364Y-56770588D02*
X147965507Y-56698207D01*
X147965507Y-56698207D02*
X147870269Y-56553445D01*
X147870269Y-56553445D02*
X147822650Y-56408683D01*
X147822650Y-56408683D02*
X147775031Y-56119159D01*
X147775031Y-56119159D02*
X147775031Y-55902016D01*
X147775031Y-55902016D02*
X147822650Y-55612492D01*
X147822650Y-55612492D02*
X147870269Y-55467730D01*
X147870269Y-55467730D02*
X147965507Y-55322969D01*
X147965507Y-55322969D02*
X148108364Y-55250588D01*
X148108364Y-55250588D02*
X148203602Y-55250588D01*
X148203602Y-55250588D02*
X148346459Y-55322969D01*
X148346459Y-55322969D02*
X148394078Y-55395349D01*
X148394078Y-55395349D02*
X148394078Y-55902016D01*
X148394078Y-55902016D02*
X148203602Y-55902016D01*
X148822650Y-55250588D02*
X148822650Y-56770588D01*
X148822650Y-56770588D02*
X149203602Y-56770588D01*
X149203602Y-56770588D02*
X149298840Y-56698207D01*
X149298840Y-56698207D02*
X149346459Y-56625826D01*
X149346459Y-56625826D02*
X149394078Y-56481064D01*
X149394078Y-56481064D02*
X149394078Y-56263921D01*
X149394078Y-56263921D02*
X149346459Y-56119159D01*
X149346459Y-56119159D02*
X149298840Y-56046778D01*
X149298840Y-56046778D02*
X149203602Y-55974397D01*
X149203602Y-55974397D02*
X148822650Y-55974397D01*
X149822650Y-55250588D02*
X149822650Y-56770588D01*
X150489316Y-56770588D02*
X150679792Y-56770588D01*
X150679792Y-56770588D02*
X150775030Y-56698207D01*
X150775030Y-56698207D02*
X150870268Y-56553445D01*
X150870268Y-56553445D02*
X150917887Y-56263921D01*
X150917887Y-56263921D02*
X150917887Y-55757254D01*
X150917887Y-55757254D02*
X150870268Y-55467730D01*
X150870268Y-55467730D02*
X150775030Y-55322969D01*
X150775030Y-55322969D02*
X150679792Y-55250588D01*
X150679792Y-55250588D02*
X150489316Y-55250588D01*
X150489316Y-55250588D02*
X150394078Y-55322969D01*
X150394078Y-55322969D02*
X150298840Y-55467730D01*
X150298840Y-55467730D02*
X150251221Y-55757254D01*
X150251221Y-55757254D02*
X150251221Y-56263921D01*
X150251221Y-56263921D02*
X150298840Y-56553445D01*
X150298840Y-56553445D02*
X150394078Y-56698207D01*
X150394078Y-56698207D02*
X150489316Y-56770588D01*
X151775030Y-56263921D02*
X151775030Y-55250588D01*
X151536935Y-56842969D02*
X151298840Y-55757254D01*
X151298840Y-55757254D02*
X151917887Y-55757254D01*
X152489316Y-56770588D02*
X152584554Y-56770588D01*
X152584554Y-56770588D02*
X152679792Y-56698207D01*
X152679792Y-56698207D02*
X152727411Y-56625826D01*
X152727411Y-56625826D02*
X152775030Y-56481064D01*
X152775030Y-56481064D02*
X152822649Y-56191540D01*
X152822649Y-56191540D02*
X152822649Y-55829635D01*
X152822649Y-55829635D02*
X152775030Y-55540111D01*
X152775030Y-55540111D02*
X152727411Y-55395349D01*
X152727411Y-55395349D02*
X152679792Y-55322969D01*
X152679792Y-55322969D02*
X152584554Y-55250588D01*
X152584554Y-55250588D02*
X152489316Y-55250588D01*
X152489316Y-55250588D02*
X152394078Y-55322969D01*
X152394078Y-55322969D02*
X152346459Y-55395349D01*
X152346459Y-55395349D02*
X152298840Y-55540111D01*
X152298840Y-55540111D02*
X152251221Y-55829635D01*
X152251221Y-55829635D02*
X152251221Y-56191540D01*
X152251221Y-56191540D02*
X152298840Y-56481064D01*
X152298840Y-56481064D02*
X152346459Y-56625826D01*
X152346459Y-56625826D02*
X152394078Y-56698207D01*
X152394078Y-56698207D02*
X152489316Y-56770588D01*
X148346459Y-54251092D02*
X148251221Y-54323473D01*
X148251221Y-54323473D02*
X148108364Y-54323473D01*
X148108364Y-54323473D02*
X147965507Y-54251092D01*
X147965507Y-54251092D02*
X147870269Y-54106330D01*
X147870269Y-54106330D02*
X147822650Y-53961568D01*
X147822650Y-53961568D02*
X147775031Y-53672044D01*
X147775031Y-53672044D02*
X147775031Y-53454901D01*
X147775031Y-53454901D02*
X147822650Y-53165377D01*
X147822650Y-53165377D02*
X147870269Y-53020615D01*
X147870269Y-53020615D02*
X147965507Y-52875854D01*
X147965507Y-52875854D02*
X148108364Y-52803473D01*
X148108364Y-52803473D02*
X148203602Y-52803473D01*
X148203602Y-52803473D02*
X148346459Y-52875854D01*
X148346459Y-52875854D02*
X148394078Y-52948234D01*
X148394078Y-52948234D02*
X148394078Y-53454901D01*
X148394078Y-53454901D02*
X148203602Y-53454901D01*
X148822650Y-52803473D02*
X148822650Y-54323473D01*
X148822650Y-54323473D02*
X149203602Y-54323473D01*
X149203602Y-54323473D02*
X149298840Y-54251092D01*
X149298840Y-54251092D02*
X149346459Y-54178711D01*
X149346459Y-54178711D02*
X149394078Y-54033949D01*
X149394078Y-54033949D02*
X149394078Y-53816806D01*
X149394078Y-53816806D02*
X149346459Y-53672044D01*
X149346459Y-53672044D02*
X149298840Y-53599663D01*
X149298840Y-53599663D02*
X149203602Y-53527282D01*
X149203602Y-53527282D02*
X148822650Y-53527282D01*
X149822650Y-52803473D02*
X149822650Y-54323473D01*
X150489316Y-54323473D02*
X150679792Y-54323473D01*
X150679792Y-54323473D02*
X150775030Y-54251092D01*
X150775030Y-54251092D02*
X150870268Y-54106330D01*
X150870268Y-54106330D02*
X150917887Y-53816806D01*
X150917887Y-53816806D02*
X150917887Y-53310139D01*
X150917887Y-53310139D02*
X150870268Y-53020615D01*
X150870268Y-53020615D02*
X150775030Y-52875854D01*
X150775030Y-52875854D02*
X150679792Y-52803473D01*
X150679792Y-52803473D02*
X150489316Y-52803473D01*
X150489316Y-52803473D02*
X150394078Y-52875854D01*
X150394078Y-52875854D02*
X150298840Y-53020615D01*
X150298840Y-53020615D02*
X150251221Y-53310139D01*
X150251221Y-53310139D02*
X150251221Y-53816806D01*
X150251221Y-53816806D02*
X150298840Y-54106330D01*
X150298840Y-54106330D02*
X150394078Y-54251092D01*
X150394078Y-54251092D02*
X150489316Y-54323473D01*
X151775030Y-53816806D02*
X151775030Y-52803473D01*
X151536935Y-54395854D02*
X151298840Y-53310139D01*
X151298840Y-53310139D02*
X151917887Y-53310139D01*
X152822649Y-52803473D02*
X152251221Y-52803473D01*
X152536935Y-52803473D02*
X152536935Y-54323473D01*
X152536935Y-54323473D02*
X152441697Y-54106330D01*
X152441697Y-54106330D02*
X152346459Y-53961568D01*
X152346459Y-53961568D02*
X152251221Y-53889187D01*
X148346459Y-51803977D02*
X148251221Y-51876358D01*
X148251221Y-51876358D02*
X148108364Y-51876358D01*
X148108364Y-51876358D02*
X147965507Y-51803977D01*
X147965507Y-51803977D02*
X147870269Y-51659215D01*
X147870269Y-51659215D02*
X147822650Y-51514453D01*
X147822650Y-51514453D02*
X147775031Y-51224929D01*
X147775031Y-51224929D02*
X147775031Y-51007786D01*
X147775031Y-51007786D02*
X147822650Y-50718262D01*
X147822650Y-50718262D02*
X147870269Y-50573500D01*
X147870269Y-50573500D02*
X147965507Y-50428739D01*
X147965507Y-50428739D02*
X148108364Y-50356358D01*
X148108364Y-50356358D02*
X148203602Y-50356358D01*
X148203602Y-50356358D02*
X148346459Y-50428739D01*
X148346459Y-50428739D02*
X148394078Y-50501119D01*
X148394078Y-50501119D02*
X148394078Y-51007786D01*
X148394078Y-51007786D02*
X148203602Y-51007786D01*
X148822650Y-50356358D02*
X148822650Y-51876358D01*
X148822650Y-51876358D02*
X149203602Y-51876358D01*
X149203602Y-51876358D02*
X149298840Y-51803977D01*
X149298840Y-51803977D02*
X149346459Y-51731596D01*
X149346459Y-51731596D02*
X149394078Y-51586834D01*
X149394078Y-51586834D02*
X149394078Y-51369691D01*
X149394078Y-51369691D02*
X149346459Y-51224929D01*
X149346459Y-51224929D02*
X149298840Y-51152548D01*
X149298840Y-51152548D02*
X149203602Y-51080167D01*
X149203602Y-51080167D02*
X148822650Y-51080167D01*
X149822650Y-50356358D02*
X149822650Y-51876358D01*
X150489316Y-51876358D02*
X150679792Y-51876358D01*
X150679792Y-51876358D02*
X150775030Y-51803977D01*
X150775030Y-51803977D02*
X150870268Y-51659215D01*
X150870268Y-51659215D02*
X150917887Y-51369691D01*
X150917887Y-51369691D02*
X150917887Y-50863024D01*
X150917887Y-50863024D02*
X150870268Y-50573500D01*
X150870268Y-50573500D02*
X150775030Y-50428739D01*
X150775030Y-50428739D02*
X150679792Y-50356358D01*
X150679792Y-50356358D02*
X150489316Y-50356358D01*
X150489316Y-50356358D02*
X150394078Y-50428739D01*
X150394078Y-50428739D02*
X150298840Y-50573500D01*
X150298840Y-50573500D02*
X150251221Y-50863024D01*
X150251221Y-50863024D02*
X150251221Y-51369691D01*
X150251221Y-51369691D02*
X150298840Y-51659215D01*
X150298840Y-51659215D02*
X150394078Y-51803977D01*
X150394078Y-51803977D02*
X150489316Y-51876358D01*
X151251221Y-51876358D02*
X151870268Y-51876358D01*
X151870268Y-51876358D02*
X151536935Y-51297310D01*
X151536935Y-51297310D02*
X151679792Y-51297310D01*
X151679792Y-51297310D02*
X151775030Y-51224929D01*
X151775030Y-51224929D02*
X151822649Y-51152548D01*
X151822649Y-51152548D02*
X151870268Y-51007786D01*
X151870268Y-51007786D02*
X151870268Y-50645881D01*
X151870268Y-50645881D02*
X151822649Y-50501119D01*
X151822649Y-50501119D02*
X151775030Y-50428739D01*
X151775030Y-50428739D02*
X151679792Y-50356358D01*
X151679792Y-50356358D02*
X151394078Y-50356358D01*
X151394078Y-50356358D02*
X151298840Y-50428739D01*
X151298840Y-50428739D02*
X151251221Y-50501119D01*
X152822649Y-50356358D02*
X152251221Y-50356358D01*
X152536935Y-50356358D02*
X152536935Y-51876358D01*
X152536935Y-51876358D02*
X152441697Y-51659215D01*
X152441697Y-51659215D02*
X152346459Y-51514453D01*
X152346459Y-51514453D02*
X152251221Y-51442072D01*
X148346459Y-49356862D02*
X148251221Y-49429243D01*
X148251221Y-49429243D02*
X148108364Y-49429243D01*
X148108364Y-49429243D02*
X147965507Y-49356862D01*
X147965507Y-49356862D02*
X147870269Y-49212100D01*
X147870269Y-49212100D02*
X147822650Y-49067338D01*
X147822650Y-49067338D02*
X147775031Y-48777814D01*
X147775031Y-48777814D02*
X147775031Y-48560671D01*
X147775031Y-48560671D02*
X147822650Y-48271147D01*
X147822650Y-48271147D02*
X147870269Y-48126385D01*
X147870269Y-48126385D02*
X147965507Y-47981624D01*
X147965507Y-47981624D02*
X148108364Y-47909243D01*
X148108364Y-47909243D02*
X148203602Y-47909243D01*
X148203602Y-47909243D02*
X148346459Y-47981624D01*
X148346459Y-47981624D02*
X148394078Y-48054004D01*
X148394078Y-48054004D02*
X148394078Y-48560671D01*
X148394078Y-48560671D02*
X148203602Y-48560671D01*
X148822650Y-47909243D02*
X148822650Y-49429243D01*
X148822650Y-49429243D02*
X149394078Y-47909243D01*
X149394078Y-47909243D02*
X149394078Y-49429243D01*
X149870269Y-47909243D02*
X149870269Y-49429243D01*
X149870269Y-49429243D02*
X150108364Y-49429243D01*
X150108364Y-49429243D02*
X150251221Y-49356862D01*
X150251221Y-49356862D02*
X150346459Y-49212100D01*
X150346459Y-49212100D02*
X150394078Y-49067338D01*
X150394078Y-49067338D02*
X150441697Y-48777814D01*
X150441697Y-48777814D02*
X150441697Y-48560671D01*
X150441697Y-48560671D02*
X150394078Y-48271147D01*
X150394078Y-48271147D02*
X150346459Y-48126385D01*
X150346459Y-48126385D02*
X150251221Y-47981624D01*
X150251221Y-47981624D02*
X150108364Y-47909243D01*
X150108364Y-47909243D02*
X149870269Y-47909243D01*
D12*
X116373095Y-110542580D02*
X116373095Y-109733057D01*
X116373095Y-109733057D02*
X116420714Y-109637819D01*
X116420714Y-109637819D02*
X116468333Y-109590200D01*
X116468333Y-109590200D02*
X116563571Y-109542580D01*
X116563571Y-109542580D02*
X116754047Y-109542580D01*
X116754047Y-109542580D02*
X116849285Y-109590200D01*
X116849285Y-109590200D02*
X116896904Y-109637819D01*
X116896904Y-109637819D02*
X116944523Y-109733057D01*
X116944523Y-109733057D02*
X116944523Y-110542580D01*
X117373095Y-110447342D02*
X117420714Y-110494961D01*
X117420714Y-110494961D02*
X117515952Y-110542580D01*
X117515952Y-110542580D02*
X117754047Y-110542580D01*
X117754047Y-110542580D02*
X117849285Y-110494961D01*
X117849285Y-110494961D02*
X117896904Y-110447342D01*
X117896904Y-110447342D02*
X117944523Y-110352104D01*
X117944523Y-110352104D02*
X117944523Y-110256866D01*
X117944523Y-110256866D02*
X117896904Y-110114009D01*
X117896904Y-110114009D02*
X117325476Y-109542580D01*
X117325476Y-109542580D02*
X117944523Y-109542580D01*
D10*
X111802219Y-107669673D02*
X110802219Y-107669673D01*
X110802219Y-107669673D02*
X111802219Y-108241101D01*
X111802219Y-108241101D02*
X110802219Y-108241101D01*
X122467780Y-108130326D02*
X123467780Y-108130326D01*
X123467780Y-108130326D02*
X123467780Y-107749374D01*
X123467780Y-107749374D02*
X123420161Y-107654136D01*
X123420161Y-107654136D02*
X123372542Y-107606517D01*
X123372542Y-107606517D02*
X123277304Y-107558898D01*
X123277304Y-107558898D02*
X123134447Y-107558898D01*
X123134447Y-107558898D02*
X123039209Y-107606517D01*
X123039209Y-107606517D02*
X122991590Y-107654136D01*
X122991590Y-107654136D02*
X122943971Y-107749374D01*
X122943971Y-107749374D02*
X122943971Y-108130326D01*
X122467780Y-111230326D02*
X123467780Y-111230326D01*
X123467780Y-111230326D02*
X122467780Y-110658898D01*
X122467780Y-110658898D02*
X123467780Y-110658898D01*
X111802219Y-110769673D02*
X110802219Y-110769673D01*
X110802219Y-110769673D02*
X110802219Y-111150625D01*
X110802219Y-111150625D02*
X110849838Y-111245863D01*
X110849838Y-111245863D02*
X110897457Y-111293482D01*
X110897457Y-111293482D02*
X110992695Y-111341101D01*
X110992695Y-111341101D02*
X111135552Y-111341101D01*
X111135552Y-111341101D02*
X111230790Y-111293482D01*
X111230790Y-111293482D02*
X111278409Y-111245863D01*
X111278409Y-111245863D02*
X111326028Y-111150625D01*
X111326028Y-111150625D02*
X111326028Y-110769673D01*
D12*
X116373095Y-45542580D02*
X116373095Y-44733057D01*
X116373095Y-44733057D02*
X116420714Y-44637819D01*
X116420714Y-44637819D02*
X116468333Y-44590200D01*
X116468333Y-44590200D02*
X116563571Y-44542580D01*
X116563571Y-44542580D02*
X116754047Y-44542580D01*
X116754047Y-44542580D02*
X116849285Y-44590200D01*
X116849285Y-44590200D02*
X116896904Y-44637819D01*
X116896904Y-44637819D02*
X116944523Y-44733057D01*
X116944523Y-44733057D02*
X116944523Y-45542580D01*
X117325476Y-45542580D02*
X117944523Y-45542580D01*
X117944523Y-45542580D02*
X117611190Y-45161628D01*
X117611190Y-45161628D02*
X117754047Y-45161628D01*
X117754047Y-45161628D02*
X117849285Y-45114009D01*
X117849285Y-45114009D02*
X117896904Y-45066390D01*
X117896904Y-45066390D02*
X117944523Y-44971152D01*
X117944523Y-44971152D02*
X117944523Y-44733057D01*
X117944523Y-44733057D02*
X117896904Y-44637819D01*
X117896904Y-44637819D02*
X117849285Y-44590200D01*
X117849285Y-44590200D02*
X117754047Y-44542580D01*
X117754047Y-44542580D02*
X117468333Y-44542580D01*
X117468333Y-44542580D02*
X117373095Y-44590200D01*
X117373095Y-44590200D02*
X117325476Y-44637819D01*
D10*
X111802219Y-45769673D02*
X110802219Y-45769673D01*
X110802219Y-45769673D02*
X110802219Y-46150625D01*
X110802219Y-46150625D02*
X110849838Y-46245863D01*
X110849838Y-46245863D02*
X110897457Y-46293482D01*
X110897457Y-46293482D02*
X110992695Y-46341101D01*
X110992695Y-46341101D02*
X111135552Y-46341101D01*
X111135552Y-46341101D02*
X111230790Y-46293482D01*
X111230790Y-46293482D02*
X111278409Y-46245863D01*
X111278409Y-46245863D02*
X111326028Y-46150625D01*
X111326028Y-46150625D02*
X111326028Y-45769673D01*
X122467780Y-43130326D02*
X123467780Y-43130326D01*
X123467780Y-43130326D02*
X123467780Y-42749374D01*
X123467780Y-42749374D02*
X123420161Y-42654136D01*
X123420161Y-42654136D02*
X123372542Y-42606517D01*
X123372542Y-42606517D02*
X123277304Y-42558898D01*
X123277304Y-42558898D02*
X123134447Y-42558898D01*
X123134447Y-42558898D02*
X123039209Y-42606517D01*
X123039209Y-42606517D02*
X122991590Y-42654136D01*
X122991590Y-42654136D02*
X122943971Y-42749374D01*
X122943971Y-42749374D02*
X122943971Y-43130326D01*
X111802219Y-42669673D02*
X110802219Y-42669673D01*
X110802219Y-42669673D02*
X111802219Y-43241101D01*
X111802219Y-43241101D02*
X110802219Y-43241101D01*
X122467780Y-46230326D02*
X123467780Y-46230326D01*
X123467780Y-46230326D02*
X122467780Y-45658898D01*
X122467780Y-45658898D02*
X123467780Y-45658898D01*
M02*
