%TF.GenerationSoftware,KiCad,Pcbnew,9.0.2*%
%TF.CreationDate,2025-06-25T22:54:11+10:00*%
%TF.ProjectId,F0-uConsole,46302d75-436f-46e7-936f-6c652e6b6963,rev?*%
%TF.SameCoordinates,Original*%
%TF.FileFunction,Soldermask,Bot*%
%TF.FilePolarity,Negative*%
%FSLAX46Y46*%
G04 Gerber Fmt 4.6, Leading zero omitted, Abs format (unit mm)*
G04 Created by KiCad (PCBNEW 9.0.2) date 2025-06-25 22:54:11*
%MOMM*%
%LPD*%
G01*
G04 APERTURE LIST*
G04 Aperture macros list*
%AMRoundRect*
0 Rectangle with rounded corners*
0 $1 Rounding radius*
0 $2 $3 $4 $5 $6 $7 $8 $9 X,Y pos of 4 corners*
0 Add a 4 corners polygon primitive as box body*
4,1,4,$2,$3,$4,$5,$6,$7,$8,$9,$2,$3,0*
0 Add four circle primitives for the rounded corners*
1,1,$1+$1,$2,$3*
1,1,$1+$1,$4,$5*
1,1,$1+$1,$6,$7*
1,1,$1+$1,$8,$9*
0 Add four rect primitives between the rounded corners*
20,1,$1+$1,$2,$3,$4,$5,0*
20,1,$1+$1,$4,$5,$6,$7,0*
20,1,$1+$1,$6,$7,$8,$9,0*
20,1,$1+$1,$8,$9,$2,$3,0*%
G04 Aperture macros list end*
%ADD10R,1.700000X1.700000*%
%ADD11C,1.700000*%
%ADD12R,2.350000X0.600000*%
%ADD13C,5.300000*%
%ADD14RoundRect,0.250000X-0.250000X-0.750000X0.250000X-0.750000X0.250000X0.750000X-0.250000X0.750000X0*%
G04 APERTURE END LIST*
D10*
%TO.C,J5*%
X119680000Y-93400000D03*
D11*
X122220000Y-93400000D03*
X124760000Y-93400000D03*
X127300000Y-93400000D03*
%TD*%
D10*
%TO.C,J3*%
X143440164Y-71322884D03*
D11*
X143440164Y-68782884D03*
X143440164Y-66242884D03*
X143440164Y-63702884D03*
X143440164Y-61162884D03*
X143440164Y-58622884D03*
X143440164Y-56082884D03*
X143440164Y-53542884D03*
X143440164Y-51002884D03*
X143440164Y-48462884D03*
%TD*%
D12*
%TO.C,J1*%
X104010000Y-65600000D03*
X104010000Y-66400000D03*
X104010000Y-67200000D03*
X104010000Y-68000000D03*
X104010000Y-68800000D03*
X104010000Y-69600000D03*
X104010000Y-70400000D03*
X104010000Y-71200000D03*
X104010000Y-75200000D03*
X104010000Y-76000000D03*
X104010000Y-76800000D03*
X104010000Y-77600000D03*
X104010000Y-78400000D03*
X104010000Y-79200000D03*
X104010000Y-80000000D03*
X104010000Y-80800000D03*
X104010000Y-81600000D03*
X104010000Y-82400000D03*
X104010000Y-83200000D03*
X104010000Y-84000000D03*
X104010000Y-84800000D03*
X104010000Y-85600000D03*
X104010000Y-86400000D03*
X104010000Y-87200000D03*
X104010000Y-88000000D03*
X104010000Y-88800000D03*
%TD*%
D10*
%TO.C,J4*%
X118280000Y-52900000D03*
D11*
X120820000Y-52900000D03*
X123360000Y-52900000D03*
X125900000Y-52900000D03*
%TD*%
D13*
%TO.C,H1*%
X130639761Y-44467158D03*
%TD*%
D10*
%TO.C,J2*%
X143440164Y-106822884D03*
D11*
X143440164Y-104282884D03*
X143440164Y-101742884D03*
X143440164Y-99202884D03*
X143440164Y-96662884D03*
X143440164Y-94122884D03*
X143440164Y-91582884D03*
X143440164Y-89042884D03*
%TD*%
D13*
%TO.C,H2*%
X130639761Y-109467158D03*
%TD*%
D14*
%TO.C,U2*%
X109750000Y-111000000D03*
X109750000Y-108000000D03*
X124520000Y-108000000D03*
X124520000Y-111000000D03*
%TD*%
%TO.C,U3*%
X109750000Y-46000000D03*
X109750000Y-43000000D03*
X124520000Y-43000000D03*
X124520000Y-46000000D03*
%TD*%
M02*
