M48
; DRILL file {KiCad 9.0.2} date 2025-06-12T09:01:29+1000
; FORMAT={-:-/ absolute / metric / decimal}
; #@! TF.CreationDate,2025-06-12T09:01:29+10:00
; #@! TF.GenerationSoftware,Kicad,Pcbnew,9.0.2
; #@! TF.FileFunction,Plated,1,2,PTH
FMAT,2
METRIC
; #@! TA.AperFunction,Plated,PTH,ViaDrill
T1C0.300
; #@! TA.AperFunction,Plated,PTH,ComponentDrill
T2C1.000
%
G90
G05
T1
X106.8Y-88.05
X106.85Y-74.8
X107.0Y-65.6
X107.137Y-75.547
X108.2Y-67.6
X108.2Y-73.15
X108.2Y-87.5
X108.8Y-68.4
X108.8Y-73.95
X108.8Y-86.75
X109.7Y-70.0
X109.7Y-73.15
X109.7Y-87.65
X110.3Y-70.8
X110.3Y-73.95
X110.3Y-86.7
X111.1Y-73.2
X111.651Y-78.401
X111.75Y-69.2
X111.85Y-74.8
X111.936Y-75.736
X112.0Y-84.8
X112.75Y-85.449
X113.05Y-78.3
X113.3Y-75.8
X113.55Y-86.95
X113.65Y-79.05
X114.45Y-87.75
X133.7Y-68.35
X135.05Y-66.45
X136.451Y-63.85
X137.5Y-62.0
X142.05Y-74.8
X142.65Y-95.95
X142.751Y-93.599
T2
X111.68Y-102.25
X111.68Y-104.79
X111.68Y-107.33
X111.68Y-109.87
X118.78Y-102.21
X118.78Y-104.75
X118.78Y-107.29
X118.78Y-109.83
X148.28Y-48.389
X148.28Y-50.929
X148.28Y-53.469
X148.28Y-56.009
X148.28Y-58.549
X148.28Y-61.089
X148.28Y-63.629
X148.28Y-66.169
X148.28Y-83.889
X148.28Y-86.429
X148.28Y-88.969
X148.28Y-91.509
X148.28Y-94.049
X148.28Y-96.589
X148.28Y-99.129
X148.28Y-101.669
X148.28Y-104.209
X148.28Y-106.749
M30
