%TF.GenerationSoftware,KiCad,Pcbnew,9.0.2*%
%TF.CreationDate,2025-06-25T22:54:11+10:00*%
%TF.ProjectId,F0-uConsole,46302d75-436f-46e7-936f-6c652e6b6963,rev?*%
%TF.SameCoordinates,Original*%
%TF.FileFunction,Legend,Top*%
%TF.FilePolarity,Positive*%
%FSLAX46Y46*%
G04 Gerber Fmt 4.6, Leading zero omitted, Abs format (unit mm)*
G04 Created by KiCad (PCBNEW 9.0.2) date 2025-06-25 22:54:11*
%MOMM*%
%LPD*%
G01*
G04 APERTURE LIST*
%ADD10C,0.250000*%
%ADD11C,0.150000*%
%ADD12C,0.100000*%
%ADD13C,0.120000*%
G04 APERTURE END LIST*
D10*
X117639635Y-56021241D02*
X117639635Y-56497431D01*
X117639635Y-56497431D02*
X118363445Y-56545050D01*
X118363445Y-56545050D02*
X118291064Y-56497431D01*
X118291064Y-56497431D02*
X118218683Y-56402193D01*
X118218683Y-56402193D02*
X118218683Y-56164098D01*
X118218683Y-56164098D02*
X118291064Y-56068860D01*
X118291064Y-56068860D02*
X118363445Y-56021241D01*
X118363445Y-56021241D02*
X118508207Y-55973622D01*
X118508207Y-55973622D02*
X118870112Y-55973622D01*
X118870112Y-55973622D02*
X119014874Y-56021241D01*
X119014874Y-56021241D02*
X119087255Y-56068860D01*
X119087255Y-56068860D02*
X119159635Y-56164098D01*
X119159635Y-56164098D02*
X119159635Y-56402193D01*
X119159635Y-56402193D02*
X119087255Y-56497431D01*
X119087255Y-56497431D02*
X119014874Y-56545050D01*
X117639635Y-55687907D02*
X119159635Y-55354574D01*
X119159635Y-55354574D02*
X117639635Y-55021241D01*
X121606750Y-56497431D02*
X120086750Y-56497431D01*
X120086750Y-56497431D02*
X120086750Y-56259336D01*
X120086750Y-56259336D02*
X120159131Y-56116479D01*
X120159131Y-56116479D02*
X120303893Y-56021241D01*
X120303893Y-56021241D02*
X120448655Y-55973622D01*
X120448655Y-55973622D02*
X120738179Y-55926003D01*
X120738179Y-55926003D02*
X120955322Y-55926003D01*
X120955322Y-55926003D02*
X121244846Y-55973622D01*
X121244846Y-55973622D02*
X121389608Y-56021241D01*
X121389608Y-56021241D02*
X121534370Y-56116479D01*
X121534370Y-56116479D02*
X121606750Y-56259336D01*
X121606750Y-56259336D02*
X121606750Y-56497431D01*
X121027703Y-55497431D02*
X121027703Y-54735527D01*
X124053865Y-56497431D02*
X122533865Y-56497431D01*
X122533865Y-56497431D02*
X122533865Y-56259336D01*
X122533865Y-56259336D02*
X122606246Y-56116479D01*
X122606246Y-56116479D02*
X122751008Y-56021241D01*
X122751008Y-56021241D02*
X122895770Y-55973622D01*
X122895770Y-55973622D02*
X123185294Y-55926003D01*
X123185294Y-55926003D02*
X123402437Y-55926003D01*
X123402437Y-55926003D02*
X123691961Y-55973622D01*
X123691961Y-55973622D02*
X123836723Y-56021241D01*
X123836723Y-56021241D02*
X123981485Y-56116479D01*
X123981485Y-56116479D02*
X124053865Y-56259336D01*
X124053865Y-56259336D02*
X124053865Y-56497431D01*
X123474818Y-55497431D02*
X123474818Y-54735527D01*
X124053865Y-55116479D02*
X122895770Y-55116479D01*
X125053361Y-55973622D02*
X124980980Y-56068860D01*
X124980980Y-56068860D02*
X124980980Y-56211717D01*
X124980980Y-56211717D02*
X125053361Y-56354574D01*
X125053361Y-56354574D02*
X125198123Y-56449812D01*
X125198123Y-56449812D02*
X125342885Y-56497431D01*
X125342885Y-56497431D02*
X125632409Y-56545050D01*
X125632409Y-56545050D02*
X125849552Y-56545050D01*
X125849552Y-56545050D02*
X126139076Y-56497431D01*
X126139076Y-56497431D02*
X126283838Y-56449812D01*
X126283838Y-56449812D02*
X126428600Y-56354574D01*
X126428600Y-56354574D02*
X126500980Y-56211717D01*
X126500980Y-56211717D02*
X126500980Y-56116479D01*
X126500980Y-56116479D02*
X126428600Y-55973622D01*
X126428600Y-55973622D02*
X126356219Y-55926003D01*
X126356219Y-55926003D02*
X125849552Y-55926003D01*
X125849552Y-55926003D02*
X125849552Y-56116479D01*
X128340980Y-54367431D02*
X129571457Y-54367431D01*
X129571457Y-54367431D02*
X129716219Y-54319812D01*
X129716219Y-54319812D02*
X129788600Y-54272193D01*
X129788600Y-54272193D02*
X129860980Y-54176955D01*
X129860980Y-54176955D02*
X129860980Y-53986479D01*
X129860980Y-53986479D02*
X129788600Y-53891241D01*
X129788600Y-53891241D02*
X129716219Y-53843622D01*
X129716219Y-53843622D02*
X129571457Y-53796003D01*
X129571457Y-53796003D02*
X128340980Y-53796003D01*
X129788600Y-53367431D02*
X129860980Y-53224574D01*
X129860980Y-53224574D02*
X129860980Y-52986479D01*
X129860980Y-52986479D02*
X129788600Y-52891241D01*
X129788600Y-52891241D02*
X129716219Y-52843622D01*
X129716219Y-52843622D02*
X129571457Y-52796003D01*
X129571457Y-52796003D02*
X129426695Y-52796003D01*
X129426695Y-52796003D02*
X129281933Y-52843622D01*
X129281933Y-52843622D02*
X129209552Y-52891241D01*
X129209552Y-52891241D02*
X129137171Y-52986479D01*
X129137171Y-52986479D02*
X129064790Y-53176955D01*
X129064790Y-53176955D02*
X128992409Y-53272193D01*
X128992409Y-53272193D02*
X128920028Y-53319812D01*
X128920028Y-53319812D02*
X128775266Y-53367431D01*
X128775266Y-53367431D02*
X128630504Y-53367431D01*
X128630504Y-53367431D02*
X128485742Y-53319812D01*
X128485742Y-53319812D02*
X128413361Y-53272193D01*
X128413361Y-53272193D02*
X128340980Y-53176955D01*
X128340980Y-53176955D02*
X128340980Y-52938860D01*
X128340980Y-52938860D02*
X128413361Y-52796003D01*
X129064790Y-52034098D02*
X129137171Y-51891241D01*
X129137171Y-51891241D02*
X129209552Y-51843622D01*
X129209552Y-51843622D02*
X129354314Y-51796003D01*
X129354314Y-51796003D02*
X129571457Y-51796003D01*
X129571457Y-51796003D02*
X129716219Y-51843622D01*
X129716219Y-51843622D02*
X129788600Y-51891241D01*
X129788600Y-51891241D02*
X129860980Y-51986479D01*
X129860980Y-51986479D02*
X129860980Y-52367431D01*
X129860980Y-52367431D02*
X128340980Y-52367431D01*
X128340980Y-52367431D02*
X128340980Y-52034098D01*
X128340980Y-52034098D02*
X128413361Y-51938860D01*
X128413361Y-51938860D02*
X128485742Y-51891241D01*
X128485742Y-51891241D02*
X128630504Y-51843622D01*
X128630504Y-51843622D02*
X128775266Y-51843622D01*
X128775266Y-51843622D02*
X128920028Y-51891241D01*
X128920028Y-51891241D02*
X128992409Y-51938860D01*
X128992409Y-51938860D02*
X129064790Y-52034098D01*
X129064790Y-52034098D02*
X129064790Y-52367431D01*
X128340980Y-51462669D02*
X128340980Y-50843622D01*
X128340980Y-50843622D02*
X128920028Y-51176955D01*
X128920028Y-51176955D02*
X128920028Y-51034098D01*
X128920028Y-51034098D02*
X128992409Y-50938860D01*
X128992409Y-50938860D02*
X129064790Y-50891241D01*
X129064790Y-50891241D02*
X129209552Y-50843622D01*
X129209552Y-50843622D02*
X129571457Y-50843622D01*
X129571457Y-50843622D02*
X129716219Y-50891241D01*
X129716219Y-50891241D02*
X129788600Y-50938860D01*
X129788600Y-50938860D02*
X129860980Y-51034098D01*
X129860980Y-51034098D02*
X129860980Y-51319812D01*
X129860980Y-51319812D02*
X129788600Y-51415050D01*
X129788600Y-51415050D02*
X129716219Y-51462669D01*
X118946302Y-81685715D02*
X119959635Y-81685715D01*
X118946302Y-82114286D02*
X119742493Y-82114286D01*
X119742493Y-82114286D02*
X119887255Y-82066667D01*
X119887255Y-82066667D02*
X119959635Y-81971429D01*
X119959635Y-81971429D02*
X119959635Y-81828572D01*
X119959635Y-81828572D02*
X119887255Y-81733334D01*
X119887255Y-81733334D02*
X119814874Y-81685715D01*
X119814874Y-80638096D02*
X119887255Y-80685715D01*
X119887255Y-80685715D02*
X119959635Y-80828572D01*
X119959635Y-80828572D02*
X119959635Y-80923810D01*
X119959635Y-80923810D02*
X119887255Y-81066667D01*
X119887255Y-81066667D02*
X119742493Y-81161905D01*
X119742493Y-81161905D02*
X119597731Y-81209524D01*
X119597731Y-81209524D02*
X119308207Y-81257143D01*
X119308207Y-81257143D02*
X119091064Y-81257143D01*
X119091064Y-81257143D02*
X118801540Y-81209524D01*
X118801540Y-81209524D02*
X118656778Y-81161905D01*
X118656778Y-81161905D02*
X118512016Y-81066667D01*
X118512016Y-81066667D02*
X118439635Y-80923810D01*
X118439635Y-80923810D02*
X118439635Y-80828572D01*
X118439635Y-80828572D02*
X118512016Y-80685715D01*
X118512016Y-80685715D02*
X118584397Y-80638096D01*
X119959635Y-80066667D02*
X119887255Y-80161905D01*
X119887255Y-80161905D02*
X119814874Y-80209524D01*
X119814874Y-80209524D02*
X119670112Y-80257143D01*
X119670112Y-80257143D02*
X119235826Y-80257143D01*
X119235826Y-80257143D02*
X119091064Y-80209524D01*
X119091064Y-80209524D02*
X119018683Y-80161905D01*
X119018683Y-80161905D02*
X118946302Y-80066667D01*
X118946302Y-80066667D02*
X118946302Y-79923810D01*
X118946302Y-79923810D02*
X119018683Y-79828572D01*
X119018683Y-79828572D02*
X119091064Y-79780953D01*
X119091064Y-79780953D02*
X119235826Y-79733334D01*
X119235826Y-79733334D02*
X119670112Y-79733334D01*
X119670112Y-79733334D02*
X119814874Y-79780953D01*
X119814874Y-79780953D02*
X119887255Y-79828572D01*
X119887255Y-79828572D02*
X119959635Y-79923810D01*
X119959635Y-79923810D02*
X119959635Y-80066667D01*
X118946302Y-79304762D02*
X119959635Y-79304762D01*
X119091064Y-79304762D02*
X119018683Y-79257143D01*
X119018683Y-79257143D02*
X118946302Y-79161905D01*
X118946302Y-79161905D02*
X118946302Y-79019048D01*
X118946302Y-79019048D02*
X119018683Y-78923810D01*
X119018683Y-78923810D02*
X119163445Y-78876191D01*
X119163445Y-78876191D02*
X119959635Y-78876191D01*
X119887255Y-78447619D02*
X119959635Y-78352381D01*
X119959635Y-78352381D02*
X119959635Y-78161905D01*
X119959635Y-78161905D02*
X119887255Y-78066667D01*
X119887255Y-78066667D02*
X119742493Y-78019048D01*
X119742493Y-78019048D02*
X119670112Y-78019048D01*
X119670112Y-78019048D02*
X119525350Y-78066667D01*
X119525350Y-78066667D02*
X119452969Y-78161905D01*
X119452969Y-78161905D02*
X119452969Y-78304762D01*
X119452969Y-78304762D02*
X119380588Y-78400000D01*
X119380588Y-78400000D02*
X119235826Y-78447619D01*
X119235826Y-78447619D02*
X119163445Y-78447619D01*
X119163445Y-78447619D02*
X119018683Y-78400000D01*
X119018683Y-78400000D02*
X118946302Y-78304762D01*
X118946302Y-78304762D02*
X118946302Y-78161905D01*
X118946302Y-78161905D02*
X119018683Y-78066667D01*
X119959635Y-77447619D02*
X119887255Y-77542857D01*
X119887255Y-77542857D02*
X119814874Y-77590476D01*
X119814874Y-77590476D02*
X119670112Y-77638095D01*
X119670112Y-77638095D02*
X119235826Y-77638095D01*
X119235826Y-77638095D02*
X119091064Y-77590476D01*
X119091064Y-77590476D02*
X119018683Y-77542857D01*
X119018683Y-77542857D02*
X118946302Y-77447619D01*
X118946302Y-77447619D02*
X118946302Y-77304762D01*
X118946302Y-77304762D02*
X119018683Y-77209524D01*
X119018683Y-77209524D02*
X119091064Y-77161905D01*
X119091064Y-77161905D02*
X119235826Y-77114286D01*
X119235826Y-77114286D02*
X119670112Y-77114286D01*
X119670112Y-77114286D02*
X119814874Y-77161905D01*
X119814874Y-77161905D02*
X119887255Y-77209524D01*
X119887255Y-77209524D02*
X119959635Y-77304762D01*
X119959635Y-77304762D02*
X119959635Y-77447619D01*
X119959635Y-76542857D02*
X119887255Y-76638095D01*
X119887255Y-76638095D02*
X119742493Y-76685714D01*
X119742493Y-76685714D02*
X118439635Y-76685714D01*
X119887255Y-75780952D02*
X119959635Y-75876190D01*
X119959635Y-75876190D02*
X119959635Y-76066666D01*
X119959635Y-76066666D02*
X119887255Y-76161904D01*
X119887255Y-76161904D02*
X119742493Y-76209523D01*
X119742493Y-76209523D02*
X119163445Y-76209523D01*
X119163445Y-76209523D02*
X119018683Y-76161904D01*
X119018683Y-76161904D02*
X118946302Y-76066666D01*
X118946302Y-76066666D02*
X118946302Y-75876190D01*
X118946302Y-75876190D02*
X119018683Y-75780952D01*
X119018683Y-75780952D02*
X119163445Y-75733333D01*
X119163445Y-75733333D02*
X119308207Y-75733333D01*
X119308207Y-75733333D02*
X119452969Y-76209523D01*
X118946302Y-74685713D02*
X118946302Y-74304761D01*
X118439635Y-74542856D02*
X119742493Y-74542856D01*
X119742493Y-74542856D02*
X119887255Y-74495237D01*
X119887255Y-74495237D02*
X119959635Y-74399999D01*
X119959635Y-74399999D02*
X119959635Y-74304761D01*
X119959635Y-73828570D02*
X119887255Y-73923808D01*
X119887255Y-73923808D02*
X119814874Y-73971427D01*
X119814874Y-73971427D02*
X119670112Y-74019046D01*
X119670112Y-74019046D02*
X119235826Y-74019046D01*
X119235826Y-74019046D02*
X119091064Y-73971427D01*
X119091064Y-73971427D02*
X119018683Y-73923808D01*
X119018683Y-73923808D02*
X118946302Y-73828570D01*
X118946302Y-73828570D02*
X118946302Y-73685713D01*
X118946302Y-73685713D02*
X119018683Y-73590475D01*
X119018683Y-73590475D02*
X119091064Y-73542856D01*
X119091064Y-73542856D02*
X119235826Y-73495237D01*
X119235826Y-73495237D02*
X119670112Y-73495237D01*
X119670112Y-73495237D02*
X119814874Y-73542856D01*
X119814874Y-73542856D02*
X119887255Y-73590475D01*
X119887255Y-73590475D02*
X119959635Y-73685713D01*
X119959635Y-73685713D02*
X119959635Y-73828570D01*
X119163445Y-71971427D02*
X119163445Y-72304760D01*
X119959635Y-72304760D02*
X118439635Y-72304760D01*
X118439635Y-72304760D02*
X118439635Y-71828570D01*
X119959635Y-71304760D02*
X119887255Y-71399998D01*
X119887255Y-71399998D02*
X119742493Y-71447617D01*
X119742493Y-71447617D02*
X118439635Y-71447617D01*
X119959635Y-70923807D02*
X118946302Y-70923807D01*
X118439635Y-70923807D02*
X118512016Y-70971426D01*
X118512016Y-70971426D02*
X118584397Y-70923807D01*
X118584397Y-70923807D02*
X118512016Y-70876188D01*
X118512016Y-70876188D02*
X118439635Y-70923807D01*
X118439635Y-70923807D02*
X118584397Y-70923807D01*
X118946302Y-70447617D02*
X120466302Y-70447617D01*
X119018683Y-70447617D02*
X118946302Y-70352379D01*
X118946302Y-70352379D02*
X118946302Y-70161903D01*
X118946302Y-70161903D02*
X119018683Y-70066665D01*
X119018683Y-70066665D02*
X119091064Y-70019046D01*
X119091064Y-70019046D02*
X119235826Y-69971427D01*
X119235826Y-69971427D02*
X119670112Y-69971427D01*
X119670112Y-69971427D02*
X119814874Y-70019046D01*
X119814874Y-70019046D02*
X119887255Y-70066665D01*
X119887255Y-70066665D02*
X119959635Y-70161903D01*
X119959635Y-70161903D02*
X119959635Y-70352379D01*
X119959635Y-70352379D02*
X119887255Y-70447617D01*
X118946302Y-69542855D02*
X120466302Y-69542855D01*
X119018683Y-69542855D02*
X118946302Y-69447617D01*
X118946302Y-69447617D02*
X118946302Y-69257141D01*
X118946302Y-69257141D02*
X119018683Y-69161903D01*
X119018683Y-69161903D02*
X119091064Y-69114284D01*
X119091064Y-69114284D02*
X119235826Y-69066665D01*
X119235826Y-69066665D02*
X119670112Y-69066665D01*
X119670112Y-69066665D02*
X119814874Y-69114284D01*
X119814874Y-69114284D02*
X119887255Y-69161903D01*
X119887255Y-69161903D02*
X119959635Y-69257141D01*
X119959635Y-69257141D02*
X119959635Y-69447617D01*
X119959635Y-69447617D02*
X119887255Y-69542855D01*
X119887255Y-68257141D02*
X119959635Y-68352379D01*
X119959635Y-68352379D02*
X119959635Y-68542855D01*
X119959635Y-68542855D02*
X119887255Y-68638093D01*
X119887255Y-68638093D02*
X119742493Y-68685712D01*
X119742493Y-68685712D02*
X119163445Y-68685712D01*
X119163445Y-68685712D02*
X119018683Y-68638093D01*
X119018683Y-68638093D02*
X118946302Y-68542855D01*
X118946302Y-68542855D02*
X118946302Y-68352379D01*
X118946302Y-68352379D02*
X119018683Y-68257141D01*
X119018683Y-68257141D02*
X119163445Y-68209522D01*
X119163445Y-68209522D02*
X119308207Y-68209522D01*
X119308207Y-68209522D02*
X119452969Y-68685712D01*
X119959635Y-67780950D02*
X118946302Y-67780950D01*
X119235826Y-67780950D02*
X119091064Y-67733331D01*
X119091064Y-67733331D02*
X119018683Y-67685712D01*
X119018683Y-67685712D02*
X118946302Y-67590474D01*
X118946302Y-67590474D02*
X118946302Y-67495236D01*
X118439635Y-66971426D02*
X118439635Y-66876188D01*
X118439635Y-66876188D02*
X118512016Y-66780950D01*
X118512016Y-66780950D02*
X118584397Y-66733331D01*
X118584397Y-66733331D02*
X118729159Y-66685712D01*
X118729159Y-66685712D02*
X119018683Y-66638093D01*
X119018683Y-66638093D02*
X119380588Y-66638093D01*
X119380588Y-66638093D02*
X119670112Y-66685712D01*
X119670112Y-66685712D02*
X119814874Y-66733331D01*
X119814874Y-66733331D02*
X119887255Y-66780950D01*
X119887255Y-66780950D02*
X119959635Y-66876188D01*
X119959635Y-66876188D02*
X119959635Y-66971426D01*
X119959635Y-66971426D02*
X119887255Y-67066664D01*
X119887255Y-67066664D02*
X119814874Y-67114283D01*
X119814874Y-67114283D02*
X119670112Y-67161902D01*
X119670112Y-67161902D02*
X119380588Y-67209521D01*
X119380588Y-67209521D02*
X119018683Y-67209521D01*
X119018683Y-67209521D02*
X118729159Y-67161902D01*
X118729159Y-67161902D02*
X118584397Y-67114283D01*
X118584397Y-67114283D02*
X118512016Y-67066664D01*
X118512016Y-67066664D02*
X118439635Y-66971426D01*
X122406750Y-82614286D02*
X121393417Y-82614286D01*
X121538179Y-82614286D02*
X121465798Y-82566667D01*
X121465798Y-82566667D02*
X121393417Y-82471429D01*
X121393417Y-82471429D02*
X121393417Y-82328572D01*
X121393417Y-82328572D02*
X121465798Y-82233334D01*
X121465798Y-82233334D02*
X121610560Y-82185715D01*
X121610560Y-82185715D02*
X122406750Y-82185715D01*
X121610560Y-82185715D02*
X121465798Y-82138096D01*
X121465798Y-82138096D02*
X121393417Y-82042858D01*
X121393417Y-82042858D02*
X121393417Y-81900001D01*
X121393417Y-81900001D02*
X121465798Y-81804762D01*
X121465798Y-81804762D02*
X121610560Y-81757143D01*
X121610560Y-81757143D02*
X122406750Y-81757143D01*
X122406750Y-81138096D02*
X122334370Y-81233334D01*
X122334370Y-81233334D02*
X122261989Y-81280953D01*
X122261989Y-81280953D02*
X122117227Y-81328572D01*
X122117227Y-81328572D02*
X121682941Y-81328572D01*
X121682941Y-81328572D02*
X121538179Y-81280953D01*
X121538179Y-81280953D02*
X121465798Y-81233334D01*
X121465798Y-81233334D02*
X121393417Y-81138096D01*
X121393417Y-81138096D02*
X121393417Y-80995239D01*
X121393417Y-80995239D02*
X121465798Y-80900001D01*
X121465798Y-80900001D02*
X121538179Y-80852382D01*
X121538179Y-80852382D02*
X121682941Y-80804763D01*
X121682941Y-80804763D02*
X122117227Y-80804763D01*
X122117227Y-80804763D02*
X122261989Y-80852382D01*
X122261989Y-80852382D02*
X122334370Y-80900001D01*
X122334370Y-80900001D02*
X122406750Y-80995239D01*
X122406750Y-80995239D02*
X122406750Y-81138096D01*
X122406750Y-79947620D02*
X120886750Y-79947620D01*
X122334370Y-79947620D02*
X122406750Y-80042858D01*
X122406750Y-80042858D02*
X122406750Y-80233334D01*
X122406750Y-80233334D02*
X122334370Y-80328572D01*
X122334370Y-80328572D02*
X122261989Y-80376191D01*
X122261989Y-80376191D02*
X122117227Y-80423810D01*
X122117227Y-80423810D02*
X121682941Y-80423810D01*
X121682941Y-80423810D02*
X121538179Y-80376191D01*
X121538179Y-80376191D02*
X121465798Y-80328572D01*
X121465798Y-80328572D02*
X121393417Y-80233334D01*
X121393417Y-80233334D02*
X121393417Y-80042858D01*
X121393417Y-80042858D02*
X121465798Y-79947620D01*
X121393417Y-79042858D02*
X122406750Y-79042858D01*
X121393417Y-79471429D02*
X122189608Y-79471429D01*
X122189608Y-79471429D02*
X122334370Y-79423810D01*
X122334370Y-79423810D02*
X122406750Y-79328572D01*
X122406750Y-79328572D02*
X122406750Y-79185715D01*
X122406750Y-79185715D02*
X122334370Y-79090477D01*
X122334370Y-79090477D02*
X122261989Y-79042858D01*
X122406750Y-78423810D02*
X122334370Y-78519048D01*
X122334370Y-78519048D02*
X122189608Y-78566667D01*
X122189608Y-78566667D02*
X120886750Y-78566667D01*
X122334370Y-77661905D02*
X122406750Y-77757143D01*
X122406750Y-77757143D02*
X122406750Y-77947619D01*
X122406750Y-77947619D02*
X122334370Y-78042857D01*
X122334370Y-78042857D02*
X122189608Y-78090476D01*
X122189608Y-78090476D02*
X121610560Y-78090476D01*
X121610560Y-78090476D02*
X121465798Y-78042857D01*
X121465798Y-78042857D02*
X121393417Y-77947619D01*
X121393417Y-77947619D02*
X121393417Y-77757143D01*
X121393417Y-77757143D02*
X121465798Y-77661905D01*
X121465798Y-77661905D02*
X121610560Y-77614286D01*
X121610560Y-77614286D02*
X121755322Y-77614286D01*
X121755322Y-77614286D02*
X121900084Y-78090476D01*
X122406750Y-75995238D02*
X121610560Y-75995238D01*
X121610560Y-75995238D02*
X121465798Y-76042857D01*
X121465798Y-76042857D02*
X121393417Y-76138095D01*
X121393417Y-76138095D02*
X121393417Y-76328571D01*
X121393417Y-76328571D02*
X121465798Y-76423809D01*
X122334370Y-75995238D02*
X122406750Y-76090476D01*
X122406750Y-76090476D02*
X122406750Y-76328571D01*
X122406750Y-76328571D02*
X122334370Y-76423809D01*
X122334370Y-76423809D02*
X122189608Y-76471428D01*
X122189608Y-76471428D02*
X122044846Y-76471428D01*
X122044846Y-76471428D02*
X121900084Y-76423809D01*
X121900084Y-76423809D02*
X121827703Y-76328571D01*
X121827703Y-76328571D02*
X121827703Y-76090476D01*
X121827703Y-76090476D02*
X121755322Y-75995238D01*
X122406750Y-75090476D02*
X120886750Y-75090476D01*
X122334370Y-75090476D02*
X122406750Y-75185714D01*
X122406750Y-75185714D02*
X122406750Y-75376190D01*
X122406750Y-75376190D02*
X122334370Y-75471428D01*
X122334370Y-75471428D02*
X122261989Y-75519047D01*
X122261989Y-75519047D02*
X122117227Y-75566666D01*
X122117227Y-75566666D02*
X121682941Y-75566666D01*
X121682941Y-75566666D02*
X121538179Y-75519047D01*
X121538179Y-75519047D02*
X121465798Y-75471428D01*
X121465798Y-75471428D02*
X121393417Y-75376190D01*
X121393417Y-75376190D02*
X121393417Y-75185714D01*
X121393417Y-75185714D02*
X121465798Y-75090476D01*
X122406750Y-74185714D02*
X121610560Y-74185714D01*
X121610560Y-74185714D02*
X121465798Y-74233333D01*
X121465798Y-74233333D02*
X121393417Y-74328571D01*
X121393417Y-74328571D02*
X121393417Y-74519047D01*
X121393417Y-74519047D02*
X121465798Y-74614285D01*
X122334370Y-74185714D02*
X122406750Y-74280952D01*
X122406750Y-74280952D02*
X122406750Y-74519047D01*
X122406750Y-74519047D02*
X122334370Y-74614285D01*
X122334370Y-74614285D02*
X122189608Y-74661904D01*
X122189608Y-74661904D02*
X122044846Y-74661904D01*
X122044846Y-74661904D02*
X121900084Y-74614285D01*
X121900084Y-74614285D02*
X121827703Y-74519047D01*
X121827703Y-74519047D02*
X121827703Y-74280952D01*
X121827703Y-74280952D02*
X121755322Y-74185714D01*
X121393417Y-73709523D02*
X122913417Y-73709523D01*
X121465798Y-73709523D02*
X121393417Y-73614285D01*
X121393417Y-73614285D02*
X121393417Y-73423809D01*
X121393417Y-73423809D02*
X121465798Y-73328571D01*
X121465798Y-73328571D02*
X121538179Y-73280952D01*
X121538179Y-73280952D02*
X121682941Y-73233333D01*
X121682941Y-73233333D02*
X122117227Y-73233333D01*
X122117227Y-73233333D02*
X122261989Y-73280952D01*
X122261989Y-73280952D02*
X122334370Y-73328571D01*
X122334370Y-73328571D02*
X122406750Y-73423809D01*
X122406750Y-73423809D02*
X122406750Y-73614285D01*
X122406750Y-73614285D02*
X122334370Y-73709523D01*
X121393417Y-72947618D02*
X121393417Y-72566666D01*
X120886750Y-72804761D02*
X122189608Y-72804761D01*
X122189608Y-72804761D02*
X122334370Y-72757142D01*
X122334370Y-72757142D02*
X122406750Y-72661904D01*
X122406750Y-72661904D02*
X122406750Y-72566666D01*
X122406750Y-72090475D02*
X122334370Y-72185713D01*
X122334370Y-72185713D02*
X122261989Y-72233332D01*
X122261989Y-72233332D02*
X122117227Y-72280951D01*
X122117227Y-72280951D02*
X121682941Y-72280951D01*
X121682941Y-72280951D02*
X121538179Y-72233332D01*
X121538179Y-72233332D02*
X121465798Y-72185713D01*
X121465798Y-72185713D02*
X121393417Y-72090475D01*
X121393417Y-72090475D02*
X121393417Y-71947618D01*
X121393417Y-71947618D02*
X121465798Y-71852380D01*
X121465798Y-71852380D02*
X121538179Y-71804761D01*
X121538179Y-71804761D02*
X121682941Y-71757142D01*
X121682941Y-71757142D02*
X122117227Y-71757142D01*
X122117227Y-71757142D02*
X122261989Y-71804761D01*
X122261989Y-71804761D02*
X122334370Y-71852380D01*
X122334370Y-71852380D02*
X122406750Y-71947618D01*
X122406750Y-71947618D02*
X122406750Y-72090475D01*
X122406750Y-71328570D02*
X121393417Y-71328570D01*
X121682941Y-71328570D02*
X121538179Y-71280951D01*
X121538179Y-71280951D02*
X121465798Y-71233332D01*
X121465798Y-71233332D02*
X121393417Y-71138094D01*
X121393417Y-71138094D02*
X121393417Y-71042856D01*
X122406750Y-69947617D02*
X120886750Y-69947617D01*
X121465798Y-69947617D02*
X121393417Y-69852379D01*
X121393417Y-69852379D02*
X121393417Y-69661903D01*
X121393417Y-69661903D02*
X121465798Y-69566665D01*
X121465798Y-69566665D02*
X121538179Y-69519046D01*
X121538179Y-69519046D02*
X121682941Y-69471427D01*
X121682941Y-69471427D02*
X122117227Y-69471427D01*
X122117227Y-69471427D02*
X122261989Y-69519046D01*
X122261989Y-69519046D02*
X122334370Y-69566665D01*
X122334370Y-69566665D02*
X122406750Y-69661903D01*
X122406750Y-69661903D02*
X122406750Y-69852379D01*
X122406750Y-69852379D02*
X122334370Y-69947617D01*
X122406750Y-68899998D02*
X122334370Y-68995236D01*
X122334370Y-68995236D02*
X122261989Y-69042855D01*
X122261989Y-69042855D02*
X122117227Y-69090474D01*
X122117227Y-69090474D02*
X121682941Y-69090474D01*
X121682941Y-69090474D02*
X121538179Y-69042855D01*
X121538179Y-69042855D02*
X121465798Y-68995236D01*
X121465798Y-68995236D02*
X121393417Y-68899998D01*
X121393417Y-68899998D02*
X121393417Y-68757141D01*
X121393417Y-68757141D02*
X121465798Y-68661903D01*
X121465798Y-68661903D02*
X121538179Y-68614284D01*
X121538179Y-68614284D02*
X121682941Y-68566665D01*
X121682941Y-68566665D02*
X122117227Y-68566665D01*
X122117227Y-68566665D02*
X122261989Y-68614284D01*
X122261989Y-68614284D02*
X122334370Y-68661903D01*
X122334370Y-68661903D02*
X122406750Y-68757141D01*
X122406750Y-68757141D02*
X122406750Y-68899998D01*
X122406750Y-67709522D02*
X121610560Y-67709522D01*
X121610560Y-67709522D02*
X121465798Y-67757141D01*
X121465798Y-67757141D02*
X121393417Y-67852379D01*
X121393417Y-67852379D02*
X121393417Y-68042855D01*
X121393417Y-68042855D02*
X121465798Y-68138093D01*
X122334370Y-67709522D02*
X122406750Y-67804760D01*
X122406750Y-67804760D02*
X122406750Y-68042855D01*
X122406750Y-68042855D02*
X122334370Y-68138093D01*
X122334370Y-68138093D02*
X122189608Y-68185712D01*
X122189608Y-68185712D02*
X122044846Y-68185712D01*
X122044846Y-68185712D02*
X121900084Y-68138093D01*
X121900084Y-68138093D02*
X121827703Y-68042855D01*
X121827703Y-68042855D02*
X121827703Y-67804760D01*
X121827703Y-67804760D02*
X121755322Y-67709522D01*
X122406750Y-67233331D02*
X121393417Y-67233331D01*
X121682941Y-67233331D02*
X121538179Y-67185712D01*
X121538179Y-67185712D02*
X121465798Y-67138093D01*
X121465798Y-67138093D02*
X121393417Y-67042855D01*
X121393417Y-67042855D02*
X121393417Y-66947617D01*
X122406750Y-66185712D02*
X120886750Y-66185712D01*
X122334370Y-66185712D02*
X122406750Y-66280950D01*
X122406750Y-66280950D02*
X122406750Y-66471426D01*
X122406750Y-66471426D02*
X122334370Y-66566664D01*
X122334370Y-66566664D02*
X122261989Y-66614283D01*
X122261989Y-66614283D02*
X122117227Y-66661902D01*
X122117227Y-66661902D02*
X121682941Y-66661902D01*
X121682941Y-66661902D02*
X121538179Y-66614283D01*
X121538179Y-66614283D02*
X121465798Y-66566664D01*
X121465798Y-66566664D02*
X121393417Y-66471426D01*
X121393417Y-66471426D02*
X121393417Y-66280950D01*
X121393417Y-66280950D02*
X121465798Y-66185712D01*
X124853865Y-86185715D02*
X123333865Y-86185715D01*
X124057675Y-86185715D02*
X124057675Y-85614287D01*
X124853865Y-85614287D02*
X123333865Y-85614287D01*
X124853865Y-84709525D02*
X124057675Y-84709525D01*
X124057675Y-84709525D02*
X123912913Y-84757144D01*
X123912913Y-84757144D02*
X123840532Y-84852382D01*
X123840532Y-84852382D02*
X123840532Y-85042858D01*
X123840532Y-85042858D02*
X123912913Y-85138096D01*
X124781485Y-84709525D02*
X124853865Y-84804763D01*
X124853865Y-84804763D02*
X124853865Y-85042858D01*
X124853865Y-85042858D02*
X124781485Y-85138096D01*
X124781485Y-85138096D02*
X124636723Y-85185715D01*
X124636723Y-85185715D02*
X124491961Y-85185715D01*
X124491961Y-85185715D02*
X124347199Y-85138096D01*
X124347199Y-85138096D02*
X124274818Y-85042858D01*
X124274818Y-85042858D02*
X124274818Y-84804763D01*
X124274818Y-84804763D02*
X124202437Y-84709525D01*
X124781485Y-83804763D02*
X124853865Y-83900001D01*
X124853865Y-83900001D02*
X124853865Y-84090477D01*
X124853865Y-84090477D02*
X124781485Y-84185715D01*
X124781485Y-84185715D02*
X124709104Y-84233334D01*
X124709104Y-84233334D02*
X124564342Y-84280953D01*
X124564342Y-84280953D02*
X124130056Y-84280953D01*
X124130056Y-84280953D02*
X123985294Y-84233334D01*
X123985294Y-84233334D02*
X123912913Y-84185715D01*
X123912913Y-84185715D02*
X123840532Y-84090477D01*
X123840532Y-84090477D02*
X123840532Y-83900001D01*
X123840532Y-83900001D02*
X123912913Y-83804763D01*
X124853865Y-83376191D02*
X123333865Y-83376191D01*
X124274818Y-83280953D02*
X124853865Y-82995239D01*
X123840532Y-82995239D02*
X124419580Y-83376191D01*
X124781485Y-82185715D02*
X124853865Y-82280953D01*
X124853865Y-82280953D02*
X124853865Y-82471429D01*
X124853865Y-82471429D02*
X124781485Y-82566667D01*
X124781485Y-82566667D02*
X124636723Y-82614286D01*
X124636723Y-82614286D02*
X124057675Y-82614286D01*
X124057675Y-82614286D02*
X123912913Y-82566667D01*
X123912913Y-82566667D02*
X123840532Y-82471429D01*
X123840532Y-82471429D02*
X123840532Y-82280953D01*
X123840532Y-82280953D02*
X123912913Y-82185715D01*
X123912913Y-82185715D02*
X124057675Y-82138096D01*
X124057675Y-82138096D02*
X124202437Y-82138096D01*
X124202437Y-82138096D02*
X124347199Y-82614286D01*
X124853865Y-81280953D02*
X123333865Y-81280953D01*
X124781485Y-81280953D02*
X124853865Y-81376191D01*
X124853865Y-81376191D02*
X124853865Y-81566667D01*
X124853865Y-81566667D02*
X124781485Y-81661905D01*
X124781485Y-81661905D02*
X124709104Y-81709524D01*
X124709104Y-81709524D02*
X124564342Y-81757143D01*
X124564342Y-81757143D02*
X124130056Y-81757143D01*
X124130056Y-81757143D02*
X123985294Y-81709524D01*
X123985294Y-81709524D02*
X123912913Y-81661905D01*
X123912913Y-81661905D02*
X123840532Y-81566667D01*
X123840532Y-81566667D02*
X123840532Y-81376191D01*
X123840532Y-81376191D02*
X123912913Y-81280953D01*
X123840532Y-80185714D02*
X123840532Y-79804762D01*
X123333865Y-80042857D02*
X124636723Y-80042857D01*
X124636723Y-80042857D02*
X124781485Y-79995238D01*
X124781485Y-79995238D02*
X124853865Y-79900000D01*
X124853865Y-79900000D02*
X124853865Y-79804762D01*
X124853865Y-79328571D02*
X124781485Y-79423809D01*
X124781485Y-79423809D02*
X124709104Y-79471428D01*
X124709104Y-79471428D02*
X124564342Y-79519047D01*
X124564342Y-79519047D02*
X124130056Y-79519047D01*
X124130056Y-79519047D02*
X123985294Y-79471428D01*
X123985294Y-79471428D02*
X123912913Y-79423809D01*
X123912913Y-79423809D02*
X123840532Y-79328571D01*
X123840532Y-79328571D02*
X123840532Y-79185714D01*
X123840532Y-79185714D02*
X123912913Y-79090476D01*
X123912913Y-79090476D02*
X123985294Y-79042857D01*
X123985294Y-79042857D02*
X124130056Y-78995238D01*
X124130056Y-78995238D02*
X124564342Y-78995238D01*
X124564342Y-78995238D02*
X124709104Y-79042857D01*
X124709104Y-79042857D02*
X124781485Y-79090476D01*
X124781485Y-79090476D02*
X124853865Y-79185714D01*
X124853865Y-79185714D02*
X124853865Y-79328571D01*
X123840532Y-78138095D02*
X125071008Y-78138095D01*
X125071008Y-78138095D02*
X125215770Y-78185714D01*
X125215770Y-78185714D02*
X125288151Y-78233333D01*
X125288151Y-78233333D02*
X125360532Y-78328571D01*
X125360532Y-78328571D02*
X125360532Y-78471428D01*
X125360532Y-78471428D02*
X125288151Y-78566666D01*
X124781485Y-78138095D02*
X124853865Y-78233333D01*
X124853865Y-78233333D02*
X124853865Y-78423809D01*
X124853865Y-78423809D02*
X124781485Y-78519047D01*
X124781485Y-78519047D02*
X124709104Y-78566666D01*
X124709104Y-78566666D02*
X124564342Y-78614285D01*
X124564342Y-78614285D02*
X124130056Y-78614285D01*
X124130056Y-78614285D02*
X123985294Y-78566666D01*
X123985294Y-78566666D02*
X123912913Y-78519047D01*
X123912913Y-78519047D02*
X123840532Y-78423809D01*
X123840532Y-78423809D02*
X123840532Y-78233333D01*
X123840532Y-78233333D02*
X123912913Y-78138095D01*
X124781485Y-77280952D02*
X124853865Y-77376190D01*
X124853865Y-77376190D02*
X124853865Y-77566666D01*
X124853865Y-77566666D02*
X124781485Y-77661904D01*
X124781485Y-77661904D02*
X124636723Y-77709523D01*
X124636723Y-77709523D02*
X124057675Y-77709523D01*
X124057675Y-77709523D02*
X123912913Y-77661904D01*
X123912913Y-77661904D02*
X123840532Y-77566666D01*
X123840532Y-77566666D02*
X123840532Y-77376190D01*
X123840532Y-77376190D02*
X123912913Y-77280952D01*
X123912913Y-77280952D02*
X124057675Y-77233333D01*
X124057675Y-77233333D02*
X124202437Y-77233333D01*
X124202437Y-77233333D02*
X124347199Y-77709523D01*
X123840532Y-76947618D02*
X123840532Y-76566666D01*
X123333865Y-76804761D02*
X124636723Y-76804761D01*
X124636723Y-76804761D02*
X124781485Y-76757142D01*
X124781485Y-76757142D02*
X124853865Y-76661904D01*
X124853865Y-76661904D02*
X124853865Y-76566666D01*
X124853865Y-76233332D02*
X123333865Y-76233332D01*
X124853865Y-75804761D02*
X124057675Y-75804761D01*
X124057675Y-75804761D02*
X123912913Y-75852380D01*
X123912913Y-75852380D02*
X123840532Y-75947618D01*
X123840532Y-75947618D02*
X123840532Y-76090475D01*
X123840532Y-76090475D02*
X123912913Y-76185713D01*
X123912913Y-76185713D02*
X123985294Y-76233332D01*
X124781485Y-74947618D02*
X124853865Y-75042856D01*
X124853865Y-75042856D02*
X124853865Y-75233332D01*
X124853865Y-75233332D02*
X124781485Y-75328570D01*
X124781485Y-75328570D02*
X124636723Y-75376189D01*
X124636723Y-75376189D02*
X124057675Y-75376189D01*
X124057675Y-75376189D02*
X123912913Y-75328570D01*
X123912913Y-75328570D02*
X123840532Y-75233332D01*
X123840532Y-75233332D02*
X123840532Y-75042856D01*
X123840532Y-75042856D02*
X123912913Y-74947618D01*
X123912913Y-74947618D02*
X124057675Y-74899999D01*
X124057675Y-74899999D02*
X124202437Y-74899999D01*
X124202437Y-74899999D02*
X124347199Y-75376189D01*
X124853865Y-74471427D02*
X123840532Y-74471427D01*
X124130056Y-74471427D02*
X123985294Y-74423808D01*
X123985294Y-74423808D02*
X123912913Y-74376189D01*
X123912913Y-74376189D02*
X123840532Y-74280951D01*
X123840532Y-74280951D02*
X123840532Y-74185713D01*
X124853865Y-73090474D02*
X123333865Y-73090474D01*
X123912913Y-73090474D02*
X123840532Y-72995236D01*
X123840532Y-72995236D02*
X123840532Y-72804760D01*
X123840532Y-72804760D02*
X123912913Y-72709522D01*
X123912913Y-72709522D02*
X123985294Y-72661903D01*
X123985294Y-72661903D02*
X124130056Y-72614284D01*
X124130056Y-72614284D02*
X124564342Y-72614284D01*
X124564342Y-72614284D02*
X124709104Y-72661903D01*
X124709104Y-72661903D02*
X124781485Y-72709522D01*
X124781485Y-72709522D02*
X124853865Y-72804760D01*
X124853865Y-72804760D02*
X124853865Y-72995236D01*
X124853865Y-72995236D02*
X124781485Y-73090474D01*
X123840532Y-72280950D02*
X124853865Y-72042855D01*
X123840532Y-71804760D02*
X124853865Y-72042855D01*
X124853865Y-72042855D02*
X125215770Y-72138093D01*
X125215770Y-72138093D02*
X125288151Y-72185712D01*
X125288151Y-72185712D02*
X125360532Y-72280950D01*
X123333865Y-70804759D02*
X123333865Y-70233331D01*
X124853865Y-70519045D02*
X123333865Y-70519045D01*
X124853865Y-69899997D02*
X123840532Y-69899997D01*
X123333865Y-69899997D02*
X123406246Y-69947616D01*
X123406246Y-69947616D02*
X123478627Y-69899997D01*
X123478627Y-69899997D02*
X123406246Y-69852378D01*
X123406246Y-69852378D02*
X123333865Y-69899997D01*
X123333865Y-69899997D02*
X123478627Y-69899997D01*
X124853865Y-69423807D02*
X123840532Y-69423807D01*
X123985294Y-69423807D02*
X123912913Y-69376188D01*
X123912913Y-69376188D02*
X123840532Y-69280950D01*
X123840532Y-69280950D02*
X123840532Y-69138093D01*
X123840532Y-69138093D02*
X123912913Y-69042855D01*
X123912913Y-69042855D02*
X124057675Y-68995236D01*
X124057675Y-68995236D02*
X124853865Y-68995236D01*
X124057675Y-68995236D02*
X123912913Y-68947617D01*
X123912913Y-68947617D02*
X123840532Y-68852379D01*
X123840532Y-68852379D02*
X123840532Y-68709522D01*
X123840532Y-68709522D02*
X123912913Y-68614283D01*
X123912913Y-68614283D02*
X124057675Y-68566664D01*
X124057675Y-68566664D02*
X124853865Y-68566664D01*
X124853865Y-68090474D02*
X123840532Y-68090474D01*
X123985294Y-68090474D02*
X123912913Y-68042855D01*
X123912913Y-68042855D02*
X123840532Y-67947617D01*
X123840532Y-67947617D02*
X123840532Y-67804760D01*
X123840532Y-67804760D02*
X123912913Y-67709522D01*
X123912913Y-67709522D02*
X124057675Y-67661903D01*
X124057675Y-67661903D02*
X124853865Y-67661903D01*
X124057675Y-67661903D02*
X123912913Y-67614284D01*
X123912913Y-67614284D02*
X123840532Y-67519046D01*
X123840532Y-67519046D02*
X123840532Y-67376189D01*
X123840532Y-67376189D02*
X123912913Y-67280950D01*
X123912913Y-67280950D02*
X124057675Y-67233331D01*
X124057675Y-67233331D02*
X124853865Y-67233331D01*
X124853865Y-66614284D02*
X124781485Y-66709522D01*
X124781485Y-66709522D02*
X124709104Y-66757141D01*
X124709104Y-66757141D02*
X124564342Y-66804760D01*
X124564342Y-66804760D02*
X124130056Y-66804760D01*
X124130056Y-66804760D02*
X123985294Y-66757141D01*
X123985294Y-66757141D02*
X123912913Y-66709522D01*
X123912913Y-66709522D02*
X123840532Y-66614284D01*
X123840532Y-66614284D02*
X123840532Y-66471427D01*
X123840532Y-66471427D02*
X123912913Y-66376189D01*
X123912913Y-66376189D02*
X123985294Y-66328570D01*
X123985294Y-66328570D02*
X124130056Y-66280951D01*
X124130056Y-66280951D02*
X124564342Y-66280951D01*
X124564342Y-66280951D02*
X124709104Y-66328570D01*
X124709104Y-66328570D02*
X124781485Y-66376189D01*
X124781485Y-66376189D02*
X124853865Y-66471427D01*
X124853865Y-66471427D02*
X124853865Y-66614284D01*
X123840532Y-65995236D02*
X123840532Y-65614284D01*
X123333865Y-65852379D02*
X124636723Y-65852379D01*
X124636723Y-65852379D02*
X124781485Y-65804760D01*
X124781485Y-65804760D02*
X124853865Y-65709522D01*
X124853865Y-65709522D02*
X124853865Y-65614284D01*
X124853865Y-65138093D02*
X124781485Y-65233331D01*
X124781485Y-65233331D02*
X124709104Y-65280950D01*
X124709104Y-65280950D02*
X124564342Y-65328569D01*
X124564342Y-65328569D02*
X124130056Y-65328569D01*
X124130056Y-65328569D02*
X123985294Y-65280950D01*
X123985294Y-65280950D02*
X123912913Y-65233331D01*
X123912913Y-65233331D02*
X123840532Y-65138093D01*
X123840532Y-65138093D02*
X123840532Y-64995236D01*
X123840532Y-64995236D02*
X123912913Y-64899998D01*
X123912913Y-64899998D02*
X123985294Y-64852379D01*
X123985294Y-64852379D02*
X124130056Y-64804760D01*
X124130056Y-64804760D02*
X124564342Y-64804760D01*
X124564342Y-64804760D02*
X124709104Y-64852379D01*
X124709104Y-64852379D02*
X124781485Y-64899998D01*
X124781485Y-64899998D02*
X124853865Y-64995236D01*
X124853865Y-64995236D02*
X124853865Y-65138093D01*
X124853865Y-64233331D02*
X124781485Y-64328569D01*
X124781485Y-64328569D02*
X124709104Y-64376188D01*
X124709104Y-64376188D02*
X124564342Y-64423807D01*
X124564342Y-64423807D02*
X124130056Y-64423807D01*
X124130056Y-64423807D02*
X123985294Y-64376188D01*
X123985294Y-64376188D02*
X123912913Y-64328569D01*
X123912913Y-64328569D02*
X123840532Y-64233331D01*
X123840532Y-64233331D02*
X123840532Y-64090474D01*
X123840532Y-64090474D02*
X123912913Y-63995236D01*
X123912913Y-63995236D02*
X123985294Y-63947617D01*
X123985294Y-63947617D02*
X124130056Y-63899998D01*
X124130056Y-63899998D02*
X124564342Y-63899998D01*
X124564342Y-63899998D02*
X124709104Y-63947617D01*
X124709104Y-63947617D02*
X124781485Y-63995236D01*
X124781485Y-63995236D02*
X124853865Y-64090474D01*
X124853865Y-64090474D02*
X124853865Y-64233331D01*
X124853865Y-63328569D02*
X124781485Y-63423807D01*
X124781485Y-63423807D02*
X124636723Y-63471426D01*
X124636723Y-63471426D02*
X123333865Y-63471426D01*
X124781485Y-62995235D02*
X124853865Y-62899997D01*
X124853865Y-62899997D02*
X124853865Y-62709521D01*
X124853865Y-62709521D02*
X124781485Y-62614283D01*
X124781485Y-62614283D02*
X124636723Y-62566664D01*
X124636723Y-62566664D02*
X124564342Y-62566664D01*
X124564342Y-62566664D02*
X124419580Y-62614283D01*
X124419580Y-62614283D02*
X124347199Y-62709521D01*
X124347199Y-62709521D02*
X124347199Y-62852378D01*
X124347199Y-62852378D02*
X124274818Y-62947616D01*
X124274818Y-62947616D02*
X124130056Y-62995235D01*
X124130056Y-62995235D02*
X124057675Y-62995235D01*
X124057675Y-62995235D02*
X123912913Y-62947616D01*
X123912913Y-62947616D02*
X123840532Y-62852378D01*
X123840532Y-62852378D02*
X123840532Y-62709521D01*
X123840532Y-62709521D02*
X123912913Y-62614283D01*
X127300980Y-76471428D02*
X126577171Y-76804761D01*
X127300980Y-77042856D02*
X125780980Y-77042856D01*
X125780980Y-77042856D02*
X125780980Y-76661904D01*
X125780980Y-76661904D02*
X125853361Y-76566666D01*
X125853361Y-76566666D02*
X125925742Y-76519047D01*
X125925742Y-76519047D02*
X126070504Y-76471428D01*
X126070504Y-76471428D02*
X126287647Y-76471428D01*
X126287647Y-76471428D02*
X126432409Y-76519047D01*
X126432409Y-76519047D02*
X126504790Y-76566666D01*
X126504790Y-76566666D02*
X126577171Y-76661904D01*
X126577171Y-76661904D02*
X126577171Y-77042856D01*
X127228600Y-75661904D02*
X127300980Y-75757142D01*
X127300980Y-75757142D02*
X127300980Y-75947618D01*
X127300980Y-75947618D02*
X127228600Y-76042856D01*
X127228600Y-76042856D02*
X127083838Y-76090475D01*
X127083838Y-76090475D02*
X126504790Y-76090475D01*
X126504790Y-76090475D02*
X126360028Y-76042856D01*
X126360028Y-76042856D02*
X126287647Y-75947618D01*
X126287647Y-75947618D02*
X126287647Y-75757142D01*
X126287647Y-75757142D02*
X126360028Y-75661904D01*
X126360028Y-75661904D02*
X126504790Y-75614285D01*
X126504790Y-75614285D02*
X126649552Y-75614285D01*
X126649552Y-75614285D02*
X126794314Y-76090475D01*
X126287647Y-75280951D02*
X127300980Y-75042856D01*
X127300980Y-75042856D02*
X126287647Y-74804761D01*
X125780980Y-73471427D02*
X125780980Y-73376189D01*
X125780980Y-73376189D02*
X125853361Y-73280951D01*
X125853361Y-73280951D02*
X125925742Y-73233332D01*
X125925742Y-73233332D02*
X126070504Y-73185713D01*
X126070504Y-73185713D02*
X126360028Y-73138094D01*
X126360028Y-73138094D02*
X126721933Y-73138094D01*
X126721933Y-73138094D02*
X127011457Y-73185713D01*
X127011457Y-73185713D02*
X127156219Y-73233332D01*
X127156219Y-73233332D02*
X127228600Y-73280951D01*
X127228600Y-73280951D02*
X127300980Y-73376189D01*
X127300980Y-73376189D02*
X127300980Y-73471427D01*
X127300980Y-73471427D02*
X127228600Y-73566665D01*
X127228600Y-73566665D02*
X127156219Y-73614284D01*
X127156219Y-73614284D02*
X127011457Y-73661903D01*
X127011457Y-73661903D02*
X126721933Y-73709522D01*
X126721933Y-73709522D02*
X126360028Y-73709522D01*
X126360028Y-73709522D02*
X126070504Y-73661903D01*
X126070504Y-73661903D02*
X125925742Y-73614284D01*
X125925742Y-73614284D02*
X125853361Y-73566665D01*
X125853361Y-73566665D02*
X125780980Y-73471427D01*
X127156219Y-72709522D02*
X127228600Y-72661903D01*
X127228600Y-72661903D02*
X127300980Y-72709522D01*
X127300980Y-72709522D02*
X127228600Y-72757141D01*
X127228600Y-72757141D02*
X127156219Y-72709522D01*
X127156219Y-72709522D02*
X127300980Y-72709522D01*
X125925742Y-72280951D02*
X125853361Y-72233332D01*
X125853361Y-72233332D02*
X125780980Y-72138094D01*
X125780980Y-72138094D02*
X125780980Y-71899999D01*
X125780980Y-71899999D02*
X125853361Y-71804761D01*
X125853361Y-71804761D02*
X125925742Y-71757142D01*
X125925742Y-71757142D02*
X126070504Y-71709523D01*
X126070504Y-71709523D02*
X126215266Y-71709523D01*
X126215266Y-71709523D02*
X126432409Y-71757142D01*
X126432409Y-71757142D02*
X127300980Y-72328570D01*
X127300980Y-72328570D02*
X127300980Y-71709523D01*
X129780980Y-94797431D02*
X131011457Y-94797431D01*
X131011457Y-94797431D02*
X131156219Y-94749812D01*
X131156219Y-94749812D02*
X131228600Y-94702193D01*
X131228600Y-94702193D02*
X131300980Y-94606955D01*
X131300980Y-94606955D02*
X131300980Y-94416479D01*
X131300980Y-94416479D02*
X131228600Y-94321241D01*
X131228600Y-94321241D02*
X131156219Y-94273622D01*
X131156219Y-94273622D02*
X131011457Y-94226003D01*
X131011457Y-94226003D02*
X129780980Y-94226003D01*
X131228600Y-93797431D02*
X131300980Y-93654574D01*
X131300980Y-93654574D02*
X131300980Y-93416479D01*
X131300980Y-93416479D02*
X131228600Y-93321241D01*
X131228600Y-93321241D02*
X131156219Y-93273622D01*
X131156219Y-93273622D02*
X131011457Y-93226003D01*
X131011457Y-93226003D02*
X130866695Y-93226003D01*
X130866695Y-93226003D02*
X130721933Y-93273622D01*
X130721933Y-93273622D02*
X130649552Y-93321241D01*
X130649552Y-93321241D02*
X130577171Y-93416479D01*
X130577171Y-93416479D02*
X130504790Y-93606955D01*
X130504790Y-93606955D02*
X130432409Y-93702193D01*
X130432409Y-93702193D02*
X130360028Y-93749812D01*
X130360028Y-93749812D02*
X130215266Y-93797431D01*
X130215266Y-93797431D02*
X130070504Y-93797431D01*
X130070504Y-93797431D02*
X129925742Y-93749812D01*
X129925742Y-93749812D02*
X129853361Y-93702193D01*
X129853361Y-93702193D02*
X129780980Y-93606955D01*
X129780980Y-93606955D02*
X129780980Y-93368860D01*
X129780980Y-93368860D02*
X129853361Y-93226003D01*
X130504790Y-92464098D02*
X130577171Y-92321241D01*
X130577171Y-92321241D02*
X130649552Y-92273622D01*
X130649552Y-92273622D02*
X130794314Y-92226003D01*
X130794314Y-92226003D02*
X131011457Y-92226003D01*
X131011457Y-92226003D02*
X131156219Y-92273622D01*
X131156219Y-92273622D02*
X131228600Y-92321241D01*
X131228600Y-92321241D02*
X131300980Y-92416479D01*
X131300980Y-92416479D02*
X131300980Y-92797431D01*
X131300980Y-92797431D02*
X129780980Y-92797431D01*
X129780980Y-92797431D02*
X129780980Y-92464098D01*
X129780980Y-92464098D02*
X129853361Y-92368860D01*
X129853361Y-92368860D02*
X129925742Y-92321241D01*
X129925742Y-92321241D02*
X130070504Y-92273622D01*
X130070504Y-92273622D02*
X130215266Y-92273622D01*
X130215266Y-92273622D02*
X130360028Y-92321241D01*
X130360028Y-92321241D02*
X130432409Y-92368860D01*
X130432409Y-92368860D02*
X130504790Y-92464098D01*
X130504790Y-92464098D02*
X130504790Y-92797431D01*
X130287647Y-91368860D02*
X131300980Y-91368860D01*
X129708600Y-91606955D02*
X130794314Y-91845050D01*
X130794314Y-91845050D02*
X130794314Y-91226003D01*
X119139635Y-96421241D02*
X119139635Y-96897431D01*
X119139635Y-96897431D02*
X119863445Y-96945050D01*
X119863445Y-96945050D02*
X119791064Y-96897431D01*
X119791064Y-96897431D02*
X119718683Y-96802193D01*
X119718683Y-96802193D02*
X119718683Y-96564098D01*
X119718683Y-96564098D02*
X119791064Y-96468860D01*
X119791064Y-96468860D02*
X119863445Y-96421241D01*
X119863445Y-96421241D02*
X120008207Y-96373622D01*
X120008207Y-96373622D02*
X120370112Y-96373622D01*
X120370112Y-96373622D02*
X120514874Y-96421241D01*
X120514874Y-96421241D02*
X120587255Y-96468860D01*
X120587255Y-96468860D02*
X120659635Y-96564098D01*
X120659635Y-96564098D02*
X120659635Y-96802193D01*
X120659635Y-96802193D02*
X120587255Y-96897431D01*
X120587255Y-96897431D02*
X120514874Y-96945050D01*
X119139635Y-96087907D02*
X120659635Y-95754574D01*
X120659635Y-95754574D02*
X119139635Y-95421241D01*
X123106750Y-96897431D02*
X121586750Y-96897431D01*
X121586750Y-96897431D02*
X121586750Y-96659336D01*
X121586750Y-96659336D02*
X121659131Y-96516479D01*
X121659131Y-96516479D02*
X121803893Y-96421241D01*
X121803893Y-96421241D02*
X121948655Y-96373622D01*
X121948655Y-96373622D02*
X122238179Y-96326003D01*
X122238179Y-96326003D02*
X122455322Y-96326003D01*
X122455322Y-96326003D02*
X122744846Y-96373622D01*
X122744846Y-96373622D02*
X122889608Y-96421241D01*
X122889608Y-96421241D02*
X123034370Y-96516479D01*
X123034370Y-96516479D02*
X123106750Y-96659336D01*
X123106750Y-96659336D02*
X123106750Y-96897431D01*
X122527703Y-95897431D02*
X122527703Y-95135527D01*
X125553865Y-96897431D02*
X124033865Y-96897431D01*
X124033865Y-96897431D02*
X124033865Y-96659336D01*
X124033865Y-96659336D02*
X124106246Y-96516479D01*
X124106246Y-96516479D02*
X124251008Y-96421241D01*
X124251008Y-96421241D02*
X124395770Y-96373622D01*
X124395770Y-96373622D02*
X124685294Y-96326003D01*
X124685294Y-96326003D02*
X124902437Y-96326003D01*
X124902437Y-96326003D02*
X125191961Y-96373622D01*
X125191961Y-96373622D02*
X125336723Y-96421241D01*
X125336723Y-96421241D02*
X125481485Y-96516479D01*
X125481485Y-96516479D02*
X125553865Y-96659336D01*
X125553865Y-96659336D02*
X125553865Y-96897431D01*
X124974818Y-95897431D02*
X124974818Y-95135527D01*
X125553865Y-95516479D02*
X124395770Y-95516479D01*
X126553361Y-96373622D02*
X126480980Y-96468860D01*
X126480980Y-96468860D02*
X126480980Y-96611717D01*
X126480980Y-96611717D02*
X126553361Y-96754574D01*
X126553361Y-96754574D02*
X126698123Y-96849812D01*
X126698123Y-96849812D02*
X126842885Y-96897431D01*
X126842885Y-96897431D02*
X127132409Y-96945050D01*
X127132409Y-96945050D02*
X127349552Y-96945050D01*
X127349552Y-96945050D02*
X127639076Y-96897431D01*
X127639076Y-96897431D02*
X127783838Y-96849812D01*
X127783838Y-96849812D02*
X127928600Y-96754574D01*
X127928600Y-96754574D02*
X128000980Y-96611717D01*
X128000980Y-96611717D02*
X128000980Y-96516479D01*
X128000980Y-96516479D02*
X127928600Y-96373622D01*
X127928600Y-96373622D02*
X127856219Y-96326003D01*
X127856219Y-96326003D02*
X127349552Y-96326003D01*
X127349552Y-96326003D02*
X127349552Y-96516479D01*
D11*
X116364819Y-93733333D02*
X117079104Y-93733333D01*
X117079104Y-93733333D02*
X117221961Y-93780952D01*
X117221961Y-93780952D02*
X117317200Y-93876190D01*
X117317200Y-93876190D02*
X117364819Y-94019047D01*
X117364819Y-94019047D02*
X117364819Y-94114285D01*
X116364819Y-92780952D02*
X116364819Y-93257142D01*
X116364819Y-93257142D02*
X116841009Y-93304761D01*
X116841009Y-93304761D02*
X116793390Y-93257142D01*
X116793390Y-93257142D02*
X116745771Y-93161904D01*
X116745771Y-93161904D02*
X116745771Y-92923809D01*
X116745771Y-92923809D02*
X116793390Y-92828571D01*
X116793390Y-92828571D02*
X116841009Y-92780952D01*
X116841009Y-92780952D02*
X116936247Y-92733333D01*
X116936247Y-92733333D02*
X117174342Y-92733333D01*
X117174342Y-92733333D02*
X117269580Y-92780952D01*
X117269580Y-92780952D02*
X117317200Y-92828571D01*
X117317200Y-92828571D02*
X117364819Y-92923809D01*
X117364819Y-92923809D02*
X117364819Y-93161904D01*
X117364819Y-93161904D02*
X117317200Y-93257142D01*
X117317200Y-93257142D02*
X117269580Y-93304761D01*
D12*
X107642580Y-62486666D02*
X106928295Y-62486666D01*
X106928295Y-62486666D02*
X106785438Y-62439047D01*
X106785438Y-62439047D02*
X106690200Y-62343809D01*
X106690200Y-62343809D02*
X106642580Y-62200952D01*
X106642580Y-62200952D02*
X106642580Y-62105714D01*
X106642580Y-63486666D02*
X106642580Y-62915238D01*
X106642580Y-63200952D02*
X107642580Y-63200952D01*
X107642580Y-63200952D02*
X107499723Y-63105714D01*
X107499723Y-63105714D02*
X107404485Y-63010476D01*
X107404485Y-63010476D02*
X107356866Y-62915238D01*
D11*
X114964819Y-53233333D02*
X115679104Y-53233333D01*
X115679104Y-53233333D02*
X115821961Y-53280952D01*
X115821961Y-53280952D02*
X115917200Y-53376190D01*
X115917200Y-53376190D02*
X115964819Y-53519047D01*
X115964819Y-53519047D02*
X115964819Y-53614285D01*
X115298152Y-52328571D02*
X115964819Y-52328571D01*
X114917200Y-52566666D02*
X115631485Y-52804761D01*
X115631485Y-52804761D02*
X115631485Y-52185714D01*
D13*
%TO.C,J5*%
X118350000Y-92070000D02*
X119680000Y-92070000D01*
X118350000Y-93400000D02*
X118350000Y-92070000D01*
X120950000Y-92070000D02*
X128630000Y-92070000D01*
X120950000Y-94730000D02*
X120950000Y-92070000D01*
X120950000Y-94730000D02*
X128630000Y-94730000D01*
X128630000Y-94730000D02*
X128630000Y-92070000D01*
%TO.C,J3*%
X142330164Y-72652884D02*
X142330164Y-71322884D01*
X143440164Y-72652884D02*
X142330164Y-72652884D01*
X144900164Y-48102884D02*
X144490164Y-48102884D01*
X144900164Y-48822884D02*
X144490164Y-48822884D01*
X144900164Y-50642884D02*
X144490164Y-50642884D01*
X144900164Y-51362884D02*
X144490164Y-51362884D01*
X144900164Y-53182884D02*
X144490164Y-53182884D01*
X144900164Y-53902884D02*
X144490164Y-53902884D01*
X144900164Y-55722884D02*
X144490164Y-55722884D01*
X144900164Y-56442884D02*
X144490164Y-56442884D01*
X144900164Y-58262884D02*
X144490164Y-58262884D01*
X144900164Y-58982884D02*
X144490164Y-58982884D01*
X144900164Y-60802884D02*
X144490164Y-60802884D01*
X144900164Y-61522884D02*
X144490164Y-61522884D01*
X144900164Y-63342884D02*
X144490164Y-63342884D01*
X144900164Y-64062884D02*
X144490164Y-64062884D01*
X144900164Y-65882884D02*
X144490164Y-65882884D01*
X144900164Y-66602884D02*
X144490164Y-66602884D01*
X144900164Y-68422884D02*
X144490164Y-68422884D01*
X144900164Y-69142884D02*
X144490164Y-69142884D01*
X144900164Y-70962884D02*
X144550164Y-70962884D01*
X144900164Y-71682884D02*
X144550164Y-71682884D01*
X144900164Y-72652884D02*
X144900164Y-47132884D01*
X153530164Y-47132884D02*
X144900164Y-47132884D01*
X153530164Y-49732884D02*
X144900164Y-49732884D01*
X153530164Y-52272884D02*
X144900164Y-52272884D01*
X153530164Y-54812884D02*
X144900164Y-54812884D01*
X153530164Y-57352884D02*
X144900164Y-57352884D01*
X153530164Y-59892884D02*
X144900164Y-59892884D01*
X153530164Y-62432884D02*
X144900164Y-62432884D01*
X153530164Y-64972884D02*
X144900164Y-64972884D01*
X153530164Y-67512884D02*
X144900164Y-67512884D01*
X153530164Y-70052884D02*
X144900164Y-70052884D01*
X153530164Y-70170984D02*
X144900164Y-70170984D01*
X153530164Y-70289079D02*
X144900164Y-70289079D01*
X153530164Y-70407174D02*
X144900164Y-70407174D01*
X153530164Y-70525269D02*
X144900164Y-70525269D01*
X153530164Y-70643364D02*
X144900164Y-70643364D01*
X153530164Y-70761459D02*
X144900164Y-70761459D01*
X153530164Y-70879554D02*
X144900164Y-70879554D01*
X153530164Y-70997649D02*
X144900164Y-70997649D01*
X153530164Y-71115744D02*
X144900164Y-71115744D01*
X153530164Y-71233839D02*
X144900164Y-71233839D01*
X153530164Y-71351934D02*
X144900164Y-71351934D01*
X153530164Y-71470029D02*
X144900164Y-71470029D01*
X153530164Y-71588124D02*
X144900164Y-71588124D01*
X153530164Y-71706219D02*
X144900164Y-71706219D01*
X153530164Y-71824314D02*
X144900164Y-71824314D01*
X153530164Y-71942409D02*
X144900164Y-71942409D01*
X153530164Y-72060504D02*
X144900164Y-72060504D01*
X153530164Y-72178599D02*
X144900164Y-72178599D01*
X153530164Y-72296694D02*
X144900164Y-72296694D01*
X153530164Y-72414789D02*
X144900164Y-72414789D01*
X153530164Y-72532884D02*
X144900164Y-72532884D01*
X153530164Y-72652884D02*
X144900164Y-72652884D01*
X153530164Y-72652884D02*
X153530164Y-47132884D01*
%TO.C,J4*%
X116950000Y-51570000D02*
X118280000Y-51570000D01*
X116950000Y-52900000D02*
X116950000Y-51570000D01*
X119550000Y-51570000D02*
X127230000Y-51570000D01*
X119550000Y-54230000D02*
X119550000Y-51570000D01*
X119550000Y-54230000D02*
X127230000Y-54230000D01*
X127230000Y-54230000D02*
X127230000Y-51570000D01*
%TO.C,J2*%
X142330164Y-108152884D02*
X142330164Y-106822884D01*
X143440164Y-108152884D02*
X142330164Y-108152884D01*
X144900164Y-88682884D02*
X144490164Y-88682884D01*
X144900164Y-89402884D02*
X144490164Y-89402884D01*
X144900164Y-91222884D02*
X144490164Y-91222884D01*
X144900164Y-91942884D02*
X144490164Y-91942884D01*
X144900164Y-93762884D02*
X144490164Y-93762884D01*
X144900164Y-94482884D02*
X144490164Y-94482884D01*
X144900164Y-96302884D02*
X144490164Y-96302884D01*
X144900164Y-97022884D02*
X144490164Y-97022884D01*
X144900164Y-98842884D02*
X144490164Y-98842884D01*
X144900164Y-99562884D02*
X144490164Y-99562884D01*
X144900164Y-101382884D02*
X144490164Y-101382884D01*
X144900164Y-102102884D02*
X144490164Y-102102884D01*
X144900164Y-103922884D02*
X144490164Y-103922884D01*
X144900164Y-104642884D02*
X144490164Y-104642884D01*
X144900164Y-106462884D02*
X144550164Y-106462884D01*
X144900164Y-107182884D02*
X144550164Y-107182884D01*
X144900164Y-108152884D02*
X144900164Y-87712884D01*
X153530164Y-87712884D02*
X144900164Y-87712884D01*
X153530164Y-90312884D02*
X144900164Y-90312884D01*
X153530164Y-92852884D02*
X144900164Y-92852884D01*
X153530164Y-95392884D02*
X144900164Y-95392884D01*
X153530164Y-97932884D02*
X144900164Y-97932884D01*
X153530164Y-100472884D02*
X144900164Y-100472884D01*
X153530164Y-103012884D02*
X144900164Y-103012884D01*
X153530164Y-105552884D02*
X144900164Y-105552884D01*
X153530164Y-105670984D02*
X144900164Y-105670984D01*
X153530164Y-105789079D02*
X144900164Y-105789079D01*
X153530164Y-105907174D02*
X144900164Y-105907174D01*
X153530164Y-106025269D02*
X144900164Y-106025269D01*
X153530164Y-106143364D02*
X144900164Y-106143364D01*
X153530164Y-106261459D02*
X144900164Y-106261459D01*
X153530164Y-106379554D02*
X144900164Y-106379554D01*
X153530164Y-106497649D02*
X144900164Y-106497649D01*
X153530164Y-106615744D02*
X144900164Y-106615744D01*
X153530164Y-106733839D02*
X144900164Y-106733839D01*
X153530164Y-106851934D02*
X144900164Y-106851934D01*
X153530164Y-106970029D02*
X144900164Y-106970029D01*
X153530164Y-107088124D02*
X144900164Y-107088124D01*
X153530164Y-107206219D02*
X144900164Y-107206219D01*
X153530164Y-107324314D02*
X144900164Y-107324314D01*
X153530164Y-107442409D02*
X144900164Y-107442409D01*
X153530164Y-107560504D02*
X144900164Y-107560504D01*
X153530164Y-107678599D02*
X144900164Y-107678599D01*
X153530164Y-107796694D02*
X144900164Y-107796694D01*
X153530164Y-107914789D02*
X144900164Y-107914789D01*
X153530164Y-108032884D02*
X144900164Y-108032884D01*
X153530164Y-108152884D02*
X144900164Y-108152884D01*
X153530164Y-108152884D02*
X153530164Y-87712884D01*
%TD*%
M02*
