%TF.GenerationSoftware,KiCad,Pcbnew,9.0.2*%
%TF.CreationDate,2025-06-12T08:57:52+10:00*%
%TF.ProjectId,F0-uConsole,46302d75-436f-46e7-936f-6c652e6b6963,rev?*%
%TF.SameCoordinates,Original*%
%TF.FileFunction,Legend,Bot*%
%TF.FilePolarity,Positive*%
%FSLAX46Y46*%
G04 Gerber Fmt 4.6, Leading zero omitted, Abs format (unit mm)*
G04 Created by KiCad (PCBNEW 9.0.2) date 2025-06-12 08:57:52*
%MOMM*%
%LPD*%
G01*
G04 APERTURE LIST*
%ADD10C,0.250000*%
%ADD11C,0.120000*%
G04 APERTURE END LIST*
D10*
X116760532Y-51492854D02*
X117773865Y-51492854D01*
X116760532Y-51064283D02*
X117556723Y-51064283D01*
X117556723Y-51064283D02*
X117701485Y-51111902D01*
X117701485Y-51111902D02*
X117773865Y-51207140D01*
X117773865Y-51207140D02*
X117773865Y-51349997D01*
X117773865Y-51349997D02*
X117701485Y-51445235D01*
X117701485Y-51445235D02*
X117629104Y-51492854D01*
X117629104Y-52540473D02*
X117701485Y-52492854D01*
X117701485Y-52492854D02*
X117773865Y-52349997D01*
X117773865Y-52349997D02*
X117773865Y-52254759D01*
X117773865Y-52254759D02*
X117701485Y-52111902D01*
X117701485Y-52111902D02*
X117556723Y-52016664D01*
X117556723Y-52016664D02*
X117411961Y-51969045D01*
X117411961Y-51969045D02*
X117122437Y-51921426D01*
X117122437Y-51921426D02*
X116905294Y-51921426D01*
X116905294Y-51921426D02*
X116615770Y-51969045D01*
X116615770Y-51969045D02*
X116471008Y-52016664D01*
X116471008Y-52016664D02*
X116326246Y-52111902D01*
X116326246Y-52111902D02*
X116253865Y-52254759D01*
X116253865Y-52254759D02*
X116253865Y-52349997D01*
X116253865Y-52349997D02*
X116326246Y-52492854D01*
X116326246Y-52492854D02*
X116398627Y-52540473D01*
X117773865Y-53111902D02*
X117701485Y-53016664D01*
X117701485Y-53016664D02*
X117629104Y-52969045D01*
X117629104Y-52969045D02*
X117484342Y-52921426D01*
X117484342Y-52921426D02*
X117050056Y-52921426D01*
X117050056Y-52921426D02*
X116905294Y-52969045D01*
X116905294Y-52969045D02*
X116832913Y-53016664D01*
X116832913Y-53016664D02*
X116760532Y-53111902D01*
X116760532Y-53111902D02*
X116760532Y-53254759D01*
X116760532Y-53254759D02*
X116832913Y-53349997D01*
X116832913Y-53349997D02*
X116905294Y-53397616D01*
X116905294Y-53397616D02*
X117050056Y-53445235D01*
X117050056Y-53445235D02*
X117484342Y-53445235D01*
X117484342Y-53445235D02*
X117629104Y-53397616D01*
X117629104Y-53397616D02*
X117701485Y-53349997D01*
X117701485Y-53349997D02*
X117773865Y-53254759D01*
X117773865Y-53254759D02*
X117773865Y-53111902D01*
X116760532Y-53873807D02*
X117773865Y-53873807D01*
X116905294Y-53873807D02*
X116832913Y-53921426D01*
X116832913Y-53921426D02*
X116760532Y-54016664D01*
X116760532Y-54016664D02*
X116760532Y-54159521D01*
X116760532Y-54159521D02*
X116832913Y-54254759D01*
X116832913Y-54254759D02*
X116977675Y-54302378D01*
X116977675Y-54302378D02*
X117773865Y-54302378D01*
X117701485Y-54730950D02*
X117773865Y-54826188D01*
X117773865Y-54826188D02*
X117773865Y-55016664D01*
X117773865Y-55016664D02*
X117701485Y-55111902D01*
X117701485Y-55111902D02*
X117556723Y-55159521D01*
X117556723Y-55159521D02*
X117484342Y-55159521D01*
X117484342Y-55159521D02*
X117339580Y-55111902D01*
X117339580Y-55111902D02*
X117267199Y-55016664D01*
X117267199Y-55016664D02*
X117267199Y-54873807D01*
X117267199Y-54873807D02*
X117194818Y-54778569D01*
X117194818Y-54778569D02*
X117050056Y-54730950D01*
X117050056Y-54730950D02*
X116977675Y-54730950D01*
X116977675Y-54730950D02*
X116832913Y-54778569D01*
X116832913Y-54778569D02*
X116760532Y-54873807D01*
X116760532Y-54873807D02*
X116760532Y-55016664D01*
X116760532Y-55016664D02*
X116832913Y-55111902D01*
X117773865Y-55730950D02*
X117701485Y-55635712D01*
X117701485Y-55635712D02*
X117629104Y-55588093D01*
X117629104Y-55588093D02*
X117484342Y-55540474D01*
X117484342Y-55540474D02*
X117050056Y-55540474D01*
X117050056Y-55540474D02*
X116905294Y-55588093D01*
X116905294Y-55588093D02*
X116832913Y-55635712D01*
X116832913Y-55635712D02*
X116760532Y-55730950D01*
X116760532Y-55730950D02*
X116760532Y-55873807D01*
X116760532Y-55873807D02*
X116832913Y-55969045D01*
X116832913Y-55969045D02*
X116905294Y-56016664D01*
X116905294Y-56016664D02*
X117050056Y-56064283D01*
X117050056Y-56064283D02*
X117484342Y-56064283D01*
X117484342Y-56064283D02*
X117629104Y-56016664D01*
X117629104Y-56016664D02*
X117701485Y-55969045D01*
X117701485Y-55969045D02*
X117773865Y-55873807D01*
X117773865Y-55873807D02*
X117773865Y-55730950D01*
X117773865Y-56635712D02*
X117701485Y-56540474D01*
X117701485Y-56540474D02*
X117556723Y-56492855D01*
X117556723Y-56492855D02*
X116253865Y-56492855D01*
X117701485Y-57397617D02*
X117773865Y-57302379D01*
X117773865Y-57302379D02*
X117773865Y-57111903D01*
X117773865Y-57111903D02*
X117701485Y-57016665D01*
X117701485Y-57016665D02*
X117556723Y-56969046D01*
X117556723Y-56969046D02*
X116977675Y-56969046D01*
X116977675Y-56969046D02*
X116832913Y-57016665D01*
X116832913Y-57016665D02*
X116760532Y-57111903D01*
X116760532Y-57111903D02*
X116760532Y-57302379D01*
X116760532Y-57302379D02*
X116832913Y-57397617D01*
X116832913Y-57397617D02*
X116977675Y-57445236D01*
X116977675Y-57445236D02*
X117122437Y-57445236D01*
X117122437Y-57445236D02*
X117267199Y-56969046D01*
X116760532Y-58492856D02*
X116760532Y-58873808D01*
X116253865Y-58635713D02*
X117556723Y-58635713D01*
X117556723Y-58635713D02*
X117701485Y-58683332D01*
X117701485Y-58683332D02*
X117773865Y-58778570D01*
X117773865Y-58778570D02*
X117773865Y-58873808D01*
X117773865Y-59349999D02*
X117701485Y-59254761D01*
X117701485Y-59254761D02*
X117629104Y-59207142D01*
X117629104Y-59207142D02*
X117484342Y-59159523D01*
X117484342Y-59159523D02*
X117050056Y-59159523D01*
X117050056Y-59159523D02*
X116905294Y-59207142D01*
X116905294Y-59207142D02*
X116832913Y-59254761D01*
X116832913Y-59254761D02*
X116760532Y-59349999D01*
X116760532Y-59349999D02*
X116760532Y-59492856D01*
X116760532Y-59492856D02*
X116832913Y-59588094D01*
X116832913Y-59588094D02*
X116905294Y-59635713D01*
X116905294Y-59635713D02*
X117050056Y-59683332D01*
X117050056Y-59683332D02*
X117484342Y-59683332D01*
X117484342Y-59683332D02*
X117629104Y-59635713D01*
X117629104Y-59635713D02*
X117701485Y-59588094D01*
X117701485Y-59588094D02*
X117773865Y-59492856D01*
X117773865Y-59492856D02*
X117773865Y-59349999D01*
X116977675Y-61207142D02*
X116977675Y-60873809D01*
X117773865Y-60873809D02*
X116253865Y-60873809D01*
X116253865Y-60873809D02*
X116253865Y-61349999D01*
X117773865Y-61873809D02*
X117701485Y-61778571D01*
X117701485Y-61778571D02*
X117556723Y-61730952D01*
X117556723Y-61730952D02*
X116253865Y-61730952D01*
X117773865Y-62254762D02*
X116760532Y-62254762D01*
X116253865Y-62254762D02*
X116326246Y-62207143D01*
X116326246Y-62207143D02*
X116398627Y-62254762D01*
X116398627Y-62254762D02*
X116326246Y-62302381D01*
X116326246Y-62302381D02*
X116253865Y-62254762D01*
X116253865Y-62254762D02*
X116398627Y-62254762D01*
X116760532Y-62730952D02*
X118280532Y-62730952D01*
X116832913Y-62730952D02*
X116760532Y-62826190D01*
X116760532Y-62826190D02*
X116760532Y-63016666D01*
X116760532Y-63016666D02*
X116832913Y-63111904D01*
X116832913Y-63111904D02*
X116905294Y-63159523D01*
X116905294Y-63159523D02*
X117050056Y-63207142D01*
X117050056Y-63207142D02*
X117484342Y-63207142D01*
X117484342Y-63207142D02*
X117629104Y-63159523D01*
X117629104Y-63159523D02*
X117701485Y-63111904D01*
X117701485Y-63111904D02*
X117773865Y-63016666D01*
X117773865Y-63016666D02*
X117773865Y-62826190D01*
X117773865Y-62826190D02*
X117701485Y-62730952D01*
X116760532Y-63635714D02*
X118280532Y-63635714D01*
X116832913Y-63635714D02*
X116760532Y-63730952D01*
X116760532Y-63730952D02*
X116760532Y-63921428D01*
X116760532Y-63921428D02*
X116832913Y-64016666D01*
X116832913Y-64016666D02*
X116905294Y-64064285D01*
X116905294Y-64064285D02*
X117050056Y-64111904D01*
X117050056Y-64111904D02*
X117484342Y-64111904D01*
X117484342Y-64111904D02*
X117629104Y-64064285D01*
X117629104Y-64064285D02*
X117701485Y-64016666D01*
X117701485Y-64016666D02*
X117773865Y-63921428D01*
X117773865Y-63921428D02*
X117773865Y-63730952D01*
X117773865Y-63730952D02*
X117701485Y-63635714D01*
X117701485Y-64921428D02*
X117773865Y-64826190D01*
X117773865Y-64826190D02*
X117773865Y-64635714D01*
X117773865Y-64635714D02*
X117701485Y-64540476D01*
X117701485Y-64540476D02*
X117556723Y-64492857D01*
X117556723Y-64492857D02*
X116977675Y-64492857D01*
X116977675Y-64492857D02*
X116832913Y-64540476D01*
X116832913Y-64540476D02*
X116760532Y-64635714D01*
X116760532Y-64635714D02*
X116760532Y-64826190D01*
X116760532Y-64826190D02*
X116832913Y-64921428D01*
X116832913Y-64921428D02*
X116977675Y-64969047D01*
X116977675Y-64969047D02*
X117122437Y-64969047D01*
X117122437Y-64969047D02*
X117267199Y-64492857D01*
X117773865Y-65397619D02*
X116760532Y-65397619D01*
X117050056Y-65397619D02*
X116905294Y-65445238D01*
X116905294Y-65445238D02*
X116832913Y-65492857D01*
X116832913Y-65492857D02*
X116760532Y-65588095D01*
X116760532Y-65588095D02*
X116760532Y-65683333D01*
X116253865Y-65921429D02*
X116253865Y-66588095D01*
X116253865Y-66588095D02*
X117773865Y-65921429D01*
X117773865Y-65921429D02*
X117773865Y-66588095D01*
X117701485Y-67350000D02*
X117773865Y-67254762D01*
X117773865Y-67254762D02*
X117773865Y-67064286D01*
X117773865Y-67064286D02*
X117701485Y-66969048D01*
X117701485Y-66969048D02*
X117556723Y-66921429D01*
X117556723Y-66921429D02*
X116977675Y-66921429D01*
X116977675Y-66921429D02*
X116832913Y-66969048D01*
X116832913Y-66969048D02*
X116760532Y-67064286D01*
X116760532Y-67064286D02*
X116760532Y-67254762D01*
X116760532Y-67254762D02*
X116832913Y-67350000D01*
X116832913Y-67350000D02*
X116977675Y-67397619D01*
X116977675Y-67397619D02*
X117122437Y-67397619D01*
X117122437Y-67397619D02*
X117267199Y-66921429D01*
X117773865Y-67826191D02*
X116760532Y-67826191D01*
X117050056Y-67826191D02*
X116905294Y-67873810D01*
X116905294Y-67873810D02*
X116832913Y-67921429D01*
X116832913Y-67921429D02*
X116760532Y-68016667D01*
X116760532Y-68016667D02*
X116760532Y-68111905D01*
X117773865Y-68588096D02*
X117701485Y-68492858D01*
X117701485Y-68492858D02*
X117629104Y-68445239D01*
X117629104Y-68445239D02*
X117484342Y-68397620D01*
X117484342Y-68397620D02*
X117050056Y-68397620D01*
X117050056Y-68397620D02*
X116905294Y-68445239D01*
X116905294Y-68445239D02*
X116832913Y-68492858D01*
X116832913Y-68492858D02*
X116760532Y-68588096D01*
X116760532Y-68588096D02*
X116760532Y-68730953D01*
X116760532Y-68730953D02*
X116832913Y-68826191D01*
X116832913Y-68826191D02*
X116905294Y-68873810D01*
X116905294Y-68873810D02*
X117050056Y-68921429D01*
X117050056Y-68921429D02*
X117484342Y-68921429D01*
X117484342Y-68921429D02*
X117629104Y-68873810D01*
X117629104Y-68873810D02*
X117701485Y-68826191D01*
X117701485Y-68826191D02*
X117773865Y-68730953D01*
X117773865Y-68730953D02*
X117773865Y-68588096D01*
X117773865Y-70111906D02*
X116253865Y-70111906D01*
X116253865Y-70111906D02*
X117339580Y-70445239D01*
X117339580Y-70445239D02*
X116253865Y-70778572D01*
X116253865Y-70778572D02*
X117773865Y-70778572D01*
X117773865Y-71397620D02*
X117701485Y-71302382D01*
X117701485Y-71302382D02*
X117629104Y-71254763D01*
X117629104Y-71254763D02*
X117484342Y-71207144D01*
X117484342Y-71207144D02*
X117050056Y-71207144D01*
X117050056Y-71207144D02*
X116905294Y-71254763D01*
X116905294Y-71254763D02*
X116832913Y-71302382D01*
X116832913Y-71302382D02*
X116760532Y-71397620D01*
X116760532Y-71397620D02*
X116760532Y-71540477D01*
X116760532Y-71540477D02*
X116832913Y-71635715D01*
X116832913Y-71635715D02*
X116905294Y-71683334D01*
X116905294Y-71683334D02*
X117050056Y-71730953D01*
X117050056Y-71730953D02*
X117484342Y-71730953D01*
X117484342Y-71730953D02*
X117629104Y-71683334D01*
X117629104Y-71683334D02*
X117701485Y-71635715D01*
X117701485Y-71635715D02*
X117773865Y-71540477D01*
X117773865Y-71540477D02*
X117773865Y-71397620D01*
X117773865Y-72588096D02*
X116253865Y-72588096D01*
X117701485Y-72588096D02*
X117773865Y-72492858D01*
X117773865Y-72492858D02*
X117773865Y-72302382D01*
X117773865Y-72302382D02*
X117701485Y-72207144D01*
X117701485Y-72207144D02*
X117629104Y-72159525D01*
X117629104Y-72159525D02*
X117484342Y-72111906D01*
X117484342Y-72111906D02*
X117050056Y-72111906D01*
X117050056Y-72111906D02*
X116905294Y-72159525D01*
X116905294Y-72159525D02*
X116832913Y-72207144D01*
X116832913Y-72207144D02*
X116760532Y-72302382D01*
X116760532Y-72302382D02*
X116760532Y-72492858D01*
X116760532Y-72492858D02*
X116832913Y-72588096D01*
X116760532Y-73492858D02*
X117773865Y-73492858D01*
X116760532Y-73064287D02*
X117556723Y-73064287D01*
X117556723Y-73064287D02*
X117701485Y-73111906D01*
X117701485Y-73111906D02*
X117773865Y-73207144D01*
X117773865Y-73207144D02*
X117773865Y-73350001D01*
X117773865Y-73350001D02*
X117701485Y-73445239D01*
X117701485Y-73445239D02*
X117629104Y-73492858D01*
X117773865Y-74111906D02*
X117701485Y-74016668D01*
X117701485Y-74016668D02*
X117556723Y-73969049D01*
X117556723Y-73969049D02*
X116253865Y-73969049D01*
X117701485Y-74873811D02*
X117773865Y-74778573D01*
X117773865Y-74778573D02*
X117773865Y-74588097D01*
X117773865Y-74588097D02*
X117701485Y-74492859D01*
X117701485Y-74492859D02*
X117556723Y-74445240D01*
X117556723Y-74445240D02*
X116977675Y-74445240D01*
X116977675Y-74445240D02*
X116832913Y-74492859D01*
X116832913Y-74492859D02*
X116760532Y-74588097D01*
X116760532Y-74588097D02*
X116760532Y-74778573D01*
X116760532Y-74778573D02*
X116832913Y-74873811D01*
X116832913Y-74873811D02*
X116977675Y-74921430D01*
X116977675Y-74921430D02*
X117122437Y-74921430D01*
X117122437Y-74921430D02*
X117267199Y-74445240D01*
X120220980Y-51564284D02*
X118700980Y-51564284D01*
X119424790Y-51564284D02*
X119424790Y-52135712D01*
X120220980Y-52135712D02*
X118700980Y-52135712D01*
X120220980Y-53040474D02*
X119424790Y-53040474D01*
X119424790Y-53040474D02*
X119280028Y-52992855D01*
X119280028Y-52992855D02*
X119207647Y-52897617D01*
X119207647Y-52897617D02*
X119207647Y-52707141D01*
X119207647Y-52707141D02*
X119280028Y-52611903D01*
X120148600Y-53040474D02*
X120220980Y-52945236D01*
X120220980Y-52945236D02*
X120220980Y-52707141D01*
X120220980Y-52707141D02*
X120148600Y-52611903D01*
X120148600Y-52611903D02*
X120003838Y-52564284D01*
X120003838Y-52564284D02*
X119859076Y-52564284D01*
X119859076Y-52564284D02*
X119714314Y-52611903D01*
X119714314Y-52611903D02*
X119641933Y-52707141D01*
X119641933Y-52707141D02*
X119641933Y-52945236D01*
X119641933Y-52945236D02*
X119569552Y-53040474D01*
X120148600Y-53945236D02*
X120220980Y-53849998D01*
X120220980Y-53849998D02*
X120220980Y-53659522D01*
X120220980Y-53659522D02*
X120148600Y-53564284D01*
X120148600Y-53564284D02*
X120076219Y-53516665D01*
X120076219Y-53516665D02*
X119931457Y-53469046D01*
X119931457Y-53469046D02*
X119497171Y-53469046D01*
X119497171Y-53469046D02*
X119352409Y-53516665D01*
X119352409Y-53516665D02*
X119280028Y-53564284D01*
X119280028Y-53564284D02*
X119207647Y-53659522D01*
X119207647Y-53659522D02*
X119207647Y-53849998D01*
X119207647Y-53849998D02*
X119280028Y-53945236D01*
X120220980Y-54373808D02*
X118700980Y-54373808D01*
X119641933Y-54469046D02*
X120220980Y-54754760D01*
X119207647Y-54754760D02*
X119786695Y-54373808D01*
X120148600Y-55564284D02*
X120220980Y-55469046D01*
X120220980Y-55469046D02*
X120220980Y-55278570D01*
X120220980Y-55278570D02*
X120148600Y-55183332D01*
X120148600Y-55183332D02*
X120003838Y-55135713D01*
X120003838Y-55135713D02*
X119424790Y-55135713D01*
X119424790Y-55135713D02*
X119280028Y-55183332D01*
X119280028Y-55183332D02*
X119207647Y-55278570D01*
X119207647Y-55278570D02*
X119207647Y-55469046D01*
X119207647Y-55469046D02*
X119280028Y-55564284D01*
X119280028Y-55564284D02*
X119424790Y-55611903D01*
X119424790Y-55611903D02*
X119569552Y-55611903D01*
X119569552Y-55611903D02*
X119714314Y-55135713D01*
X120220980Y-56469046D02*
X118700980Y-56469046D01*
X120148600Y-56469046D02*
X120220980Y-56373808D01*
X120220980Y-56373808D02*
X120220980Y-56183332D01*
X120220980Y-56183332D02*
X120148600Y-56088094D01*
X120148600Y-56088094D02*
X120076219Y-56040475D01*
X120076219Y-56040475D02*
X119931457Y-55992856D01*
X119931457Y-55992856D02*
X119497171Y-55992856D01*
X119497171Y-55992856D02*
X119352409Y-56040475D01*
X119352409Y-56040475D02*
X119280028Y-56088094D01*
X119280028Y-56088094D02*
X119207647Y-56183332D01*
X119207647Y-56183332D02*
X119207647Y-56373808D01*
X119207647Y-56373808D02*
X119280028Y-56469046D01*
X119207647Y-57564285D02*
X119207647Y-57945237D01*
X118700980Y-57707142D02*
X120003838Y-57707142D01*
X120003838Y-57707142D02*
X120148600Y-57754761D01*
X120148600Y-57754761D02*
X120220980Y-57849999D01*
X120220980Y-57849999D02*
X120220980Y-57945237D01*
X120220980Y-58421428D02*
X120148600Y-58326190D01*
X120148600Y-58326190D02*
X120076219Y-58278571D01*
X120076219Y-58278571D02*
X119931457Y-58230952D01*
X119931457Y-58230952D02*
X119497171Y-58230952D01*
X119497171Y-58230952D02*
X119352409Y-58278571D01*
X119352409Y-58278571D02*
X119280028Y-58326190D01*
X119280028Y-58326190D02*
X119207647Y-58421428D01*
X119207647Y-58421428D02*
X119207647Y-58564285D01*
X119207647Y-58564285D02*
X119280028Y-58659523D01*
X119280028Y-58659523D02*
X119352409Y-58707142D01*
X119352409Y-58707142D02*
X119497171Y-58754761D01*
X119497171Y-58754761D02*
X119931457Y-58754761D01*
X119931457Y-58754761D02*
X120076219Y-58707142D01*
X120076219Y-58707142D02*
X120148600Y-58659523D01*
X120148600Y-58659523D02*
X120220980Y-58564285D01*
X120220980Y-58564285D02*
X120220980Y-58421428D01*
X119207647Y-59611904D02*
X120438123Y-59611904D01*
X120438123Y-59611904D02*
X120582885Y-59564285D01*
X120582885Y-59564285D02*
X120655266Y-59516666D01*
X120655266Y-59516666D02*
X120727647Y-59421428D01*
X120727647Y-59421428D02*
X120727647Y-59278571D01*
X120727647Y-59278571D02*
X120655266Y-59183333D01*
X120148600Y-59611904D02*
X120220980Y-59516666D01*
X120220980Y-59516666D02*
X120220980Y-59326190D01*
X120220980Y-59326190D02*
X120148600Y-59230952D01*
X120148600Y-59230952D02*
X120076219Y-59183333D01*
X120076219Y-59183333D02*
X119931457Y-59135714D01*
X119931457Y-59135714D02*
X119497171Y-59135714D01*
X119497171Y-59135714D02*
X119352409Y-59183333D01*
X119352409Y-59183333D02*
X119280028Y-59230952D01*
X119280028Y-59230952D02*
X119207647Y-59326190D01*
X119207647Y-59326190D02*
X119207647Y-59516666D01*
X119207647Y-59516666D02*
X119280028Y-59611904D01*
X120148600Y-60469047D02*
X120220980Y-60373809D01*
X120220980Y-60373809D02*
X120220980Y-60183333D01*
X120220980Y-60183333D02*
X120148600Y-60088095D01*
X120148600Y-60088095D02*
X120003838Y-60040476D01*
X120003838Y-60040476D02*
X119424790Y-60040476D01*
X119424790Y-60040476D02*
X119280028Y-60088095D01*
X119280028Y-60088095D02*
X119207647Y-60183333D01*
X119207647Y-60183333D02*
X119207647Y-60373809D01*
X119207647Y-60373809D02*
X119280028Y-60469047D01*
X119280028Y-60469047D02*
X119424790Y-60516666D01*
X119424790Y-60516666D02*
X119569552Y-60516666D01*
X119569552Y-60516666D02*
X119714314Y-60040476D01*
X119207647Y-60802381D02*
X119207647Y-61183333D01*
X118700980Y-60945238D02*
X120003838Y-60945238D01*
X120003838Y-60945238D02*
X120148600Y-60992857D01*
X120148600Y-60992857D02*
X120220980Y-61088095D01*
X120220980Y-61088095D02*
X120220980Y-61183333D01*
X120220980Y-61516667D02*
X118700980Y-61516667D01*
X120220980Y-61945238D02*
X119424790Y-61945238D01*
X119424790Y-61945238D02*
X119280028Y-61897619D01*
X119280028Y-61897619D02*
X119207647Y-61802381D01*
X119207647Y-61802381D02*
X119207647Y-61659524D01*
X119207647Y-61659524D02*
X119280028Y-61564286D01*
X119280028Y-61564286D02*
X119352409Y-61516667D01*
X120148600Y-62802381D02*
X120220980Y-62707143D01*
X120220980Y-62707143D02*
X120220980Y-62516667D01*
X120220980Y-62516667D02*
X120148600Y-62421429D01*
X120148600Y-62421429D02*
X120003838Y-62373810D01*
X120003838Y-62373810D02*
X119424790Y-62373810D01*
X119424790Y-62373810D02*
X119280028Y-62421429D01*
X119280028Y-62421429D02*
X119207647Y-62516667D01*
X119207647Y-62516667D02*
X119207647Y-62707143D01*
X119207647Y-62707143D02*
X119280028Y-62802381D01*
X119280028Y-62802381D02*
X119424790Y-62850000D01*
X119424790Y-62850000D02*
X119569552Y-62850000D01*
X119569552Y-62850000D02*
X119714314Y-62373810D01*
X120220980Y-63278572D02*
X119207647Y-63278572D01*
X119497171Y-63278572D02*
X119352409Y-63326191D01*
X119352409Y-63326191D02*
X119280028Y-63373810D01*
X119280028Y-63373810D02*
X119207647Y-63469048D01*
X119207647Y-63469048D02*
X119207647Y-63564286D01*
X120220980Y-64659525D02*
X118700980Y-64659525D01*
X119280028Y-64659525D02*
X119207647Y-64754763D01*
X119207647Y-64754763D02*
X119207647Y-64945239D01*
X119207647Y-64945239D02*
X119280028Y-65040477D01*
X119280028Y-65040477D02*
X119352409Y-65088096D01*
X119352409Y-65088096D02*
X119497171Y-65135715D01*
X119497171Y-65135715D02*
X119931457Y-65135715D01*
X119931457Y-65135715D02*
X120076219Y-65088096D01*
X120076219Y-65088096D02*
X120148600Y-65040477D01*
X120148600Y-65040477D02*
X120220980Y-64945239D01*
X120220980Y-64945239D02*
X120220980Y-64754763D01*
X120220980Y-64754763D02*
X120148600Y-64659525D01*
X119207647Y-65469049D02*
X120220980Y-65707144D01*
X119207647Y-65945239D02*
X120220980Y-65707144D01*
X120220980Y-65707144D02*
X120582885Y-65611906D01*
X120582885Y-65611906D02*
X120655266Y-65564287D01*
X120655266Y-65564287D02*
X120727647Y-65469049D01*
X118700980Y-66945240D02*
X118700980Y-67516668D01*
X120220980Y-67230954D02*
X118700980Y-67230954D01*
X120220980Y-67850002D02*
X119207647Y-67850002D01*
X118700980Y-67850002D02*
X118773361Y-67802383D01*
X118773361Y-67802383D02*
X118845742Y-67850002D01*
X118845742Y-67850002D02*
X118773361Y-67897621D01*
X118773361Y-67897621D02*
X118700980Y-67850002D01*
X118700980Y-67850002D02*
X118845742Y-67850002D01*
X120220980Y-68326192D02*
X119207647Y-68326192D01*
X119352409Y-68326192D02*
X119280028Y-68373811D01*
X119280028Y-68373811D02*
X119207647Y-68469049D01*
X119207647Y-68469049D02*
X119207647Y-68611906D01*
X119207647Y-68611906D02*
X119280028Y-68707144D01*
X119280028Y-68707144D02*
X119424790Y-68754763D01*
X119424790Y-68754763D02*
X120220980Y-68754763D01*
X119424790Y-68754763D02*
X119280028Y-68802382D01*
X119280028Y-68802382D02*
X119207647Y-68897620D01*
X119207647Y-68897620D02*
X119207647Y-69040477D01*
X119207647Y-69040477D02*
X119280028Y-69135716D01*
X119280028Y-69135716D02*
X119424790Y-69183335D01*
X119424790Y-69183335D02*
X120220980Y-69183335D01*
X120220980Y-69659525D02*
X119207647Y-69659525D01*
X119352409Y-69659525D02*
X119280028Y-69707144D01*
X119280028Y-69707144D02*
X119207647Y-69802382D01*
X119207647Y-69802382D02*
X119207647Y-69945239D01*
X119207647Y-69945239D02*
X119280028Y-70040477D01*
X119280028Y-70040477D02*
X119424790Y-70088096D01*
X119424790Y-70088096D02*
X120220980Y-70088096D01*
X119424790Y-70088096D02*
X119280028Y-70135715D01*
X119280028Y-70135715D02*
X119207647Y-70230953D01*
X119207647Y-70230953D02*
X119207647Y-70373810D01*
X119207647Y-70373810D02*
X119280028Y-70469049D01*
X119280028Y-70469049D02*
X119424790Y-70516668D01*
X119424790Y-70516668D02*
X120220980Y-70516668D01*
X120220980Y-71135715D02*
X120148600Y-71040477D01*
X120148600Y-71040477D02*
X120076219Y-70992858D01*
X120076219Y-70992858D02*
X119931457Y-70945239D01*
X119931457Y-70945239D02*
X119497171Y-70945239D01*
X119497171Y-70945239D02*
X119352409Y-70992858D01*
X119352409Y-70992858D02*
X119280028Y-71040477D01*
X119280028Y-71040477D02*
X119207647Y-71135715D01*
X119207647Y-71135715D02*
X119207647Y-71278572D01*
X119207647Y-71278572D02*
X119280028Y-71373810D01*
X119280028Y-71373810D02*
X119352409Y-71421429D01*
X119352409Y-71421429D02*
X119497171Y-71469048D01*
X119497171Y-71469048D02*
X119931457Y-71469048D01*
X119931457Y-71469048D02*
X120076219Y-71421429D01*
X120076219Y-71421429D02*
X120148600Y-71373810D01*
X120148600Y-71373810D02*
X120220980Y-71278572D01*
X120220980Y-71278572D02*
X120220980Y-71135715D01*
X119207647Y-71754763D02*
X119207647Y-72135715D01*
X118700980Y-71897620D02*
X120003838Y-71897620D01*
X120003838Y-71897620D02*
X120148600Y-71945239D01*
X120148600Y-71945239D02*
X120220980Y-72040477D01*
X120220980Y-72040477D02*
X120220980Y-72135715D01*
X120220980Y-72611906D02*
X120148600Y-72516668D01*
X120148600Y-72516668D02*
X120076219Y-72469049D01*
X120076219Y-72469049D02*
X119931457Y-72421430D01*
X119931457Y-72421430D02*
X119497171Y-72421430D01*
X119497171Y-72421430D02*
X119352409Y-72469049D01*
X119352409Y-72469049D02*
X119280028Y-72516668D01*
X119280028Y-72516668D02*
X119207647Y-72611906D01*
X119207647Y-72611906D02*
X119207647Y-72754763D01*
X119207647Y-72754763D02*
X119280028Y-72850001D01*
X119280028Y-72850001D02*
X119352409Y-72897620D01*
X119352409Y-72897620D02*
X119497171Y-72945239D01*
X119497171Y-72945239D02*
X119931457Y-72945239D01*
X119931457Y-72945239D02*
X120076219Y-72897620D01*
X120076219Y-72897620D02*
X120148600Y-72850001D01*
X120148600Y-72850001D02*
X120220980Y-72754763D01*
X120220980Y-72754763D02*
X120220980Y-72611906D01*
X120220980Y-73516668D02*
X120148600Y-73421430D01*
X120148600Y-73421430D02*
X120076219Y-73373811D01*
X120076219Y-73373811D02*
X119931457Y-73326192D01*
X119931457Y-73326192D02*
X119497171Y-73326192D01*
X119497171Y-73326192D02*
X119352409Y-73373811D01*
X119352409Y-73373811D02*
X119280028Y-73421430D01*
X119280028Y-73421430D02*
X119207647Y-73516668D01*
X119207647Y-73516668D02*
X119207647Y-73659525D01*
X119207647Y-73659525D02*
X119280028Y-73754763D01*
X119280028Y-73754763D02*
X119352409Y-73802382D01*
X119352409Y-73802382D02*
X119497171Y-73850001D01*
X119497171Y-73850001D02*
X119931457Y-73850001D01*
X119931457Y-73850001D02*
X120076219Y-73802382D01*
X120076219Y-73802382D02*
X120148600Y-73754763D01*
X120148600Y-73754763D02*
X120220980Y-73659525D01*
X120220980Y-73659525D02*
X120220980Y-73516668D01*
X120220980Y-74421430D02*
X120148600Y-74326192D01*
X120148600Y-74326192D02*
X120003838Y-74278573D01*
X120003838Y-74278573D02*
X118700980Y-74278573D01*
X120148600Y-74754764D02*
X120220980Y-74850002D01*
X120220980Y-74850002D02*
X120220980Y-75040478D01*
X120220980Y-75040478D02*
X120148600Y-75135716D01*
X120148600Y-75135716D02*
X120003838Y-75183335D01*
X120003838Y-75183335D02*
X119931457Y-75183335D01*
X119931457Y-75183335D02*
X119786695Y-75135716D01*
X119786695Y-75135716D02*
X119714314Y-75040478D01*
X119714314Y-75040478D02*
X119714314Y-74897621D01*
X119714314Y-74897621D02*
X119641933Y-74802383D01*
X119641933Y-74802383D02*
X119497171Y-74754764D01*
X119497171Y-74754764D02*
X119424790Y-74754764D01*
X119424790Y-74754764D02*
X119280028Y-74802383D01*
X119280028Y-74802383D02*
X119207647Y-74897621D01*
X119207647Y-74897621D02*
X119207647Y-75040478D01*
X119207647Y-75040478D02*
X119280028Y-75135716D01*
D11*
%TO.C,J3*%
X147169918Y-82558558D02*
X147169918Y-83888558D01*
X148279918Y-82558558D02*
X147169918Y-82558558D01*
X149739918Y-82558558D02*
X149739918Y-108078558D01*
X149739918Y-83528558D02*
X149389918Y-83528558D01*
X149739918Y-84248558D02*
X149389918Y-84248558D01*
X149739918Y-86068558D02*
X149329918Y-86068558D01*
X149739918Y-86788558D02*
X149329918Y-86788558D01*
X149739918Y-88608558D02*
X149329918Y-88608558D01*
X149739918Y-89328558D02*
X149329918Y-89328558D01*
X149739918Y-91148558D02*
X149329918Y-91148558D01*
X149739918Y-91868558D02*
X149329918Y-91868558D01*
X149739918Y-93688558D02*
X149329918Y-93688558D01*
X149739918Y-94408558D02*
X149329918Y-94408558D01*
X149739918Y-96228558D02*
X149329918Y-96228558D01*
X149739918Y-96948558D02*
X149329918Y-96948558D01*
X149739918Y-98768558D02*
X149329918Y-98768558D01*
X149739918Y-99488558D02*
X149329918Y-99488558D01*
X149739918Y-101308558D02*
X149329918Y-101308558D01*
X149739918Y-102028558D02*
X149329918Y-102028558D01*
X149739918Y-103848558D02*
X149329918Y-103848558D01*
X149739918Y-104568558D02*
X149329918Y-104568558D01*
X149739918Y-106388558D02*
X149329918Y-106388558D01*
X149739918Y-107108558D02*
X149329918Y-107108558D01*
X158369918Y-82558558D02*
X149739918Y-82558558D01*
X158369918Y-82558558D02*
X158369918Y-108078558D01*
X158369918Y-82678558D02*
X149739918Y-82678558D01*
X158369918Y-82796653D02*
X149739918Y-82796653D01*
X158369918Y-82914748D02*
X149739918Y-82914748D01*
X158369918Y-83032843D02*
X149739918Y-83032843D01*
X158369918Y-83150938D02*
X149739918Y-83150938D01*
X158369918Y-83269033D02*
X149739918Y-83269033D01*
X158369918Y-83387128D02*
X149739918Y-83387128D01*
X158369918Y-83505223D02*
X149739918Y-83505223D01*
X158369918Y-83623318D02*
X149739918Y-83623318D01*
X158369918Y-83741413D02*
X149739918Y-83741413D01*
X158369918Y-83859508D02*
X149739918Y-83859508D01*
X158369918Y-83977603D02*
X149739918Y-83977603D01*
X158369918Y-84095698D02*
X149739918Y-84095698D01*
X158369918Y-84213793D02*
X149739918Y-84213793D01*
X158369918Y-84331888D02*
X149739918Y-84331888D01*
X158369918Y-84449983D02*
X149739918Y-84449983D01*
X158369918Y-84568078D02*
X149739918Y-84568078D01*
X158369918Y-84686173D02*
X149739918Y-84686173D01*
X158369918Y-84804268D02*
X149739918Y-84804268D01*
X158369918Y-84922363D02*
X149739918Y-84922363D01*
X158369918Y-85040458D02*
X149739918Y-85040458D01*
X158369918Y-85158558D02*
X149739918Y-85158558D01*
X158369918Y-87698558D02*
X149739918Y-87698558D01*
X158369918Y-90238558D02*
X149739918Y-90238558D01*
X158369918Y-92778558D02*
X149739918Y-92778558D01*
X158369918Y-95318558D02*
X149739918Y-95318558D01*
X158369918Y-97858558D02*
X149739918Y-97858558D01*
X158369918Y-100398558D02*
X149739918Y-100398558D01*
X158369918Y-102938558D02*
X149739918Y-102938558D01*
X158369918Y-105478558D02*
X149739918Y-105478558D01*
X158369918Y-108078558D02*
X149739918Y-108078558D01*
%TO.C,J2*%
X147169918Y-47058558D02*
X147169918Y-48388558D01*
X148279918Y-47058558D02*
X147169918Y-47058558D01*
X149739918Y-47058558D02*
X149739918Y-67498558D01*
X149739918Y-48028558D02*
X149389918Y-48028558D01*
X149739918Y-48748558D02*
X149389918Y-48748558D01*
X149739918Y-50568558D02*
X149329918Y-50568558D01*
X149739918Y-51288558D02*
X149329918Y-51288558D01*
X149739918Y-53108558D02*
X149329918Y-53108558D01*
X149739918Y-53828558D02*
X149329918Y-53828558D01*
X149739918Y-55648558D02*
X149329918Y-55648558D01*
X149739918Y-56368558D02*
X149329918Y-56368558D01*
X149739918Y-58188558D02*
X149329918Y-58188558D01*
X149739918Y-58908558D02*
X149329918Y-58908558D01*
X149739918Y-60728558D02*
X149329918Y-60728558D01*
X149739918Y-61448558D02*
X149329918Y-61448558D01*
X149739918Y-63268558D02*
X149329918Y-63268558D01*
X149739918Y-63988558D02*
X149329918Y-63988558D01*
X149739918Y-65808558D02*
X149329918Y-65808558D01*
X149739918Y-66528558D02*
X149329918Y-66528558D01*
X158369918Y-47058558D02*
X149739918Y-47058558D01*
X158369918Y-47058558D02*
X158369918Y-67498558D01*
X158369918Y-47178558D02*
X149739918Y-47178558D01*
X158369918Y-47296653D02*
X149739918Y-47296653D01*
X158369918Y-47414748D02*
X149739918Y-47414748D01*
X158369918Y-47532843D02*
X149739918Y-47532843D01*
X158369918Y-47650938D02*
X149739918Y-47650938D01*
X158369918Y-47769033D02*
X149739918Y-47769033D01*
X158369918Y-47887128D02*
X149739918Y-47887128D01*
X158369918Y-48005223D02*
X149739918Y-48005223D01*
X158369918Y-48123318D02*
X149739918Y-48123318D01*
X158369918Y-48241413D02*
X149739918Y-48241413D01*
X158369918Y-48359508D02*
X149739918Y-48359508D01*
X158369918Y-48477603D02*
X149739918Y-48477603D01*
X158369918Y-48595698D02*
X149739918Y-48595698D01*
X158369918Y-48713793D02*
X149739918Y-48713793D01*
X158369918Y-48831888D02*
X149739918Y-48831888D01*
X158369918Y-48949983D02*
X149739918Y-48949983D01*
X158369918Y-49068078D02*
X149739918Y-49068078D01*
X158369918Y-49186173D02*
X149739918Y-49186173D01*
X158369918Y-49304268D02*
X149739918Y-49304268D01*
X158369918Y-49422363D02*
X149739918Y-49422363D01*
X158369918Y-49540458D02*
X149739918Y-49540458D01*
X158369918Y-49658558D02*
X149739918Y-49658558D01*
X158369918Y-52198558D02*
X149739918Y-52198558D01*
X158369918Y-54738558D02*
X149739918Y-54738558D01*
X158369918Y-57278558D02*
X149739918Y-57278558D01*
X158369918Y-59818558D02*
X149739918Y-59818558D01*
X158369918Y-62358558D02*
X149739918Y-62358558D01*
X158369918Y-64898558D02*
X149739918Y-64898558D01*
X158369918Y-67498558D02*
X149739918Y-67498558D01*
%TD*%
M02*
