%TF.GenerationSoftware,KiCad,Pcbnew,9.0.2*%
%TF.CreationDate,2025-06-25T22:54:11+10:00*%
%TF.ProjectId,F0-uConsole,46302d75-436f-46e7-936f-6c652e6b6963,rev?*%
%TF.SameCoordinates,Original*%
%TF.FileFunction,Profile,NP*%
%FSLAX46Y46*%
G04 Gerber Fmt 4.6, Leading zero omitted, Abs format (unit mm)*
G04 Created by KiCad (PCBNEW 9.0.2) date 2025-06-25 22:54:11*
%MOMM*%
%LPD*%
G01*
G04 APERTURE LIST*
%TA.AperFunction,Profile*%
%ADD10C,0.050000*%
%TD*%
G04 APERTURE END LIST*
D10*
X107840761Y-38558558D02*
X135890176Y-38558558D01*
X140984843Y-101900000D02*
X137864786Y-101900000D01*
X152984497Y-109400000D02*
X142985824Y-109400000D01*
X140984015Y-47907184D02*
G75*
G02*
X142985667Y-45905015I2001685J484D01*
G01*
X142985667Y-45900000D02*
X152984340Y-45900000D01*
X140984843Y-51798203D02*
X140984015Y-47906642D01*
X107824503Y-115537019D02*
G75*
G02*
X105850081Y-113562161I197J1974619D01*
G01*
X105850000Y-113562161D02*
X105850000Y-90520000D01*
X137890705Y-51800000D02*
X140984843Y-51798203D01*
X135890176Y-38558558D02*
G75*
G02*
X137892442Y-40560210I624J-2001642D01*
G01*
X105825237Y-63500309D02*
G75*
G02*
X105131292Y-64200011I-700037J309D01*
G01*
X137864786Y-101900000D02*
X137890617Y-113508192D01*
X142985824Y-109397509D02*
G75*
G02*
X140983591Y-107395857I-524J2001709D01*
G01*
X105824451Y-40566452D02*
G75*
G02*
X107840761Y-38558562I2009549J-1648D01*
G01*
X154986525Y-47907027D02*
X154986149Y-107406242D01*
X140983639Y-107395857D02*
X140984843Y-101900000D01*
X154990082Y-107405702D02*
G75*
G02*
X152996315Y-109399982I-1993782J-498D01*
G01*
X137890720Y-40560209D02*
X137890705Y-51800000D01*
X137890617Y-113565365D02*
G75*
G02*
X135890416Y-115537021I-2000017J28565D01*
G01*
X105160024Y-89803750D02*
G75*
G02*
X105850079Y-90519999I-33024J-722350D01*
G01*
X105825237Y-63517782D02*
X105834069Y-40566461D01*
X135890416Y-115537019D02*
X107824503Y-115537019D01*
X152984340Y-45901442D02*
G75*
G02*
X154986558Y-47903094I560J-2001658D01*
G01*
%TO.C,J1*%
X102635000Y-71700000D02*
X102635000Y-64900000D01*
X102635000Y-74600000D02*
X102635000Y-89100000D01*
X103335000Y-64200000D02*
X105135000Y-64200000D01*
X103335000Y-72400000D02*
X105885000Y-72400000D01*
X103335000Y-73900000D02*
X105885000Y-73900000D01*
X103335000Y-89800000D02*
X105135000Y-89800000D01*
X102635000Y-64900000D02*
G75*
G02*
X103335000Y-64200000I699999J1D01*
G01*
X102635000Y-74600000D02*
G75*
G02*
X103335000Y-73900000I700000J0D01*
G01*
X103335000Y-72400000D02*
G75*
G02*
X102635000Y-71700000I-1J699999D01*
G01*
X103335000Y-89800000D02*
G75*
G02*
X102635000Y-89100000I0J700000D01*
G01*
X105885000Y-72400000D02*
G75*
G02*
X105885000Y-73900000I0J-750000D01*
G01*
%TD*%
M02*
